<svg xmlns="http://www.w3.org/2000/svg" version="1.1" x="0" y="0" viewBox="0 0 288 160.7" xml:space="preserve"><style type="text/css">
	.st0{fill:#404041;}
	.st1{fill:#AE1E26;}
	.st2{fill:#FFFFFF;}
</style><path class="st0" d="M58 109H44.1V96.3h-5v30.1h5v-12.7H58v12.7h5.1V96.3H58V109zM84.7 113.1c0-4-2.4-7.5-8.6-7.5 -5 0-8.1 3.1-8.5 6.6l4.4 1c0.2-2 1.6-3.6 4.1-3.6 2.7 0 3.8 1.4 3.8 3.1 0 0.7-0.3 1.3-1.5 1.5l-5.2 0.8c-3.4 0.5-6.1 2.5-6.1 6.1 0 3.2 2.6 6.1 6.8 6.1 3.3 0 5.3-1.7 6.2-3.2 0 1.6 0.2 2.4 0.2 2.6h4.5c0-0.2-0.2-1.4-0.2-3.2V113.1zM79.9 118c0 3.9-2.3 5.2-5 5.2 -1.9 0-2.9-1.2-2.9-2.6 0-1.7 1.2-2.5 2.7-2.7l5.3-0.8V118zM98.4 114.3l-3.1-0.6c-1.3-0.3-2.1-1-2.1-2.1 0-1.3 1.2-2.3 2.9-2.3 2.7 0 3.6 1.9 3.8 3.1l4.1-1.2c-0.3-2-2.2-5.7-7.9-5.7 -4.2 0-7.5 3-7.5 6.6 0 2.8 1.9 5.2 5.5 5.9l3 0.7c1.6 0.3 2.4 1.2 2.4 2.3 0 1.3-1 2.3-3.1 2.3 -2.6 0-4-1.6-4.1-3.5l-4.2 1.2c0.3 2.3 2.5 6.2 8.4 6.2 5.2 0 7.7-3.4 7.7-6.5C104.2 117.5 102.2 115.2 98.4 114.3zM119.4 105.4c-2.1 0-4.4 0.8-5.8 2.6V96.3h-4.9v30.1h4.9v-12c0.1-2.6 1.5-4.6 4.2-4.6 3.1 0 4.2 2 4.2 4.5v12.1h4.9v-12.9C126.9 109 124.5 105.4 119.4 105.4zM136.6 109v-3.3h-4.7v20.7h4.9v-10c0-3.8 1.7-6 5.5-6 0.5 0 1 0 1.6 0.1v-4.9c-0.2 0-0.7-0.1-1.3-0.1C139.8 105.5 137.5 106.8 136.6 109zM156.5 105.6c-6 0-10.4 4.5-10.4 10.7 0 6.2 4.4 10.7 10.4 10.7 6.1 0 10.5-4.5 10.5-10.7C167 110.1 162.6 105.6 156.5 105.6zM156.5 122.7c-2.9 0-5.6-2.2-5.6-6.4 0-4.2 2.7-6.3 5.6-6.3 3 0 5.6 2.2 5.6 6.3C162.2 120.5 159.5 122.7 156.5 122.7zM181.1 122.6c-3 0-5.6-2.3-5.6-6.3 0-4.1 2.6-6.3 5.6-6.3 3.1 0 4.4 2 4.9 3.8l4.3-1.6c-0.8-3.2-3.8-6.6-9.2-6.6 -5.8 0-10.3 4.5-10.3 10.7 0 6.1 4.5 10.7 10.4 10.7 5.3 0 8.3-3.4 9.3-6.6l-4.2-1.5C185.7 120.4 184.3 122.6 181.1 122.6zM207.4 105.7l-8.1 8.5v-18h-4.8v30.1h4.8v-5.7l2.5-2.6 6 8.3h5.9l-8.5-11.8 8.7-8.9H207.4zM224.1 105.6c-5.1 0-9.8 4.2-9.8 10.6 0 6.8 4.9 10.8 10.3 10.8 4.9 0 8-2.9 9.1-6.4l-4.1-1.3c-0.7 2-2.2 3.5-5.1 3.5 -3 0-5.4-2.2-5.5-5.3h14.8c0-0.1 0.1-0.7 0.1-1.5C234 109.7 230.4 105.6 224.1 105.6zM219.3 114.1c0.2-2.2 1.9-4.5 4.9-4.5 3.3 0 4.9 2.1 5 4.5H219.3zM247.3 122.4c-1.8 0-2.6-0.8-2.6-2.6v-9.5h4.2V106h-4.2v-6.2h-4.4v3.1c0 1.8-1 3.2-3.1 3.2h-1v4.3h3.8v10.3c0 3.8 2.3 6.1 6.1 6.1 1.8 0 2.7-0.3 3-0.5v-4C248.8 122.2 248 122.4 247.3 122.4z"/><polygon class="st1" points="127 33.6 117.8 44.7 125.9 49.2 118.4 58.5 127.4 63.7 124.5 78.7 138.9 75.3 144.2 84.3 153.5 76.6 158.4 85.3 169.5 76.1 169.5 33.6 "/><path class="st2" d="M141.4 50.4l-9.1 9.1 3.4 3.4 9.1-9.1L141.4 50.4zM138 42.2v4.7h18.2v18.2h4.7V42.2L138 42.2zM140 66.9l3.4 3.4 9.1-9.1 -3.4-3.4L140 66.9z"/></svg>