<?xml version="1.0" encoding="utf-8"?>
<!-- Generator: Adobe Illustrator 18.1.1, SVG Export Plug-In . SVG Version: 6.00 Build 0)  -->
<!DOCTYPE svg PUBLIC "-//W3C//DTD SVG 1.1//EN" "http://www.w3.org/Graphics/SVG/1.1/DTD/svg11.dtd">
<svg version="1.1" id="ember_weekend_logos" xmlns="http://www.w3.org/2000/svg" xmlns:xlink="http://www.w3.org/1999/xlink"
	 x="0px" y="0px" width="364.2px" height="313.1px" viewBox="0 0 364.2 313.1" enable-background="new 0 0 364.2 313.1"
	 xml:space="preserve">
<pattern  x="-382.9" y="-1709.5" width="28.8" height="28.8" patternUnits="userSpaceOnUse" id="_x31_0_dpi_20_x25_" viewBox="1.4 -30.2 28.8 28.8" overflow="visible">
	<g>
		<polygon fill="none" points="1.4,-30.2 30.2,-30.2 30.2,-1.4 1.4,-1.4 		"/>
		<g>
			<path fill="#231F20" d="M30.2,0c0.8,0,1.4-0.6,1.4-1.4c0-0.8-0.6-1.4-1.4-1.4c-0.8,0-1.4,0.6-1.4,1.4C28.8-0.6,29.4,0,30.2,0z"/>
			<path fill="#231F20" d="M15.8,0c0.8,0,1.4-0.6,1.4-1.4c0-0.8-0.6-1.4-1.4-1.4c-0.8,0-1.4,0.6-1.4,1.4C14.4-0.6,15,0,15.8,0z"/>
			<path fill="#231F20" d="M30.2-14.4c0.8,0,1.4-0.6,1.4-1.4c0-0.8-0.6-1.4-1.4-1.4c-0.8,0-1.4,0.6-1.4,1.4
				C28.8-15,29.4-14.4,30.2-14.4z"/>
			<path fill="#231F20" d="M15.8-14.4c0.8,0,1.4-0.6,1.4-1.4c0-0.8-0.6-1.4-1.4-1.4c-0.8,0-1.4,0.6-1.4,1.4
				C14.4-15,15-14.4,15.8-14.4z"/>
			<path fill="#231F20" d="M8.6-7.2c0.8,0,1.4-0.6,1.4-1.4c0-0.8-0.6-1.4-1.4-1.4c-0.8,0-1.4,0.6-1.4,1.4C7.2-7.8,7.8-7.2,8.6-7.2z"
				/>
			<path fill="#231F20" d="M23-7.2c0.8,0,1.4-0.6,1.4-1.4c0-0.8-0.6-1.4-1.4-1.4c-0.8,0-1.4,0.6-1.4,1.4C21.6-7.8,22.2-7.2,23-7.2z"
				/>
			<path fill="#231F20" d="M8.6-21.6c0.8,0,1.4-0.6,1.4-1.4c0-0.8-0.6-1.4-1.4-1.4c-0.8,0-1.4,0.6-1.4,1.4
				C7.2-22.2,7.8-21.6,8.6-21.6z"/>
			<path fill="#231F20" d="M23-21.6c0.8,0,1.4-0.6,1.4-1.4c0-0.8-0.6-1.4-1.4-1.4c-0.8,0-1.4,0.6-1.4,1.4
				C21.6-22.2,22.2-21.6,23-21.6z"/>
		</g>
		<g>
			<path fill="#231F20" d="M1.4,0c0.8,0,1.4-0.6,1.4-1.4c0-0.8-0.6-1.4-1.4-1.4C0.6-2.9,0-2.2,0-1.4C0-0.6,0.6,0,1.4,0z"/>
			<path fill="#231F20" d="M1.4-14.4c0.8,0,1.4-0.6,1.4-1.4c0-0.8-0.6-1.4-1.4-1.4c-0.8,0-1.4,0.6-1.4,1.4C0-15,0.6-14.4,1.4-14.4z"
				/>
		</g>
		<g>
			<path fill="#231F20" d="M30.2-28.8c0.8,0,1.4-0.6,1.4-1.4c0-0.8-0.6-1.4-1.4-1.4c-0.8,0-1.4,0.6-1.4,1.4
				C28.8-29.4,29.4-28.8,30.2-28.8z"/>
			<path fill="#231F20" d="M15.8-28.8c0.8,0,1.4-0.6,1.4-1.4c0-0.8-0.6-1.4-1.4-1.4c-0.8,0-1.4,0.6-1.4,1.4
				C14.4-29.4,15-28.8,15.8-28.8z"/>
		</g>
		<g>
			<path fill="#231F20" d="M1.4-28.8c0.8,0,1.4-0.6,1.4-1.4c0-0.8-0.6-1.4-1.4-1.4C0.6-31.7,0-31,0-30.2C0-29.4,0.6-28.8,1.4-28.8z"
				/>
		</g>
	</g>
</pattern>
<circle fill="#E24C32" stroke="#FFFFFF" stroke-miterlimit="10" cx="-175.7" cy="-363.8" r="7.1"/>
<path fill="#E24C32" d="M38.3-970.3c0,0-6.4,0.6-10.6,2.6c-4.2,2-10.2,6.2-10.2,6.2l-1.4-1c0,0,7-5.2,10.7-7.1s13-6.2,13-6.2
	L38.3-970.3z"/>
<polygon points="-896.4,-1622.7 -905.5,-1620.3 -909.2,-1580.5 -900.4,-1548.4 -888.5,-1549 -887.5,-1588.3 "/>
<ellipse fill="#DDEDEA" cx="-781.1" cy="-1514.5" rx="36" ry="34.5"/>
<g id="cXzijB.tif">
	
		<image overflow="visible" width="350" height="503" id="Layer_0" xlink:href="C5AEAF2DF5C10D0C.png"  transform="matrix(0.1299 0 0 0.1299 -969.6896 -1718.9374)">
	</image>
</g>
<path fill="none" stroke="#000000" stroke-width="2.185" stroke-linecap="round" stroke-miterlimit="10" d="M-857.5-1682
	c1.1,4.2-0.5,10.2-8.8,12.3c-8.6,2.1-13.3-0.8-14.6-6.4"/>
<line fill="none" stroke="#000000" stroke-width="2.185" stroke-linecap="round" stroke-miterlimit="10" x1="-866.3" y1="-1669.7" x2="-864.8" y2="-1663.4"/>
<line fill="none" stroke="#000000" stroke-width="2.185" stroke-linecap="round" stroke-miterlimit="10" x1="-867.9" y1="-1661.9" x2="-861.2" y2="-1663.5"/>
<path d="M-875.3-1706.6l-0.4,0.1c-4.4,1.1-7.1,5.5-6,9.9l4.2,17.1c1.1,4.4,5.5,7.1,9.9,6l0.4-0.1c4.4-1.1,7.1-5.5,6-9.9l-4.2-17.1
	C-866.5-1705-870.9-1707.7-875.3-1706.6z M-867.2-1684.3c-0.1,0.2-0.3,0.3-0.5,0.4c-0.2,0.1-0.5,0-0.7-0.1l-5.2-3.1
	c-0.4-0.3-0.5-0.8-0.3-1.2c0.2-0.4,0.8-0.5,1.2-0.3l5.2,3.1C-867.1-1685.3-867-1684.7-867.2-1684.3z M-868.3-1688.6
	c-0.1,0.2-0.3,0.3-0.5,0.4c-0.2,0.1-0.5,0-0.7-0.1l-5.2-3.1c-0.4-0.3-0.5-0.8-0.3-1.2c0.2-0.4,0.8-0.5,1.2-0.3l5.2,3.1
	C-868.1-1689.6-868-1689-868.3-1688.6z M-869.3-1692.9c-0.1,0.2-0.3,0.3-0.5,0.4c-0.2,0.1-0.5,0-0.7-0.1l-5.2-3.1
	c-0.4-0.3-0.5-0.8-0.3-1.2c0.2-0.4,0.8-0.5,1.2-0.3l5.2,3.1C-869.2-1693.9-869.1-1693.3-869.3-1692.9z"/>
<g>
	<g>
		<polyline fill="none" stroke="#000000" stroke-width="0.7452" points="-1021.1,-1775.6 -1020,-1775.7 -1019,-1768.1 
			-1018.6,-1784.5 -1017.4,-1772.3 -1016.9,-1782 -1015.6,-1770.2 -1015.3,-1782.4 -1014.1,-1776.2 		"/>
	</g>
	<g>
		<path fill="none" stroke="#000000" stroke-width="0.7452" d="M-992.1-1781"/>
		<polyline fill="none" stroke="#000000" stroke-width="0.7452" points="-1008.1,-1774.8 -1007.7,-1786.1 -1006.6,-1772.5 
			-1005.8,-1782.7 -1004.7,-1769.8 -1004.3,-1784.3 -1003.4,-1773.7 -1002.7,-1785.1 -1002,-1767.6 -1001.3,-1781.6 
			-1000.7,-1766.1 -1000.4,-1783 -999.3,-1765.6 -998.7,-1779 -998.6,-1774.5 -999,-1784.3 -997.8,-1770.8 -997.5,-1783.5 
			-996.2,-1764.6 -995.3,-1786 -994.4,-1771 -993,-1784.4 -991.3,-1768.5 -990.6,-1779.2 -989.2,-1773.8 -988.4,-1777.6 		"/>
	</g>
	<g>
		<polyline fill="none" stroke="#000000" stroke-width="0.7452" stroke-miterlimit="2" points="-1039.3,-1777.4 -1037.7,-1770.6 
			-1037,-1781.5 -1035.3,-1767.7 -1034.8,-1784.6 -1033.3,-1768.8 -1033.2,-1783.4 -1032.4,-1772.4 -1031.9,-1781.9 
			-1031.1,-1769.8 -1030.7,-1782.6 -1030,-1774.4 -1029.4,-1780.1 -1029.1,-1776.1 -1027.6,-1776.1 		"/>
	</g>
	<path fill="none" stroke="#000000" stroke-width="0.7452" stroke-miterlimit="2" d="M-1027.7-1776.1c1.3,0,1.1,1.8,1.9,1.7
		c0.8-0.1,0.8-1.6,1.7-1.5c0.8,0.1,0.8,1.3,1.7,1.2c0.8-0.1,0.8-1,1.7-1"/>
	<path fill="none" stroke="#000000" stroke-width="0.7452" stroke-miterlimit="2" d="M-1014.1-1776.3c0.4,1.4,0.9,2.2,1.9,1.9
		c1-0.3,1-3,2-2.7c1,0.3,1,2,1.9,1.9"/>
	<path fill="none" stroke="#000000" stroke-width="0.7452" stroke-miterlimit="2" d="M-1014.2-1776.6"/>
</g>
<g>
	<g>
		<polyline fill="none" stroke="#000000" stroke-width="0.7452" points="-927.1,-1782.6 -926,-1782.7 -925,-1775.1 -924.6,-1791.5 
			-923.4,-1779.3 -922.9,-1789 -921.6,-1777.2 -921.3,-1789.4 -920.1,-1783.2 		"/>
	</g>
	<g>
		<polyline fill="none" stroke="#000000" stroke-width="0.7452" points="-914.1,-1781.8 -913.7,-1793.1 -912.6,-1779.5 
			-911.8,-1789.7 -910.7,-1776.8 -910.3,-1791.3 -909.4,-1780.7 -908.7,-1792.1 -908,-1774.6 -907.3,-1788.6 -906.7,-1773.1 
			-906.4,-1790 -905.3,-1772.6 -904.7,-1786 -904.6,-1781.5 -905,-1791.3 -903.8,-1777.8 		"/>
	</g>
	<g>
		<polyline fill="none" stroke="#000000" stroke-width="0.7452" stroke-miterlimit="2" points="-945.3,-1784.4 -943.7,-1777.6 
			-943,-1788.5 -941.3,-1774.7 -940.8,-1791.6 -939.3,-1775.8 -939.2,-1790.4 -938.4,-1779.4 -937.9,-1788.9 -937.1,-1776.8 
			-936.7,-1789.6 -936,-1781.4 -935.4,-1787.1 -935.1,-1783.1 -933.6,-1783.1 		"/>
	</g>
	<path fill="none" stroke="#000000" stroke-width="0.7452" stroke-miterlimit="2" d="M-933.7-1783.1c1.3,0,1.1,1.8,1.9,1.7
		c0.8-0.1,0.8-1.6,1.7-1.5c0.8,0.1,0.8,1.3,1.7,1.2c0.8-0.1,0.8-1,1.7-1"/>
	<path fill="none" stroke="#000000" stroke-width="0.7452" stroke-miterlimit="2" d="M-920.1-1783.3c0.4,1.4,0.9,2.2,1.9,1.9
		c1-0.3,1-3,2-2.7c1,0.3,1,2,1.9,1.9"/>
	<path fill="none" stroke="#000000" stroke-width="0.7452" stroke-miterlimit="2" d="M-920.2-1783.6"/>
</g>
<g>
	<g>
		<path fill="none" stroke="#000000" stroke-width="2.2173" stroke-linecap="round" stroke-miterlimit="10" d="M-772-1720.6
			c1,4.3-1.2,10.6-9.7,12.4c-8.3,1.8-12.2-1.1-13.9-6.7"/>
		
			<line fill="none" stroke="#000000" stroke-width="2.2173" stroke-linecap="round" stroke-miterlimit="10" x1="-781.7" y1="-1708.1" x2="-780.3" y2="-1701.7"/>
		
			<line fill="none" stroke="#000000" stroke-width="2.2173" stroke-linecap="round" stroke-miterlimit="10" x1="-783.5" y1="-1700.3" x2="-776.7" y2="-1701.7"/>
	</g>
	<path d="M-775.8-1720.9l-3.7-17.5c-0.9-4.5-5.3-7.4-9.8-6.4l-0.4,0.1c-4.5,0.9-7.4,5.3-6.4,9.8l0.9,4.2l8.6-2
		c0.5-0.1,1.1,0.2,1.2,0.8c0.1,0.5-0.2,1.1-0.8,1.2l-8.6,2.1l0.4,2.1l8.6-2c0.5-0.1,1.1,0.2,1.2,0.8s-0.2,1.1-0.8,1.2l-8.6,2.1
		l0.4,2.1l8.6-2c0.5-0.1,1.1,0.2,1.2,0.8c0.1,0.5-0.2,1.1-0.8,1.2l-8.7,2.1l0.7,3.2c0.9,4.5,5.3,7.4,9.8,6.4l0.4-0.1
		C-777.7-1712-774.8-1716.4-775.8-1720.9z"/>
</g>
<g>
	<path d="M-1002.1-1704.2l-0.4,0c-4.6,0-8.3,3.7-8.4,8.2l-0.1,17.9c0,4.6,3.7,8.3,8.2,8.4l0.4,0c4.6,0,8.3-3.7,8.4-8.2l0.1-17.9
		C-993.9-1700.4-997.6-1704.1-1002.1-1704.2z"/>
	
		<line fill="none" stroke="#FFFFFF" stroke-width="2.0296" stroke-linecap="round" stroke-linejoin="round" stroke-miterlimit="10" x1="-1012.2" y1="-1693.7" x2="-1002.1" y2="-1693.9"/>
	
		<line fill="none" stroke="#FFFFFF" stroke-width="2.0296" stroke-linecap="round" stroke-linejoin="round" stroke-miterlimit="10" x1="-1012.2" y1="-1689.5" x2="-1002.1" y2="-1689.7"/>
	
		<line fill="none" stroke="#FFFFFF" stroke-width="2.0296" stroke-linecap="round" stroke-linejoin="round" stroke-miterlimit="10" x1="-1012.2" y1="-1685.3" x2="-1002.1" y2="-1685.5"/>
</g>
<polygon fill="none" stroke="#000000" stroke-linecap="round" stroke-linejoin="round" stroke-miterlimit="10" points="-1017,-1679 
	-1019.1,-1694.6 -1008.2,-1681.4 -1002.1,-1676.9 -996.2,-1681.2 -986.4,-1694.9 -988.5,-1678.9 -986,-1663.5 -997.6,-1676.6 
	-1002.8,-1662.1 -1007.5,-1676.6 -1019,-1663.9 "/>
<line fill="none" stroke="#000000" stroke-width="2" stroke-linejoin="round" stroke-miterlimit="10" x1="-1016.7" y1="-1679" x2="-988.6" y2="-1679"/>
<path fill="none" stroke="#000000" stroke-linecap="round" stroke-linejoin="round" stroke-miterlimit="10" d="M-1012.2-1679l1,10.9
	c0,0,0.2,1.1,0.8,1.1c0.6,0,15.5,0,15.5,0s1-0.2,1-0.8c0-0.7,1.2-10.6,1.2-10.6"/>
<g>
	<path d="M-789.6-1465.1c0,0-2.1,1.9-4.3,3.3c-2.3,1.4-4.7,2.4-5.7,2.7c-5.2,1.7-10.7,2.3-16.2,2.8c-15.8,1.4-31.8,0.8-47.6,0
		c-14.1-0.8-27.9-2.3-42-1.3c-16.2,1.2-36.2,4.6-47.1,18c-5.1,6.3-8,15.6-6,23.6c1.7,6.8,7.8,9.5,14.4,9.4c7.9-0.1,15.7-3.9,23-6.8
		c5.3-2.2,11.6-7.2,16.6-10.1c0.2-0.1-9.2,5.7-18.4,9c-5.5,2-11.6,3.6-15.9,4.4c-5.6,1-13.6,1.2-16.2-5c-3-7.3,0.3-17.1,5.1-22.8
		c10.8-12.9,30.5-15.8,46.3-16.8c14-0.9,27.7,0.7,41.6,1.5c15.3,0.8,30.7,1.3,45.9,0c5.3-0.4,10.6-1,15.8-2.4c3.1-0.9,6.8-2,8.9-4.6
		C-790.5-1461.5-789.6-1465.1-789.6-1465.1z"/>
</g>
<g>
	<path d="M-944.4-1411.5c-2.5,0-3.7-0.4-5.1-1.3c-1.4-1-2.2-2.4-2.2-4.1c0-2.4,1.1-4.7,3.3-6.7c9-8.3,36-11.8,70.4-9
		c23,1.9,44.5,2.4,60.5,1.4c6.5-0.4,22.7-1.6,31-9.4c0.1,0.7,0.4,4.5-1.3,5.6c-1.7,1.1-9.1,5.6-29.6,6.8c-16.2,1-37.8,0.5-61-1.4
		c-33.1-2.7-59.9,0.6-68.1,8.2c-1.5,1.4-2.3,2.9-2.3,4.4c0,0.8,0.2,1.3,0.8,1.7c4.9,3.3,25.8-0.6,43.4-8.3c0.1,0.1-6.1,3.4-11.2,5.4
		C-920.6-1416.4-932.7-1411.5-944.4-1411.5z"/>
</g>
<image overflow="visible" width="161" height="39" xlink:href="C5AEAF2DF5C10D0D.png"  transform="matrix(1 0 0 1 -215.8562 -1382.5208)">
</image>
<pattern  id="SVGID_1_" xlink:href="#_x31_0_dpi_20_x25_" patternTransform="matrix(0.3109 -3.923669e-02 0.1171 0.4445 -4513.4058 -3608.0454)">
</pattern>
<polygon fill="url(#SVGID_1_)" stroke="#000000" stroke-width="0.5" stroke-miterlimit="10" points="-887.8,-1588.4 -866.1,-1591 
	-877.9,-1624.4 -896.3,-1622.4 "/>
<pattern  id="SVGID_2_" xlink:href="#_x31_0_dpi_20_x25_" patternTransform="matrix(0.3344 -2.867791e-02 -5.573137e-02 0.4318 -5309.394 -3597.1799)">
</pattern>
<polygon fill="url(#SVGID_2_)" stroke="#000000" stroke-width="0.5" stroke-miterlimit="10" points="-887.5,-1588.2 -888.7,-1549.4 
	-868.5,-1551.4 -866.1,-1590.5 "/>
<polygon fill="#E24C32" points="-166.9,-1504 -185.7,-1499.5 -190.7,-1502.6 -171,-1506.8 "/>
<polygon fill="#E24C32" points="-190.2,-1501 -196.3,-1484 -190.3,-1453.1 -185.2,-1451.1 -181.7,-1484.1 -185.4,-1498.4 "/>
<path fill="#E24C32" d="M-197.8-1435.9l15.4,2.7l28.7-0.9c0,0-3.2-3.3-13.6-3.3S-197.8-1435.9-197.8-1435.9z"/>
<polygon fill="#E24C32" points="-152,-1489.9 -134,-1494.7 -134,-1491.6 -118.3,-1491.8 -138,-1487.6 -136.8,-1492.2 "/>
<path fill="#E24C32" stroke="#FFFFFF" stroke-miterlimit="10" d="M-180.6-1450.6l-1.1,13.1c0,0,1.1,1,4.4,0.9
	c3.3-0.1,4.4-1.1,4.4-1.1l1.8-13.2L-180.6-1450.6z"/>
<polygon fill="#E24C32" points="-151.3,-1481.6 -137.7,-1477.4 -139.8,-1476.1 -128.2,-1471.5 -144.6,-1475.8 -141.2,-1477.5 "/>
<polygon fill="#E24C32" points="-152.2,-1498.1 -147.3,-1506.3 -146.2,-1504.7 -140.2,-1511.3 -146.3,-1501.9 -147.4,-1504 "/>
<polygon fill="#E24C32" points="-198.3,-1435.2 -183.1,-1432.3 -153.7,-1433.3 -153,-1431.3 -184.3,-1429.4 -197.8,-1433.2 "/>
<g>
	<polygon fill="#E24C32" points="-184.2,-1498.8 -180.4,-1484.9 -183.7,-1450.8 -163.1,-1451.8 -156.2,-1489.4 -165.8,-1503.1 	"/>
	<g>
		<g>
			<path fill="#FFFFFF" d="M-178.9-1496.3c0.7,2.9,1.4,5.8,2,8.7c0.4,1.7,1.1,3.5,1,5.3c-0.5,7-1.4,14-2.2,21
				c-0.2,2.4-0.5,4.8-0.7,7.2c0,0.1,1,0.3,1,0.3c0.6-5.8,1.2-11.7,1.8-17.5c0.3-3.3,0.7-6.7,1-10c0.2-1.7-0.1-2.8-0.5-4.5
				c-0.8-3.4-1.6-6.8-2.4-10.2C-178-1496.2-178.9-1496.2-178.9-1496.3L-178.9-1496.3z"/>
		</g>
	</g>
	<g>
		<g>
			<path fill="#FFFFFF" d="M-172.9-1497.7c0.9,2.9,1.8,5.9,2.7,8.8c0.6,1.8,1.1,3,0.9,4.9c-0.9,7.3-1.7,14.6-2.6,21.9
				c-0.3,2.4-0.6,4.9-0.9,7.3c0,0.1,1,0.3,1,0.3c0.7-5.9,1.4-11.9,2.1-17.8c0.4-3.5,0.8-7,1.2-10.5c0.2-1.8,0.2-2.5-0.3-4.2
				c-1.1-3.4-2.1-6.9-3.2-10.3C-172-1497.6-172.9-1497.6-172.9-1497.7L-172.9-1497.7z"/>
		</g>
	</g>
	<g>
		<g>
			<path fill="#FFFFFF" d="M-168.3-1498.3c1.6,2.8,3.2,5.6,4.8,8.5c0.8,1.5,0.3,2.7,0,4.4c-1.2,7.8-2.4,15.7-3.6,23.5
				c-0.4,2.4-0.7,4.7-1.1,7.1c0,0.1,1,0.3,1,0.3c0.9-5.9,1.8-11.8,2.7-17.7c0.6-3.9,1.2-7.8,1.8-11.7c0.2-1.3,0.9-3.4,0.6-4.8
				c-0.4-1.6-2-3.5-2.8-5c-0.8-1.4-1.6-2.9-2.4-4.3C-167.5-1498.3-168.2-1498.2-168.3-1498.3L-168.3-1498.3z"/>
		</g>
	</g>
	<g>
		<g>
			<path fill="#FFFFFF" d="M-178.6-1488.2c5.5-0.3,10.3-2.4,15.5-3.9c1.7-0.5,1.4-1.5-0.3-1c-4.7,1.3-9.1,3.3-14,3.6
				C-178.2-1489.4-180.5-1488.1-178.6-1488.2L-178.6-1488.2z"/>
		</g>
	</g>
	<g>
		<g>
			<path fill="#FFFFFF" d="M-177.5-1476.3c5.2-0.2,10.5-0.7,15.6-1.7c1.3-0.3,0.9-1.6-0.3-1.3c-4.9,1-10,1.5-15.1,1.6
				C-178.4-1477.6-178.9-1476.2-177.5-1476.3L-177.5-1476.3z"/>
		</g>
	</g>
	<g>
		<g>
			<path fill="#FFFFFF" d="M-179.2-1462.4c5.2,0.2,10.3-0.2,15.4-1.1c1-0.2,1.7-1.4,0.3-1.2c-4.9,0.9-9.9,1.3-14.9,1.1
				C-179.3-1463.6-180.6-1462.4-179.2-1462.4L-179.2-1462.4z"/>
		</g>
	</g>
</g>
<g>
	<g id="Logo_2_">
		<g>
			<path fill="#E24C32" d="M-40.8-1404.3c-0.3-3.2-3.2-2-3.2-2s-4.6,3.6-8.7,3.2c-4.1-0.4-2.8-9.4-2.8-9.4s0.9-8.3-1.5-9
				c-2.4-0.7-5.3,2.2-5.3,2.2s-3.7,4-5.4,9.2l-0.5,0.2c0,0,0.5-9-0.1-11.1c-0.5-1-4.9-0.9-5.6,0.9c-0.7,1.8-4.2,14.5-4.4,19.8
				c0,0-6.8,5.8-12.8,6.8c-6,1-7.4-2.8-7.4-2.8s16.2-4.5,15.7-17.4c-0.6-12.9-13.1-8.1-14.5-7.1c-1.4,1-8.7,5.4-10.8,17.6
				c-0.1,0.4-0.2,2.2-0.2,2.2s-6.3,4.2-9.8,5.3c0,0,9.8-16.4-2.2-23.8c-5.4-3.2-9.7,3.6-9.7,3.6s16.1-17.9,12.5-33
				c-1.7-7.2-5.3-8-8.7-6.8c-5,2-6.9,4.9-6.9,4.9s-6.5,9.4-8,23.5c-1.5,14-3.7,31-3.7,31s-3.1,3-6,3.2c-2.9,0.2-1.6-8.5-1.6-8.5
				s2.2-13.2,2-15.4c-0.2-2.2-0.3-3.4-3-4.2c-2.6-0.8-5.5,2.5-5.5,2.5s-7.5,11.4-8.2,13.2l-0.4,0.7l-0.4-0.5c0,0,5.3-15.5,0.2-15.8
				c-5.1-0.2-8.4,5.6-8.4,5.6s-5.8,9.7-6,10.8l-0.4-0.5c0,0,2.4-11.2,1.9-14c-0.5-2.8-3.1-2.2-3.1-2.2s-3.3-0.4-4.2,1.7
				c-0.9,2.1-4,16.3-4.4,20.8c0,0-8.4,6-13.8,6c-5.5,0.1-4.9-3.5-4.9-3.5s20.1-6.9,14.6-20.4c-2.5-3.5-5.3-4.6-9.4-4.5
				c-4.1,0.1-9,2.6-12.3,9.8c-1.6,3.5-2.1,6.8-2.4,9.3v0c0,0-3.6,0.7-5.5-0.9c-1.9-1.6-2.9,0-2.9,0s-3.3,4.8,0,6
				c3.3,1.3,8.3,2.5,8.3,2.5h0c0.5,1,1.8,5.4,5.8,8.4c6,4.5,17.4-0.7,17.4-0.7l4.7-2.8c0,0,0.2,4.2,3.6,4.8
				c3.4,0.6,4.9-0.1,10.8-14.5c3.5-7.4,3.7-7,3.7-7l0.4-0.1c0,0-2.7,14.1-1.6,17.9c1,3.8,5.6,3.4,5.6,3.4s2.5,1.8,4.5-5.1
				c2-7,5.8-13.3,5.8-13.3h0.5c0,0-1.7,13,0.9,17.6c2.6,4.6,9.2,0.8,9.2,0.8s4.6-2.7,5.3-3.4c0,0,5.5,4.5,13.2,3.6
				c17.3-3.4,23.4-8.1,23.4-8.1s3,7.4,12.2,8.1c10.5,0.8,16.2-5.8,16.2-5.8s-0.1,4.3,3.6,5.8c3.7,1.5,6.1-4.9,6.1-4.9l6.1-14.8h0.6
				c0,0,0.3,8.9,6.4,10.6c6.1,1.7,13.9-5.1,13.9-5.1S-40.5-1401.1-40.8-1404.3z M-212.1-1402.5c0.2-9.4,6.4-13.6,8.6-11.5
				c2.2,2.1,1.4,6.5-2.7,9.3C-210.2-1401.9-212.1-1402.5-212.1-1402.5z M-131.3-1439.1c0,0,5.6-14.7,7-7.5
				c1.4,7.1-11.8,28.4-11.8,28.4C-136-1423-131.3-1439.1-131.3-1439.1z M-124.5-1398.3c-3.7,9.7-12.8,5.8-12.8,5.8s-1-3.5,1.9-13.2
				c2.9-9.7,9.9-6,9.9-6S-120.8-1408.1-124.5-1398.3z M-99.4-1402.6c0,0-0.9-3.1,2.4-9c3.3-5.9,5.8-2.7,5.8-2.7s2.8,3-0.4,7.5
				C-94.8-1402.3-99.4-1402.6-99.4-1402.6z"/>
		</g>
	</g>
</g>
<image overflow="visible" width="164" height="57" xlink:href="C5AEAF2DF5C10D0B.png"  transform="matrix(1 0 0 1 -212.8562 -1098.5208)">
</image>
<g>
	<path fill="#E24C32" d="M-181.8-1207.4c-0.1,0.4-18.2,4.5-18.8,4.5c-0.5,0-5.3-2.8-5.1-3.2c0.2-0.4,19.1-4.2,19.7-4.1
		C-185.3-1210.1-181.6-1207.7-181.8-1207.4z"/>
	<path fill="#E24C32" d="M-205.1-1204.4c-0.4,0.3-6.3,12.2-6.1,17c0.2,4.9,5.7,30.5,6,30.9c0.3,0.4,4.7,2.1,5.1,2
		c0.4-0.1,4.1-28.6,3.5-33c-0.6-4.4-3.4-13.9-3.7-14.4S-204.7-1204.6-205.1-1204.4z"/>
	<polygon fill="#E24C32" points="-166.9,-1193.3 -148.8,-1198.1 -148.9,-1195 -133.1,-1195.2 -152.9,-1191 -151.6,-1195.6 	"/>
	<polygon fill="#E24C32" points="-166.2,-1185 -152.6,-1180.8 -154.6,-1179.5 -143.1,-1174.8 -159.5,-1179.2 -156.1,-1180.9 	"/>
	<polygon fill="#E24C32" points="-167,-1201.4 -162.1,-1209.6 -161.1,-1208.1 -155.1,-1214.7 -161.2,-1205.3 -162.3,-1207.4 	"/>
	<g>
		<path fill="#E24C32" d="M-199.1-1202.2c-0.1,0.5,3.8,11.1,3.8,14c0.1,2.9-3.6,33.7-3.4,34.1c0.3,0.4,20.1-0.8,20.6-1
			c0.5-0.3,7.7-33.3,7-37.6c-0.7-4.3-9.1-13.5-9.6-13.8S-198.9-1202.7-199.1-1202.2z"/>
		<g>
			<g>
				<path fill="#FFFFFF" d="M-193.8-1199.7c0.7,2.9,1.4,5.8,2,8.7c0.4,1.7,1.1,3.5,1,5.3c-0.5,7-1.4,14-2.2,21
					c-0.2,2.4-0.5,4.8-0.7,7.2c0,0.1,1,0.3,1,0.3c0.6-5.8,1.2-11.7,1.8-17.5c0.3-3.3,0.7-6.7,1-10c0.2-1.7-0.1-2.8-0.5-4.5
					c-0.8-3.4-1.6-6.8-2.4-10.2C-192.9-1199.6-193.8-1199.6-193.8-1199.7L-193.8-1199.7z"/>
			</g>
		</g>
		<g>
			<g>
				<path fill="#FFFFFF" d="M-187.8-1201.1c0.9,2.9,1.8,5.9,2.7,8.8c0.6,1.8,1.1,3,0.9,4.9c-0.9,7.3-1.7,14.6-2.6,21.9
					c-0.3,2.4-0.6,4.9-0.9,7.3c0,0.1,1,0.3,1,0.3c0.7-5.9,1.4-11.9,2.1-17.8c0.4-3.5,0.8-7,1.2-10.5c0.2-1.8,0.2-2.5-0.3-4.2
					c-1.1-3.4-2.1-6.9-3.2-10.3C-186.9-1201-187.8-1201-187.8-1201.1L-187.8-1201.1z"/>
			</g>
		</g>
		<g>
			<g>
				<path fill="#FFFFFF" d="M-183.2-1201.7c1.6,2.8,3.2,5.6,4.8,8.5c0.8,1.5,0.3,2.7,0,4.4c-1.2,7.8-2.4,15.7-3.6,23.5
					c-0.4,2.4-0.7,4.7-1.1,7.1c0,0.1,1,0.3,1,0.3c0.9-5.9,1.8-11.8,2.7-17.7c0.6-3.9,1.2-7.8,1.8-11.7c0.2-1.3,0.9-3.4,0.6-4.8
					c-0.4-1.6-2-3.5-2.8-5c-0.8-1.4-1.6-2.9-2.4-4.3C-182.4-1201.7-183.1-1201.6-183.2-1201.7L-183.2-1201.7z"/>
			</g>
		</g>
		<g>
			<g>
				<path fill="#FFFFFF" d="M-193.5-1191.6c5.5-0.3,10.3-2.4,15.5-3.9c1.7-0.5,1.4-1.5-0.3-1c-4.7,1.3-9.1,3.3-14,3.6
					C-193.1-1192.8-195.4-1191.5-193.5-1191.6L-193.5-1191.6z"/>
			</g>
		</g>
		<g>
			<g>
				<path fill="#FFFFFF" d="M-192.4-1178.7c5.2-0.2,10.5-0.7,15.6-1.7c1.3-0.3,0.9-1.6-0.3-1.3c-4.9,1-10,1.5-15.1,1.6
					C-193.3-1180-193.7-1178.6-192.4-1178.7L-192.4-1178.7z"/>
			</g>
		</g>
		<g>
			<g>
				<path fill="#FFFFFF" d="M-194.1-1165.7c5.2,0.2,10.3-0.2,15.4-1.1c1-0.2,1.7-1.4,0.3-1.2c-4.9,0.9-9.9,1.3-14.9,1.1
					C-194.2-1167-195.5-1165.8-194.1-1165.7L-194.1-1165.7z"/>
			</g>
		</g>
	</g>
</g>
<g>
	<g id="Logo_1_">
		<g>
			<path fill="#E24C32" d="M-40.9-1121.9c-0.7-3.1-3.4-1.6-3.4-1.6s-4.2,4.1-8.2,4.2c-4.1,0.1-3.9-9-3.9-9s-0.1-8.3-2.6-8.7
				c-2.5-0.4-5,2.8-5,2.8s-3.1,4.5-4.3,9.8l-0.5,0.2c0,0-0.5-9-1.4-11c-0.6-1-4.9-0.4-5.4,1.5c-0.5,1.9-2.4,14.9-2,20.2
				c0,0-6.1,6.6-11.9,8.2c-5.8,1.7-7.7-1.9-7.7-1.9s15.6-6.4,13.5-19.2c-2.1-12.7-14-6.5-15.3-5.3c-1.2,1.2-8,6.4-8.6,18.8
				c0,0.4,0.1,2.2,0.1,2.2s-5.7,4.9-9.1,6.4c0,0,7.7-17.5-5-23.4c-5.8-2.6-9.2,4.7-9.2,4.7s13.9-19.7,8.5-34.3
				c-2.6-6.9-6.2-7.3-9.4-5.7c-4.8,2.6-6.3,5.7-6.3,5.7s-5.3,10.1-5.2,24.2c0.2,14.1,0,31.2,0,31.2s-2.7,3.4-5.5,3.9
				c-2.8,0.5-2.6-8.2-2.6-8.2s0.6-13.3,0.2-15.5c-0.4-2.2-0.7-3.3-3.4-3.8c-2.7-0.5-5.1,3.2-5.1,3.2s-6.1,12.2-6.6,14l-0.3,0.8
				l-0.5-0.4c0,0,3.4-16.1-1.7-15.7c-5.1,0.4-7.7,6.5-7.7,6.5s-4.6,10.3-4.7,11.4l-0.5-0.4c0,0,1-11.5,0.2-14.1
				c-0.8-2.7-3.3-1.8-3.3-1.8s-3.4,0-4,2.2c-0.6,2.2-2.1,16.7-1.9,21.2c0,0-7.6,6.9-13,7.6c-5.4,0.7-5.3-2.8-5.3-2.8
				s19.2-9.2,12.1-22c-2.9-3.2-5.8-3.9-9.9-3.3c-4,0.6-8.7,3.6-11,11.2c-1.1,3.6-1.2,7-1.2,9.5l0,0c0,0-3.5,1.1-5.6-0.2
				c-2.1-1.3-2.9,0.4-2.9,0.4s-2.7,4.8,0.7,5.6c3.4,0.9,8.6,1.1,8.6,1.1h0c0.6,1,2.5,5.5,6.8,8c6.5,3.8,17.2-2.6,17.2-2.6l4.3-3.2
				c0,0,0.7,4.2,4.1,4.4c3.5,0.2,4.8-0.6,9-15.6c2.6-7.7,2.9-7.4,2.9-7.4l0.4-0.1c0,0-1,14.3,0.5,18c1.5,3.6,5.9,2.7,5.9,2.7
				s2.7,1.5,3.8-5.6c1.1-7.2,4.2-13.9,4.2-13.9l0.5-0.1c0,0-0.1,13.2,3,17.4c3.1,4.3,9.2-0.2,9.2-0.2s4.3-3.2,4.9-4
				c0,0,6,3.8,13.6,2c16.7-5.4,22.3-10.8,22.3-10.8s3.8,7,13.1,6.6c10.5-0.5,15.4-7.7,15.4-7.7s0.4,4.2,4.3,5.3
				c3.8,1.1,5.5-5.6,5.5-5.6l4.3-15.4l0.6-0.1c0,0,1.4,8.8,7.6,9.8c6.2,1,13.2-6.7,13.2-6.7S-40.2-1118.8-40.9-1121.9z
				 M-210.7-1099.7c-0.9-9.4,4.8-14.2,7.2-12.4c2.4,1.8,2.1,6.3-1.6,9.5C-208.8-1099.4-210.7-1099.7-210.7-1099.7z M-134.9-1145.7
				c0,0,3.9-15.2,6.1-8.3c2.2,6.9-8.4,29.6-8.4,29.6C-137.6-1129.2-134.9-1145.7-134.9-1145.7z M-123.2-1106
				c-2.5,10.1-12,7.3-12,7.3s-1.4-3.3,0.3-13.4c1.8-10,9.1-7.1,9.1-7.1S-120.7-1116.1-123.2-1106z M-98.9-1113.3c0,0-1.2-3,1.3-9.3
				c2.5-6.3,5.4-3.4,5.4-3.4s3.1,2.7,0.5,7.5C-94.2-1113.5-98.9-1113.3-98.9-1113.3z"/>
		</g>
	</g>
</g>
<path fill="#E24C32" d="M-117.5-1157.4c0,0,24.4,7.4,31.9,6.1s36.8-13.4,40.8-12.5c9.2,2,14.8,13.9,16.3,30.9s-1.5,65.1-7.3,71.3
	s-72.8,20.8-92.2,22.5s-72.2-1.5-83.3-1.8c-11.1-0.3-21.5-6.7-24.5-21.2s-7.5-32.3-7.9-43.6c-0.4-11.3-2.3-33.2,4.9-40.4
	s49.2,8.5,49.2,8.5l-2.8-14.5l4.8-0.3l0.9,18.5c0,0-42.8-11.5-47.2-5.5s-4.3,20.9-3.7,33.2c0.7,12.2,4.4,34.7,8.9,48.6
	c4.8,14.8,9.9,13,17.8,13.8c7.9,0.8,46.2,2.9,83.3-0.9c37.1-3.8,80.8-11.4,88-18.7s8.9-54.5,6.5-68.8s-7.8-26.6-12.3-26.9
	c-4.5-0.3-26.5,11.2-39,12.5s-30.8-4.8-30.8-4.8L-117.5-1157.4z"/>
<polygon fill="#E24C32" points="-144.6,-1148.9 -179.1,-1135.7 -178.1,-1138.4 -142.9,-1155.1 "/>
<image overflow="visible" width="164" height="57" xlink:href="C5AEAF2DF5C10D14.png"  transform="matrix(1 0 0 1 -212.8562 -823.5208)">
</image>
<g>
	<path fill="#E24C32" d="M-183.1-932.2c-0.1,0.4-18.2,4.8-18.7,4.8c-0.5,0-5.4-2.7-5.1-3.1c0.2-0.4,19-4.4,19.7-4.4
		C-186.6-934.9-183-932.6-183.1-932.2z"/>
	<path fill="#E24C32" d="M-206.4-928.9c-0.4,0.3-6.1,12.2-5.9,17.1s6.1,30.4,6.4,30.8c0.3,0.4,4.7,2.1,5.2,2c0.4-0.1,3.7-28.6,3-33
		c-0.7-4.4-3.6-13.9-3.9-14.3S-206-929.2-206.4-928.9z"/>
	<polygon fill="#E24C32" points="-168,-918.4 -150,-923.4 -150.1,-920.3 -134.3,-920.7 -154,-916.2 -152.8,-920.9 	"/>
	<polygon fill="#E24C32" points="-167.2,-910.1 -153.5,-906 -155.6,-904.7 -144,-900.2 -160.4,-904.4 -157,-906.1 	"/>
	<polygon fill="#E24C32" points="-168.3,-926.5 -163.5,-934.8 -162.4,-933.3 -156.5,-939.9 -162.5,-930.4 -163.6,-932.5 	"/>
	<g>
		<path fill="#E24C32" d="M-200.3-926.8c-0.1,0.5,3.9,11,4,13.9c0.1,2.9-3.2,33.8-2.9,34.1c0.3,0.4,20.1-1,20.6-1.3
			c0.5-0.3,6.3-33.4,5.5-37.6c-0.7-4.2-8.4-13.4-8.9-13.7S-200.2-927.3-200.3-926.8z"/>
		<g>
			<g>
				<path fill="#FFFFFF" d="M-195-924.4c0.7,2.9,1.4,5.8,2.2,8.6c0.4,1.7,1.1,3.5,1,5.3c-0.4,7-1.2,14.1-1.9,21.1
					c-0.2,2.4-0.4,4.8-0.6,7.2c0,0.1,1,0.3,1,0.3c0.5-5.8,1-11.7,1.5-17.5c0.3-3.3,0.6-6.7,0.9-10c0.1-1.7-0.2-2.8-0.6-4.5
					c-0.8-3.4-1.7-6.8-2.5-10.1C-194.1-924.3-195-924.2-195-924.4L-195-924.4z"/>
			</g>
		</g>
		<g>
			<g>
				<path fill="#FFFFFF" d="M-189-925.9c0.9,2.9,1.9,5.8,2.8,8.8c0.6,1.8,1.1,3,0.9,4.9c-0.8,7.3-1.5,14.6-2.3,21.9
					c-0.3,2.4-0.5,4.9-0.8,7.3c0,0.1,1,0.3,1,0.3c0.6-5.9,1.2-11.9,1.8-17.8c0.4-3.5,0.7-7,1.1-10.5c0.2-1.8,0.2-2.5-0.3-4.2
					c-1.1-3.4-2.2-6.9-3.3-10.3C-188.1-925.8-189-925.7-189-925.9L-189-925.9z"/>
			</g>
		</g>
		<g>
			<g>
				<path fill="#FFFFFF" d="M-184.4-926.6c1.7,2.8,3.3,5.6,5,8.4c0.9,1.4,0.3,2.7,0.1,4.4c-1.1,7.8-2.2,15.7-3.3,23.5
					c-0.3,2.4-0.7,4.7-1,7.1c0,0.1,1,0.3,1,0.3c0.8-5.9,1.6-11.8,2.5-17.8c0.5-3.9,1.1-7.8,1.6-11.7c0.2-1.3,0.9-3.4,0.5-4.8
					c-0.4-1.6-2.1-3.5-2.9-4.9c-0.8-1.4-1.7-2.8-2.5-4.2C-183.6-926.5-184.3-926.4-184.4-926.6L-184.4-926.6z"/>
			</g>
		</g>
		<g>
			<g>
				<path fill="#FFFFFF" d="M-194.6-916.3c5.5-0.4,10.3-2.5,15.5-4.1c1.7-0.5,1.4-1.5-0.3-1c-4.7,1.4-9,3.4-14,3.8
					C-194.2-917.5-196.5-916.2-194.6-916.3L-194.6-916.3z"/>
			</g>
		</g>
		<g>
			<g>
				<path fill="#FFFFFF" d="M-193.3-903.4c5.2-0.2,10.5-0.8,15.6-2c1.3-0.3,0.9-1.6-0.3-1.3c-4.9,1.1-10,1.6-15,1.9
					C-194.2-904.7-194.7-903.3-193.3-903.4L-193.3-903.4z"/>
			</g>
		</g>
		<g>
			<g>
				<path fill="#FFFFFF" d="M-194.9-890.4c5.3,0.2,10.5-0.4,15.7-1.4c1.2-0.2,0.9-1.3-0.3-1.1c-4.8,1-9.7,1.4-14.6,1.3
					C-194.9-891.6-196.2-890.5-194.9-890.4L-194.9-890.4z"/>
			</g>
		</g>
	</g>
</g>
<g>
	<g id="Logo_3_">
		<g>
			<path fill="#E24C32" d="M-40.9-846.9c-0.7-3.1-3.4-1.6-3.4-1.6s-4.2,4.1-8.2,4.2c-4.1,0.1-3.9-9-3.9-9s-0.1-8.3-2.6-8.7
				c-2.5-0.4-5,2.8-5,2.8s-3.1,4.5-4.3,9.8l-0.5,0.2c0,0-0.5-9-1.4-11c-0.6-1-4.9-0.4-5.4,1.5c-0.5,1.9-2.4,14.9-2,20.2
				c0,0-6.1,6.6-11.9,8.2c-5.8,1.7-7.7-1.9-7.7-1.9s15.6-6.4,13.5-19.2c-2.1-12.7-14-6.5-15.3-5.3c-1.2,1.2-8,6.4-8.6,18.8
				c0,0.4,0.1,2.2,0.1,2.2s-5.7,4.9-9.1,6.4c0,0,7.7-17.5-5-23.4c-5.8-2.6-9.2,4.7-9.2,4.7s13.9-19.7,8.5-34.3
				c-2.6-6.9-6.2-7.3-9.4-5.7c-4.8,2.6-6.3,5.7-6.3,5.7s-5.3,10.1-5.2,24.2c0.2,14.1,0,31.2,0,31.2s-2.7,3.4-5.5,3.9
				c-2.8,0.5-2.6-8.2-2.6-8.2s0.6-13.3,0.2-15.5c-0.4-2.2-0.7-3.3-3.4-3.8c-2.7-0.5-5.1,3.2-5.1,3.2s-6.1,12.2-6.6,14l-0.3,0.8
				l-0.5-0.4c0,0,3.4-16.1-1.7-15.7c-5.1,0.4-7.7,6.5-7.7,6.5s-4.6,10.3-4.7,11.4l-0.5-0.4c0,0,1-11.5,0.2-14.1
				c-0.8-2.7-3.3-1.8-3.3-1.8s-3.4,0-4,2.2c-0.6,2.2-2.1,16.7-1.9,21.2c0,0-7.6,6.9-13,7.6c-5.4,0.7-5.3-2.8-5.3-2.8
				s19.2-9.2,12.1-22c-2.9-3.2-5.8-3.9-9.9-3.3c-4,0.6-8.7,3.6-11,11.2c-1.1,3.6-1.2,7-1.2,9.5l0,0c0,0-3.5,1.1-5.6-0.2
				c-2.1-1.3-2.9,0.4-2.9,0.4s-2.7,4.8,0.7,5.6c3.4,0.9,8.6,1.1,8.6,1.1h0c0.6,1,2.5,5.5,6.8,8c6.5,3.8,17.2-2.6,17.2-2.6l4.3-3.2
				c0,0,0.7,4.2,4.1,4.4c3.5,0.2,4.8-0.6,9-15.6c2.6-7.7,2.9-7.4,2.9-7.4l0.4-0.1c0,0-1,14.3,0.5,18c1.5,3.6,5.9,2.7,5.9,2.7
				s2.7,1.5,3.8-5.6c1.1-7.2,4.2-13.9,4.2-13.9l0.5-0.1c0,0-0.1,13.2,3,17.4c3.1,4.3,9.2-0.2,9.2-0.2s4.3-3.2,4.9-4
				c0,0,6,3.8,13.6,2c16.7-5.4,22.3-10.8,22.3-10.8s3.8,7,13.1,6.6c10.5-0.5,15.4-7.7,15.4-7.7s0.4,4.2,4.3,5.3
				c3.8,1.1,5.5-5.6,5.5-5.6l4.3-15.4l0.6-0.1c0,0,1.4,8.8,7.6,9.8c6.2,1,13.2-6.7,13.2-6.7S-40.2-843.8-40.9-846.9z M-210.7-824.7
				c-0.9-9.4,4.8-14.2,7.2-12.4c2.4,1.8,2.1,6.3-1.6,9.5C-208.8-824.4-210.7-824.7-210.7-824.7z M-134.9-870.7c0,0,3.9-15.2,6.1-8.3
				c2.2,6.9-8.4,29.6-8.4,29.6C-137.6-854.2-134.9-870.7-134.9-870.7z M-123.2-831c-2.5,10.1-12,7.3-12,7.3s-1.4-3.3,0.3-13.4
				c1.8-10,9.1-7.1,9.1-7.1S-120.7-841.1-123.2-831z M-98.9-838.3c0,0-1.2-3,1.3-9.3c2.5-6.3,5.4-3.4,5.4-3.4s3.1,2.7,0.5,7.5
				C-94.2-838.5-98.9-838.3-98.9-838.3z"/>
		</g>
	</g>
</g>
<path fill="#E24C32" d="M-117.5-882.4c0,0,24.4,7.4,31.9,6.1s36.8-13.4,40.8-12.5c9.2,2,14.8,13.9,16.3,30.9s-1.5,65.1-7.3,71.3
	c-5.9,6.2-72.8,20.8-92.2,22.5s-72.2-1.5-83.3-1.8s-21.5-6.7-24.5-21.2s-7.5-32.3-7.9-43.6c-0.4-11.3-2.3-33.2,4.9-40.4
	s49.2,8.5,49.2,8.5l-2.8-14.5l4.8-0.3l0.9,18.5c0,0-42.8-11.5-47.2-5.5s-4.3,20.9-3.7,33.2c0.7,12.2,4.4,34.7,8.9,48.6
	c4.8,14.8,9.9,13,17.8,13.8s46.2,2.9,83.3-0.9s80.8-11.4,88-18.7s8.9-54.5,6.5-68.8c-2.4-14.3-7.8-26.6-12.3-26.9
	c-4.5-0.3-26.5,11.2-39,12.5s-30.8-4.8-30.8-4.8L-117.5-882.4z"/>
<polygon fill="#E24C32" points="-387.2,-1106.4 -377.9,-1106.9 -375.5,-1089.7 -384.9,-1088.6 "/>
<polygon fill="#E24C32" points="-401.4,-1103.4 -409.6,-1097.4 -400.6,-1086.4 -392.6,-1092.8 "/>
<polygon fill="#E24C32" points="-368.4,-1108 -358.4,-1111.3 -353.5,-1094.1 -363.7,-1090.8 "/>
<path fill="#E24C32" d="M-171.3-864.4l-8,5c-0.5,0.3-1.1,0.2-1.4-0.3l-0.6-0.9c-0.3-0.5-0.2-1.1,0.3-1.4l8.1-5
	c0.5-0.3,1.1-0.1,1.4,0.3l0.6,0.9C-170.7-865.3-170.8-864.7-171.3-864.4z"/>
<path fill="none" stroke="#FFFFFF" stroke-width="0.5" stroke-miterlimit="10" d="M-161.9-867.5"/>
<path fill="none" stroke="#FFFFFF" stroke-width="0.5" stroke-miterlimit="10" d="M-166.8-874.5"/>
<path fill="#E24C32" d="M-158.3-869.1l-9,5.3c-1.9,1.1-4.4,0.5-5.5-1.4h0c-1.1-1.9-0.5-4.4,1.4-5.5l9-5.3c1.9-1.1,4.4-0.5,5.5,1.4h0
	C-155.8-872.7-156.4-870.2-158.3-869.1z"/>
<path fill="#E24C32" d="M-164.8-873.6c0,0,2.5-2.7,4.2-2.9c1.1-0.2,3.8,0.2,4.7,0c2.2-0.5,13.8-7.2,13.8-7.2l-3,6.5
	c0,0-8.1,1.6-9.5,2.9c-0.7,0.6-2.4,4-3,4.6c-1.1,1.2-5.3,1.4-5.3,1.4L-164.8-873.6z"/>
<image overflow="visible" width="165" height="57" xlink:href="C5AEAF2DF5C10D17.png"  transform="matrix(1 0 0 1 -210.8562 -274.5208)">
</image>
<polygon fill="#E24C32" points="-165.8,-364.2 -148,-369.5 -147.9,-366.5 -132.2,-367.2 -151.8,-362.3 -150.7,-367 "/>
<polygon fill="#E24C32" points="-164.1,-358.9 -152.7,-354 -154.6,-353 -145,-347.9 -158.8,-353.2 -155.7,-354.3 "/>
<polygon fill="#E24C32" points="-166.6,-372 -160.3,-380.4 -159.3,-378.6 -152,-385.1 -159.8,-375.5 -160.7,-378 "/>
<g>
	<g id="Logo_4_">
		<g>
			<path fill="#E24C32" d="M-38.5-298.4c-0.7-3.1-3.4-1.6-3.4-1.6s-4.2,4.1-8.2,4.2c-4.1,0.1-3.9-9-3.9-9s-0.1-8.3-2.6-8.7
				c-2.5-0.4-5,2.8-5,2.8s-3.1,4.5-4.3,9.8l-0.5,0.2c0,0-0.5-9-1.4-11c-0.6-1-4.9-0.4-5.4,1.5c-0.5,1.9-2.4,14.9-2,20.2
				c0,0-6.1,6.6-11.9,8.2c-5.8,1.7-7.7-1.9-7.7-1.9s15.6-6.4,13.5-19.2c-2.1-12.7-14-6.5-15.3-5.3c-1.2,1.2-8,6.4-8.6,18.8
				c0,0.4,0.1,2.2,0.1,2.2s-5.7,4.9-9.1,6.4c0,0,7.7-17.5-5-23.4c-5.8-2.6-9.2,4.7-9.2,4.7s13.9-19.7,8.5-34.3
				c-2.6-6.9-6.2-7.3-9.4-5.7c-4.8,2.6-6.3,5.7-6.3,5.7s-5.3,10.1-5.2,24.2c0.2,14.1,0,31.2,0,31.2s-2.7,3.4-5.5,3.9
				c-2.8,0.5-2.6-8.2-2.6-8.2s0.6-13.3,0.2-15.5c-0.4-2.2-0.7-3.3-3.4-3.8c-2.7-0.5-5.1,3.2-5.1,3.2s-6.1,12.2-6.6,14l-0.3,0.8
				l-0.5-0.4c0,0,3.4-16.1-1.7-15.7c-5.1,0.4-7.7,6.5-7.7,6.5s-4.6,10.3-4.7,11.4l-0.5-0.4c0,0,1-11.5,0.2-14.1
				c-0.8-2.7-3.3-1.8-3.3-1.8s-3.4,0-4,2.2c-0.6,2.2-2.1,16.7-1.9,21.2c0,0-7.6,6.9-13,7.6c-5.4,0.7-5.3-2.8-5.3-2.8
				s19.2-9.2,12.1-22c-2.9-3.2-5.8-3.9-9.9-3.3c-4,0.6-8.7,3.6-11,11.2c-1.1,3.6-1.2,7-1.2,9.5l0,0c0,0-3.5,1.1-5.6-0.2
				c-2.1-1.3-2.9,0.4-2.9,0.4s-2.7,5,0.7,5.9c3.4,0.9,8.6,1.3,8.6,1.3h0c0.6,1,2.5,5.2,6.8,7.7c6.5,3.8,17.2-2.8,17.2-2.8l4.3-3.3
				c0,0,0.7,4.2,4.1,4.4c3.5,0.2,4.8-0.6,9-15.7c2.6-7.7,2.9-7.4,2.9-7.4l0.4-0.1c0,0-1,14.3,0.5,18c1.5,3.6,5.9,2.7,5.9,2.7
				s2.7,1.5,3.8-5.6c1.1-7.2,4.2-13.9,4.2-13.9l0.5-0.1c0,0-0.1,13.2,3,17.4c3.1,4.3,9.2-0.2,9.2-0.2s4.3-3.2,4.9-4
				c0,0,6,3.8,13.6,2c16.7-5.4,22.3-10.8,22.3-10.8s3.8,7,13.1,6.6c10.5-0.5,15.4-7.7,15.4-7.7s0.4,4.2,4.3,5.3
				c3.8,1.1,5.5-5.6,5.5-5.6l4.3-15.4l0.6-0.1c0,0,1.4,8.8,7.6,9.8c6.2,1,13.2-6.7,13.2-6.7S-37.9-295.3-38.5-298.4z M-208.4-276.2
				c-0.9-9.4,4.8-14.2,7.2-12.4c2.4,1.8,2.1,6.3-1.6,9.5C-206.5-275.9-208.4-276.2-208.4-276.2z M-132.5-322.2c0,0,3.9-15.2,6.1-8.3
				c2.2,6.9-8.4,29.6-8.4,29.6C-135.3-305.7-132.5-322.2-132.5-322.2z M-120.9-282.5c-2.5,10.1-12,7.3-12,7.3s-1.4-3.3,0.3-13.4
				c1.8-10,9.1-7.1,9.1-7.1S-118.4-292.6-120.9-282.5z M-96.5-289.8c0,0-1.2-3,1.3-9.3c2.5-6.3,5.4-3.4,5.4-3.4s3.1,2.7,0.5,7.5
				C-91.9-290-96.5-289.8-96.5-289.8z"/>
		</g>
	</g>
</g>
<path fill="#E24C32" d="M-117-336.7c0,0,26.3,9.1,33.8,7.9s36.8-13.4,40.7-12.5c9.2,2,14.8,13.9,16.3,30.9s-1.5,65.1-7.3,71.3
	s-72.8,20.8-92.2,22.5s-72.2-1.5-83.3-1.8c-11.1-0.3-21.5-6.7-24.5-21.2s-7.5-32.3-7.9-43.6c-0.4-11.3-2.3-33.2,4.9-40.4
	s55.2,9.2,55.2,9.2l-3.3-14.1l3.9-1l2.4,18.8c0,0-48.8-12.2-53.2-6.2s-4.3,20.9-3.7,33.2c0.7,12.2,4.4,34.7,8.9,48.6
	c4.8,14.8,9.9,13,17.8,13.8c7.9,0.8,46.2,2.9,83.3-0.9s80.8-11.4,88-18.7s8.9-54.5,6.5-68.7s-7.8-26.6-12.3-26.9
	c-4.5-0.3-26.5,11.2-39,12.5s-32.5-6-32.5-6L-117-336.7z"/>
<path fill="#E24C32" d="M-162.8-317l-7.3,5.9c-0.4,0.3-2.5,0.3-2.5,0.3s0.3-2.1,0.8-2.4l7.3-5.9c0.4-0.3,1-0.3,1.3,0.1l0.6,0.7
	C-162.2-317.9-162.3-317.3-162.8-317z"/>
<path fill="none" stroke="#FFFFFF" stroke-width="0.5" stroke-miterlimit="10" d="M-157.4-318.1"/>
<path fill="none" stroke="#FFFFFF" stroke-width="0.5" stroke-miterlimit="10" d="M-163-324.5"/>
<path fill="#E24C32" d="M-152.5-322l-7.3,5.6c-1.5,1.2-3.8,0.9-5-0.7l0,0c-1.2-1.5-0.9-3.8,0.7-5l7.3-5.6c1.5-1.2,3.8-0.9,5,0.7h0
	C-150.7-325.5-151-323.2-152.5-322z"/>
<path fill="#E24C32" d="M-158.7-325.3c0,0,1.9-2.6,3.4-3c1-0.3,3.3-0.2,4.1-0.5c1.8-0.7,13.2-8.8,13.2-8.8l-3.4,6.9
	c0,0-7.4,2.4-8.4,3.7c-0.5,0.6-1.7,3.7-2.1,4.4c-0.9,1.2-4.5,1.8-4.5,1.8L-158.7-325.3z"/>
<path fill="#E24C32" stroke="#FFFFFF" stroke-miterlimit="10" d="M-171.8-347.8l-6.9-42.8c-1.2-7.5-8.3-12.6-15.8-11.4l-3.5,0.6
	c-7.5,1.2-12.6,8.3-11.4,15.8l6.9,42.8c1.1,6.6,6.8,11.4,13.3,11.6c0.4,1.6,2.1,2.5,6,1.6c3.9-0.9,5.2-1.8,4.8-4
	C-173.7-336.6-170.9-342.1-171.8-347.8z"/>
<path fill="#E24C32" stroke="#FFFFFF" stroke-miterlimit="10" d="M-191.8-331.3c-0.8,2.6-1.3,5.9-6.7,4.5c-7.1-1.9-3.6-6.3-2.7-8.9
	c0.6-1.9-1.2-3.2-4.4-4.5c-2.3-0.9-1.8-1.3-1.4-2.9s6-20.1,6-20.1l-4.2-1c0,0-5.6,19.1-5.9,20.5c-0.3,1.4,0.2,3.4,4.6,4.9
	c3.3,1.1,1.6,1.8,0.3,5.5c-1.2,3.4,0.2,5.9,7.5,7.8c7.4,1.9,9.6-0.8,10.8-4L-191.8-331.3z"/>
<circle fill="#E24C32" stroke="#FFFFFF" stroke-miterlimit="10" cx="-202.6" cy="-363.2" r="7.8"/>
<ellipse transform="matrix(0.9784 -0.2069 0.2069 0.9784 76.6253 -47.3847)" fill="#FFFFFF" cx="-188.3" cy="-390.1" rx="0.7" ry="1.6"/>
<ellipse transform="matrix(0.9828 -0.1845 0.1845 0.9828 68.0195 -40.7902)" fill="#FFFFFF" cx="-185.1" cy="-385.8" rx="0.7" ry="1.6"/>
<ellipse transform="matrix(0.9774 -0.2114 0.2114 0.9774 78.4125 -47.7202)" fill="#FFFFFF" cx="-183.9" cy="-390.5" rx="0.6" ry="1.5"/>
<ellipse transform="matrix(0.9828 -0.1845 0.1845 0.9828 67.1604 -40.9931)" fill="#FFFFFF" cx="-186.7" cy="-381.3" rx="0.7" ry="1.6"/>
<ellipse transform="matrix(0.9828 -0.1845 0.1845 0.9828 66.4373 -40.3651)" fill="#FFFFFF" cx="-183.6" cy="-377.1" rx="0.7" ry="1.6"/>
<ellipse transform="matrix(0.9828 -0.1845 0.1845 0.9828 67.3155 -40.2171)" fill="#FFFFFF" cx="-182.4" cy="-381.8" rx="0.6" ry="1.5"/>
<ellipse transform="matrix(0.9828 -0.1845 0.1845 0.9828 61.4537 -39.1148)" fill="#FFFFFF" cx="-179.4" cy="-349.7" rx="0.7" ry="1.6"/>
<ellipse transform="matrix(0.9828 -0.1845 0.1845 0.9828 60.5238 -39.3635)" fill="#FFFFFF" cx="-181.2" cy="-344.8" rx="0.7" ry="1.6"/>
<ellipse transform="matrix(0.9828 -0.1845 0.1845 0.9828 60.7523 -38.5254)" fill="#FFFFFF" cx="-176.6" cy="-345.7" rx="0.6" ry="1.5"/>
<ellipse transform="matrix(0.9828 -0.1845 0.1845 0.9828 65.4963 -40.5848)" fill="#FFFFFF" cx="-185.3" cy="-372.2" rx="0.7" ry="1.6"/>
<ellipse transform="matrix(0.9828 -0.1845 0.1845 0.9828 64.7652 -39.9363)" fill="#FFFFFF" cx="-182.2" cy="-367.9" rx="0.7" ry="1.6"/>
<ellipse transform="matrix(0.9828 -0.1845 0.1845 0.9828 65.6437 -39.7884)" fill="#FFFFFF" cx="-181" cy="-372.6" rx="0.6" ry="1.5"/>
<ellipse transform="matrix(0.9828 -0.1845 0.1845 0.9828 63.9112 -40.2296)" fill="#FFFFFF" cx="-184.2" cy="-363.5" rx="0.7" ry="1.6"/>
<ellipse transform="matrix(0.9828 -0.1845 0.1845 0.9828 63.1801 -39.5811)" fill="#FFFFFF" cx="-181.1" cy="-359.2" rx="0.7" ry="1.6"/>
<path fill="#FFFFFF" d="M-189.9-385.1c0.2,0.9-0.1,1.6-0.6,1.7c-0.4,0.1-0.9-0.5-1.1-1.2c-0.2-0.9-0.1-1.8,0.4-2
	C-190.6-386.9-190-386.1-189.9-385.1z"/>
<path fill="#FFFFFF" d="M-188.7-376.3c0.1,0.9-0.1,1.6-0.6,1.7c-0.4,0.1-0.9-0.5-1-1.3c-0.2-0.9-0.1-1.8,0.4-2
	C-189.4-378.1-188.8-377.3-188.7-376.3z"/>
<path fill="#FFFFFF" d="M-187.4-367.2c0.1,0.9-0.1,1.6-0.6,1.7c-0.4,0.1-0.9-0.5-1-1.3c-0.2-0.9-0.1-1.8,0.4-2
	C-188.1-368.9-187.5-368.2-187.4-367.2z"/>
<path fill="#FFFFFF" d="M-186.2-358.5c0.1,0.9-0.1,1.6-0.5,1.7c-0.4,0.1-0.8-0.5-1-1.3c-0.2-0.9-0.1-1.8,0.4-2
	C-186.9-360.3-186.3-359.5-186.2-358.5z"/>
<path fill="#FFFFFF" d="M-184.6-348.9c0.1,0.9-0.1,1.6-0.5,1.7c-0.4,0.1-0.8-0.5-1-1.3c-0.2-0.9-0.1-1.8,0.4-2
	C-185.3-350.7-184.7-349.9-184.6-348.9z"/>
<ellipse transform="matrix(0.9828 -0.1845 0.1845 0.9828 64.0589 -39.4333)" fill="#FFFFFF" cx="-179.9" cy="-363.9" rx="0.6" ry="1.5"/>
<ellipse transform="matrix(0.9828 -0.1845 0.1845 0.9828 62.2679 -39.8287)" fill="#FFFFFF" cx="-182.8" cy="-354.5" rx="0.7" ry="1.6"/>
<ellipse transform="matrix(0.9828 -0.1845 0.1845 0.9828 62.4149 -39.0423)" fill="#FFFFFF" cx="-178.6" cy="-354.9" rx="0.6" ry="1.5"/>
<g>
	<path d="M-174.6-497.1l-3.5,20.7l-3.4,0.4l-5.5-12.2l-0.7-2.5l-0.1,0l-0.1,2.6l-2.5,13.2l-3.4,0.4l-8.2-19.3l3.1-0.4l5.9,14.1
		l0.6,2.2l0.1,0l0.1-2.3l2.7-15.1l2.4-0.3l6.2,14.1l0.6,2.2l0.1,0l0-2.3l2.5-15.1L-174.6-497.1z"/>
	<path d="M-152.6-488.2l-16.2,1.9l0.4,0.3c0.9,3.6,3.3,5.6,7.4,5.1c2.2-0.3,4-1.2,5.2-2.8l2.3,1.8c-1.7,2.1-4.2,3.5-7.2,3.8
		c-6.6,0.8-10.2-3.2-10.9-9c-0.7-6.1,2.3-10.9,8.3-11.6c6.3-0.8,9.9,3.3,10.6,9.4C-152.6-488.9-152.6-488.6-152.6-488.2z
		 M-155.5-490.5l-0.4-0.3c-0.9-3.4-3.1-5.6-7.1-5.1c-4,0.5-5.7,3.3-5.8,6.6l-0.3,0.4L-155.5-490.5z"/>
	<path d="M-130.6-490.8l-16.2,1.9l0.4,0.3c0.9,3.6,3.3,5.6,7.4,5.1c2.2-0.3,4-1.2,5.2-2.8l2.3,1.8c-1.7,2.1-4.2,3.5-7.2,3.8
		c-6.6,0.8-10.2-3.2-10.9-9c-0.7-6.1,2.3-10.9,8.3-11.6c6.3-0.8,9.9,3.3,10.6,9.4C-130.6-491.5-130.6-491.2-130.6-490.8z
		 M-133.5-493.1l-0.4-0.3c-0.9-3.4-3.1-5.6-7.1-5.1c-4,0.5-5.7,3.3-5.8,6.6l-0.3,0.4L-133.5-493.1z"/>
	<path d="M-122.4-483l-2.9,0.3l-3.2-26.7l2.9-0.3L-122.4-483z M-108-484.7l-4.1,0.5l-11.2-9.1l8.3-10.8l4.1-0.5l-8.7,10.9l0,0.1
		L-108-484.7z"/>
	<path d="M-88.8-495.7l-16.2,1.9l0.4,0.3c0.9,3.6,3.3,5.6,7.4,5.1c2.2-0.3,4-1.2,5.2-2.8l2.3,1.8c-1.7,2.1-4.2,3.5-7.2,3.8
		c-6.6,0.8-10.2-3.2-10.9-9c-0.7-6.1,2.3-10.9,8.3-11.6c6.3-0.8,9.9,3.3,10.6,9.4C-88.9-496.4-88.9-496.2-88.8-495.7z M-91.8-498.1
		l-0.4-0.3c-0.9-3.4-3.1-5.6-7.1-5.1c-4,0.5-5.7,3.3-5.8,6.6l-0.3,0.4L-91.8-498.1z"/>
	<path d="M-66-489.6l-2.9,0.3l-1.4-12.1c-0.4-3.2-1.6-5.3-6.2-4.7c-3.4,0.4-5.9,2.6-5.5,6.4l1.4,11.9l-2.9,0.3l-2.4-20l2.9-0.3
		l0.3,2.5l0.1,0c1.2-1.9,3.5-3.3,6.1-3.6c5.3-0.6,8.5,1.7,9.1,6.6L-66-489.6z"/>
	<path d="M-43.4-492.3l-2.9,0.3l-0.3-2.3l-0.1,0c-1.2,1.9-3.2,3.1-5.9,3.4c-6.3,0.7-9.8-3.2-10.5-9.1c-0.7-6,1.8-10.8,8-11.6
		c2.6-0.3,5,0.5,6.6,2l0.1,0l-1.1-9.1l2.9-0.3L-43.4-492.3z M-54.6-508.8c-4.6,0.5-6.1,4.2-5.6,8.4c0.5,4.2,2.7,7.2,7.4,6.7
		c4.7-0.6,6.1-4,5.6-8.2C-47.8-506.2-49.9-509.3-54.6-508.8z"/>
</g>
<polygon fill="#E24C32" points="-159.1,-611.3 -141.3,-616.7 -141.3,-613.6 -125.5,-614.4 -145.1,-609.5 -144,-614.1 "/>
<polygon fill="#E24C32" points="-157.4,-606.1 -146,-601.1 -147.9,-600.2 -138.3,-595.1 -152.1,-600.4 -149,-601.5 "/>
<polygon fill="#E24C32" points="-160,-619.1 -153.6,-627.6 -152.7,-625.8 -145.3,-632.3 -153.1,-622.7 -154.1,-625.1 "/>
<g>
	<g id="Logo_6_">
		<g>
			<path fill="#E24C32" d="M-31.9-545.5c-0.7-3.1-3.4-1.6-3.4-1.6s-4.2,4.1-8.2,4.2c-4.1,0.1-3.9-9-3.9-9s-0.1-8.3-2.6-8.7
				c-2.5-0.4-5,2.8-5,2.8s-3.1,4.5-4.3,9.8l-0.5,0.2c0,0-0.5-9-1.4-11c-0.6-1-4.9-0.4-5.4,1.5c-0.5,1.9-2.4,14.9-2,20.2
				c0,0-6.1,6.6-11.9,8.2c-5.8,1.7-7.7-1.9-7.7-1.9s15.6-6.4,13.5-19.2c-2.1-12.7-14-6.5-15.3-5.3c-1.2,1.2-8,6.4-8.6,18.8
				c0,0.4,0.1,2.2,0.1,2.2s-5.7,4.9-9.1,6.4c0,0,7.7-17.5-5-23.4c-5.8-2.6-9.2,4.7-9.2,4.7s13.9-19.7,8.5-34.3
				c-2.6-6.9-6.2-7.3-9.4-5.7c-4.8,2.6-6.3,5.7-6.3,5.7s-5.3,10.1-5.2,24.2c0.2,14.1,0,31.2,0,31.2s-2.7,3.4-5.5,3.9
				c-2.8,0.5-2.6-8.2-2.6-8.2s0.6-13.3,0.2-15.5c-0.4-2.2-0.7-3.3-3.4-3.8c-2.7-0.5-5.1,3.2-5.1,3.2s-6.1,12.2-6.6,14l-0.3,0.8
				l-0.5-0.4c0,0,3.4-16.1-1.7-15.7c-5.1,0.4-7.7,6.5-7.7,6.5s-4.6,10.3-4.7,11.4l-0.5-0.4c0,0,1-11.5,0.2-14.1
				c-0.8-2.7-3.3-1.8-3.3-1.8s-3.4,0-4,2.2c-0.6,2.2-2.1,16.7-1.9,21.2c0,0-7.6,6.9-13,7.6c-5.4,0.7-5.3-2.8-5.3-2.8
				s19.2-9.2,12.1-22c-2.9-3.2-5.8-3.9-9.9-3.3c-4,0.6-8.7,3.6-11,11.2c-1.1,3.6-1.2,7-1.2,9.5l0,0c0,0-3.5,1.1-5.6-0.2
				c-2.1-1.3-2.9,0.4-2.9,0.4s-2.7,4.6,0.7,5.5c3.4,0.9,8.6,0.9,8.6,0.9h0c0.6,1,2.5,5.6,6.8,8.1c6.5,3.8,17.2-2.5,17.2-2.5l4.3-3.2
				c0,0,0.7,4.2,4.1,4.4c3.5,0.2,4.8-0.6,9-15.6c2.6-7.7,2.9-7.4,2.9-7.4l0.4-0.1c0,0-1,14.3,0.5,18c1.5,3.6,5.9,2.7,5.9,2.7
				s2.7,1.5,3.8-5.6c1.1-7.2,4.2-13.9,4.2-13.9l0.5-0.1c0,0-0.1,13.2,3,17.4c3.1,4.3,9.2-0.2,9.2-0.2s4.3-3.2,4.9-4
				c0,0,6,3.8,13.6,2c16.7-5.4,22.3-10.8,22.3-10.8s3.8,7,13.1,6.6c10.5-0.5,15.4-7.7,15.4-7.7s0.4,4.2,4.3,5.3
				c3.8,1.1,5.5-5.6,5.5-5.6l4.3-15.4l0.6-0.1c0,0,1.4,8.8,7.6,9.8c6.2,1,13.2-6.7,13.2-6.7S-31.2-542.4-31.9-545.5z M-201.7-523.4
				c-0.9-9.4,4.8-14.2,7.2-12.4c2.4,1.8,2.1,6.3-1.6,9.5C-199.8-523.1-201.7-523.4-201.7-523.4z M-125.9-569.4c0,0,3.9-15.2,6.1-8.3
				c2.2,6.9-8.4,29.6-8.4,29.6C-128.6-552.8-125.9-569.4-125.9-569.4z M-114.2-529.7c-2.5,10.1-12,7.3-12,7.3s-1.4-3.3,0.3-13.4
				c1.8-10,9.1-7.1,9.1-7.1S-111.7-539.8-114.2-529.7z M-89.9-536.9c0,0-1.2-3,1.3-9.3c2.5-6.3,5.4-3.4,5.4-3.4s3.1,2.7,0.5,7.5
				C-85.2-537.2-89.9-536.9-89.9-536.9z"/>
		</g>
	</g>
</g>
<path fill="#E24C32" d="M-110.4-583.8c0,0,26.3,9.1,33.8,7.9s36.8-13.4,40.8-12.5c9.2,2,14.8,13.9,16.3,30.9s-1.5,65.1-7.3,71.3
	s-72.8,20.8-92.2,22.5s-72.2-1.5-83.3-1.8c-11.1-0.3-21.5-6.7-24.5-21.2s-7.5-32.3-7.9-43.6c-0.4-11.3-2.3-33.2,4.9-40.4
	s55.2,9.2,55.2,9.2l-3.3-14.1l3.9-1l2.4,18.8c0,0-48.8-12.2-53.2-6.2s-4.3,20.9-3.7,33.2c0.7,12.2,4.4,34.7,8.9,48.6
	c4.8,14.8,9.9,13,17.8,13.8s46.2,2.9,83.3-0.9c37.1-3.8,80.8-11.4,88-18.7s8.9-54.5,6.5-68.7c-2.4-14.3-7.8-26.6-12.3-26.9
	s-26.5,11.2-39,12.5s-32.5-6-32.5-6L-110.4-583.8z"/>
<path fill="#E24C32" d="M-144.5-576c-0.7,0.3-2.7,0.3-3.8,0.5c-0.6,0.1-1.3,0.3-1.8,0.7l-7.3,5.6c-1.2,0.9-1.6,2.4-1.3,3.7l-6.2,5
	c-0.4,0.3-0.4,0.9-0.1,1.2l0.6,0.7c0.3,0.4,0.9,0.4,1.2,0.1l6.1-4.9c1.2,0.7,2.8,0.7,3.9-0.2l7.3-5.6c0.7-0.5,1.1-1.2,1.3-1.9
	c0.5-1.2,1.1-2.6,1.5-3c1-1.3,8-3.5,8-3.5l3.5-7.2C-131.6-584.9-142.7-576.7-144.5-576z"/>
<g>
	<path fill="#E24C32" d="M-167.6-617.9c-0.2-0.1-0.5-0.1-0.7-0.1l2.2,13.4c1.9-0.9,3.5-2.7,4-4.9
		C-161.3-613.3-163.8-617-167.6-617.9z"/>
	<path fill="#E24C32" d="M-192.1-574c-2.7-0.6-4.3-1.5-5.1-2.8c-0.8-1.5-0.3-3,0.1-4.3l0.1-0.4c0.5-1.6,0.6-2.9,0.1-3.8
		c-0.2-0.5-0.6-0.8-1.2-1c-2-0.6-2.6-1.7-2.1-3.6c0.2-0.9,1.7-7.1,2.9-12.3c-0.2,0-0.4-0.1-0.6-0.1c-0.7-0.2-1.4-0.4-2-0.7
		c-1.2,5.8-2.6,12.5-2.8,13.3c-0.4,1.9-0.7,4,1.6,4.5c0.8,0.2,1.4,0.6,1.7,1.2c0.5,0.9,0.1,2-0.2,2.9c-0.1,0.3-0.2,0.5-0.2,0.8
		c-0.6,3-0.3,6.6,6.9,8.2c0.9,0.2,1.7,0.3,2.5,0.3h0c4.7,0,6.8-3.3,7.4-4.3l-1.7-1.4C-185.8-574.5-188.5-573.2-192.1-574z"/>
	<path fill="#E24C32" d="M-197.5-603.2c0.5,0.1,1,0.2,1.6,0.2c3.4,0,6.4-2.4,7.1-5.8c0.4-1.9,0.1-3.9-1-5.5
		c-1.1-1.6-2.7-2.8-4.6-3.2c-0.5-0.1-1-0.2-1.6-0.2c-3.4,0-6.4,2.4-7.1,5.8C-204-607.9-201.4-604-197.5-603.2z"/>
	<path fill="#E24C32" d="M-172.5-637.7c-1-6.4-6.6-11.2-13.1-11.2c-0.7,0-1.4,0.1-2.1,0.2l-3.5,0.6c-7.2,1.2-12.1,8-11,15.2
		l2.5,15.2c1.1-0.6,2.4-0.9,3.8-0.9c0.6,0,1.2,0.1,1.8,0.2c2.2,0.5,4,1.8,5.2,3.6c1.2,1.9,1.6,4.1,1.1,6.3c-0.8,3.8-4.2,6.6-8.1,6.6
		c-0.1,0-0.1,0-0.2,0c-0.2,0.9-0.4,1.7-0.6,2.6l1.5,9.2c1,6.3,6.4,11,12.8,11.1l0.4,0l0.1,0.4c0.4,1.5,2.2,1.9,5.4,1.2
		c4.2-1,4.7-1.8,4.4-3.4l-0.1-0.3l0.3-0.2c4.7-2.8,7.2-8.2,6.4-13.5L-172.5-637.7z M-173.5-612.6c0.3-0.1,0.7,0.6,0.8,1.4
		s0,1.5-0.3,1.6c-0.3,0.1-0.7-0.6-0.8-1.4S-173.8-612.5-173.5-612.6z M-174.6-621.3c0.3-0.1,0.7,0.6,0.8,1.4s0,1.5-0.3,1.6
		c-0.3,0.1-0.7-0.6-0.8-1.4C-175-620.5-174.9-621.2-174.6-621.3z M-175.8-616.7c0.4-0.1,0.8,0.6,1,1.4c0.2,0.9,0,1.6-0.4,1.7
		c-0.4,0.1-0.8-0.6-1-1.4S-176.2-616.6-175.8-616.7z M-176.7-622.7c-0.4,0.1-0.8-0.6-1-1.4s0-1.6,0.4-1.7s0.8,0.6,1,1.4
		C-176.1-623.6-176.3-622.8-176.7-622.7z M-176.1-630.5c0.3-0.1,0.7,0.6,0.8,1.4c0.2,0.8,0,1.5-0.3,1.6c-0.3,0.1-0.7-0.6-0.8-1.4
		S-176.4-630.4-176.1-630.5z M-177.6-639.2c0.3-0.1,0.7,0.5,0.9,1.3s0.1,1.5-0.2,1.6c-0.3,0.1-0.7-0.5-0.9-1.3
		S-177.9-639.1-177.6-639.2z M-178.8-634.6c0.4-0.1,0.8,0.6,1,1.4s0,1.6-0.4,1.7c-0.4,0.1-0.8-0.6-1-1.4
		C-179.3-633.7-179.2-634.5-178.8-634.6z M-178.3-617.8c-0.4,0.1-0.8-0.6-1-1.4s0-1.6,0.4-1.7s0.8,0.6,1,1.4
		C-177.8-618.6-177.9-617.8-178.3-617.8z M-180.3-630.1c0.4-0.1,0.8,0.6,1,1.4c0.2,0.9,0,1.6-0.4,1.7c-0.4,0.1-0.8-0.6-1-1.4
		S-180.7-630-180.3-630.1z M-181.9-638.8c0.4-0.1,0.9,0.6,1,1.4c0.2,0.9,0,1.6-0.4,1.7s-0.9-0.6-1-1.4
		C-182.5-638-182.3-638.7-181.9-638.8z M-184.9-631.8c-0.2-0.9-0.1-1.8,0.4-2c0.5-0.2,1.1,0.5,1.3,1.5c0.2,0.9-0.1,1.6-0.6,1.7
		C-184.2-630.5-184.6-631-184.9-631.8z M-182.6-621.8c-0.4,0.1-0.9-0.5-1-1.3c-0.2-0.9-0.1-1.8,0.4-2c0.5-0.2,1.1,0.5,1.2,1.5
		C-181.9-622.6-182.2-621.8-182.6-621.8z M-182.3-613.9c-0.2-0.9-0.1-1.8,0.4-2c0.5-0.2,1.1,0.5,1.2,1.5c0.1,0.9-0.1,1.6-0.6,1.7
		C-181.7-612.6-182.1-613.1-182.3-613.9z M-180-604c-0.4,0.1-0.8-0.5-1-1.3c-0.2-0.9-0.1-1.8,0.4-2c0.5-0.2,1,0.5,1.2,1.6
		C-179.4-604.7-179.6-604-180-604z M-178.5-594.4c-0.4,0.1-0.8-0.5-1-1.3c-0.2-0.9-0.1-1.8,0.4-2c0.5-0.2,1,0.5,1.2,1.6
		C-177.8-595.2-178-594.5-178.5-594.4z M-177.2-609.1c-0.4,0.1-0.8-0.6-1-1.4c-0.2-0.9,0-1.6,0.4-1.7c0.4-0.1,0.8,0.6,1,1.4
		S-176.8-609.1-177.2-609.1z M-175.9-600c-0.4,0.1-0.8-0.6-1-1.4s0-1.6,0.4-1.7c0.4-0.1,0.8,0.6,1,1.4
		C-175.3-600.9-175.5-600.1-175.9-600z M-174.3-590.4c-0.4,0.1-0.8-0.6-1-1.4c-0.2-0.9,0-1.6,0.4-1.7s0.8,0.6,1,1.4
		S-173.9-590.5-174.3-590.4z M-174.1-604.8c-0.4,0.1-0.8-0.6-1-1.4s0-1.6,0.4-1.7s0.8,0.6,1,1.4
		C-173.5-605.7-173.7-604.9-174.1-604.8z M-172.5-595.3c-0.4,0.1-0.8-0.6-1-1.4s0-1.6,0.4-1.7s0.8,0.6,1,1.4
		C-171.9-596.2-172.1-595.4-172.5-595.3z M-171.6-600.6c-0.3,0.1-0.7-0.6-0.8-1.4c-0.2-0.8,0-1.5,0.3-1.6c0.3-0.1,0.7,0.6,0.8,1.4
		S-171.3-600.7-171.6-600.6z M-169.7-591.4c-0.3,0.1-0.7-0.6-0.8-1.4c-0.2-0.8,0-1.5,0.3-1.6c0.3-0.1,0.7,0.6,0.8,1.4
		C-169.3-592.2-169.4-591.5-169.7-591.4z"/>
</g>
<image overflow="visible" width="164" height="57" xlink:href="C5AEAF2DF5C10D15.png"  transform="matrix(1 0 0 1 87.1438 -815.5208)">
</image>
<polygon fill="#E24C32" points="131.9,-903.8 149.7,-909.2 149.7,-906.1 165.5,-906.9 145.9,-902 147,-906.6 "/>
<polygon fill="#E24C32" points="133.6,-898.6 146.6,-892.9 144.5,-891.9 155.4,-886 139.6,-892.1 143.2,-893.4 "/>
<polygon fill="#E24C32" points="130.8,-912.2 136.6,-919.9 137.4,-918.2 144.1,-924.1 137,-915.5 136.2,-917.7 "/>
<g>
	<g id="Logo_5_">
		<g>
			<path fill="#E24C32" d="M259.1-839c-0.7-3.1-3.4-1.6-3.4-1.6s-4.2,4.1-8.2,4.2c-4.1,0.1-3.9-9-3.9-9s-0.1-8.3-2.6-8.7
				c-2.5-0.4-5,2.8-5,2.8s-3.1,4.5-4.3,9.8l-0.5,0.2c0,0-0.5-9-1.4-11c-0.6-1-4.9-0.4-5.4,1.5c-0.5,1.9-2.4,14.9-2,20.2
				c0,0-6.1,6.6-11.9,8.2c-5.8,1.7-7.7-1.9-7.7-1.9s15.6-6.4,13.5-19.2c-2.1-12.7-14-6.5-15.3-5.3c-1.2,1.2-8,6.4-8.6,18.8
				c0,0.4,0.1,2.2,0.1,2.2s-5.7,4.9-9.1,6.4c0,0,7.7-17.5-5-23.4c-5.8-2.6-9.2,4.7-9.2,4.7s13.9-19.7,8.5-34.3
				c-2.6-6.9-6.2-7.3-9.4-5.7c-4.8,2.6-6.3,5.7-6.3,5.7s-5.3,10.1-5.2,24.2c0.2,14.1,0,31.2,0,31.2s-2.7,3.4-5.5,3.9
				c-2.8,0.5-2.6-8.2-2.6-8.2s0.6-13.3,0.2-15.5c-0.4-2.2-0.7-3.3-3.4-3.8c-2.7-0.5-5.1,3.2-5.1,3.2s-6.1,12.2-6.6,14l-0.3,0.8
				l-0.5-0.4c0,0,3.4-16.1-1.7-15.7c-5.1,0.4-7.7,6.5-7.7,6.5s-4.6,10.3-4.7,11.4l-0.5-0.4c0,0,1-11.5,0.2-14.1
				c-0.8-2.7-3.3-1.8-3.3-1.8s-3.4,0-4,2.2c-0.6,2.2-2.1,16.7-1.9,21.2c0,0-7.6,6.9-13,7.6c-5.4,0.7-5.3-2.8-5.3-2.8
				s19.2-9.2,12.1-22c-2.9-3.2-5.8-3.9-9.9-3.3c-4,0.6-8.7,3.6-11,11.2c-1.1,3.6-1.2,7-1.2,9.5l0,0c0,0-3.5,1.1-5.6-0.2
				c-2.1-1.3-2.9,0.4-2.9,0.4s-2.7,4.9,0.7,5.7c3.4,0.9,8.6,1.2,8.6,1.2h0c0.6,1,2.5,5.4,6.8,7.9c6.5,3.8,17.2-2.7,17.2-2.7l4.3-3.3
				c0,0,0.7,4.2,4.1,4.4c3.5,0.2,4.8-0.6,9-15.6c2.6-7.7,2.9-7.4,2.9-7.4l0.4-0.1c0,0-1,14.3,0.5,18c1.5,3.6,5.9,2.7,5.9,2.7
				s2.7,1.5,3.8-5.6c1.1-7.2,4.2-13.9,4.2-13.9l0.5-0.1c0,0-0.1,13.2,3,17.4c3.1,4.3,9.2-0.2,9.2-0.2s4.3-3.2,4.9-4
				c0,0,6,3.8,13.6,2c16.7-5.4,22.3-10.8,22.3-10.8s3.8,7,13.1,6.6c10.5-0.5,15.4-7.7,15.4-7.7s0.4,4.2,4.3,5.3
				c3.8,1.1,5.5-5.6,5.5-5.6l4.3-15.4l0.6-0.1c0,0,1.4,8.8,7.6,9.8c6.2,1,13.2-6.7,13.2-6.7S259.8-835.9,259.1-839z M89.3-816.9
				c-0.9-9.4,4.8-14.2,7.2-12.4c2.4,1.8,2.1,6.3-1.6,9.5C91.2-816.6,89.3-816.9,89.3-816.9z M165.1-862.9c0,0,3.9-15.2,6.1-8.3
				c2.2,6.9-8.4,29.6-8.4,29.6C162.4-846.3,165.1-862.9,165.1-862.9z M176.8-823.2c-2.5,10.1-12,7.3-12,7.3s-1.4-3.3,0.3-13.4
				c1.8-10,9.1-7.1,9.1-7.1S179.3-833.3,176.8-823.2z M201.1-830.4c0,0-1.2-3,1.3-9.3c2.5-6.3,5.4-3.4,5.4-3.4s3.1,2.7,0.5,7.5
				C205.8-830.7,201.1-830.4,201.1-830.4z"/>
		</g>
	</g>
</g>
<path fill="#E24C32" d="M180.9-875.4c0,0,25.9,8.2,33.4,6.9s36.8-13.4,40.8-12.5c9.2,2,14.8,13.9,16.3,30.9s-1.5,65.1-7.3,71.3
	s-72.8,20.8-92.2,22.5s-72.2-1.5-83.3-1.8s-21.5-6.7-24.5-21.2s-7.5-32.3-7.9-43.6s-2.3-33.2,4.9-40.4s55.2,9.2,55.2,9.2l-3.3-14
	l3.9-0.9l2.4,18.7c0,0-48.8-12.2-53.2-6.2s-4.3,20.9-3.7,33.2s4.4,34.7,8.9,48.6c4.8,14.8,9.9,13,17.8,13.8
	c7.9,0.8,46.2,2.9,83.3-0.9c37.1-3.8,80.8-11.4,88-18.7c7.2-7.2,8.9-54.5,6.5-68.8c-2.4-14.3-7.8-26.6-12.3-26.9
	c-4.5-0.3-26.5,11.2-39,12.5s-32.4-5.6-32.4-5.6L180.9-875.4z"/>
<path fill="none" stroke="#FFFFFF" stroke-width="0.5" stroke-miterlimit="10" d="M139.8-857.9"/>
<path fill="#E24C32" d="M146.9-868c-0.7,0.2-2.7,0-3.8,0.1c-0.6,0-1.3,0.2-1.9,0.5l-7.8,4.9c-1.2,0.8-1.8,2.2-1.6,3.6l-6.6,4.4
	c-0.4,0.3-0.5,0.8-0.2,1.2l0.5,0.8c0.3,0.4,0.8,0.5,1.2,0.2l6.5-4.4c1.1,0.8,2.7,0.9,3.9,0.1l7.8-4.9c0.7-0.4,1.2-1.1,1.4-1.8
	c0.6-1.1,1.3-2.5,1.7-2.9c1.2-1.2,6.9-2.2,6.9-2.2l2.6-7.1C157.6-875.4,148.8-868.6,146.9-868z"/>
<g>
	<path fill="#E24C32" d="M127.4-907c-1-1.5-2.4-2.5-4.1-2.9c-0.2,0-0.3-0.1-0.5-0.1l2,12.4c1.8-0.9,3.1-2.5,3.6-4.5
		C128.7-903.8,128.4-905.5,127.4-907z"/>
	<path fill="#E24C32" d="M98.9-866.5c-2.7-0.6-4.3-1.5-5.1-2.8c-0.8-1.5-0.3-3,0.1-4.3l0.1-0.4c0.5-1.6,0.6-2.9,0.1-3.8
		c-0.2-0.5-0.6-0.8-1.2-1c-2-0.6-2.6-1.7-2.1-3.6c0.2-0.9,1.7-7.1,2.9-12.3c-0.2,0-0.4-0.1-0.6-0.1c-0.6-0.1-1.2-0.3-1.7-0.6
		c-1.3,5.7-2.9,12.4-3,13.2c-0.4,1.9-0.7,4,1.6,4.5c0.8,0.2,1.4,0.6,1.7,1.2c0.5,0.9,0.1,2-0.2,2.9c-0.1,0.3-0.2,0.5-0.2,0.8
		c-0.6,3-0.3,6.6,6.9,8.2c0.9,0.2,1.7,0.3,2.5,0.3h0c4.7,0,6.8-3.3,7.4-4.3l-1.7-1.4C105.2-867,102.5-865.7,98.9-866.5z"/>
	<path fill="#E24C32" d="M93.5-895.7c0.5,0.1,1,0.2,1.6,0.2c3.4,0,6.4-2.4,7.1-5.8c0.4-1.9,0.1-3.9-1-5.5c-1.1-1.6-2.7-2.8-4.6-3.2
		c-0.5-0.1-1-0.2-1.6-0.2c-3.4,0-6.4,2.4-7.1,5.8C87-900.4,89.6-896.5,93.5-895.7z"/>
	<path fill="#E24C32" d="M118.5-930.2c-1-6.4-6.6-11.2-13.1-11.2c-0.7,0-1.4,0.1-2.1,0.2l-3.5,0.6c-7.2,1.2-12.1,8-11,15.2l2.5,15.2
		c1.1-0.6,2.4-0.9,3.8-0.9c0.6,0,1.2,0.1,1.8,0.2c2.2,0.5,4,1.8,5.2,3.6c1.2,1.9,1.6,4.1,1.1,6.3c-0.8,3.8-4.2,6.6-8.1,6.6
		c-0.1,0-0.1,0-0.2,0c-0.2,0.9-0.4,1.7-0.6,2.6l1.5,9.2c1,6.3,6.4,11,12.8,11.1l0.4,0l0.1,0.4c0.2,1,1.1,1.6,2.7,1.6
		c0.8,0,1.7-0.1,2.7-0.4c4.2-1,4.7-1.8,4.4-3.4l-0.1-0.3l0.3-0.2c4.7-2.8,7.2-8.2,6.4-13.5L118.5-930.2z M117.5-905.1
		c0.3-0.1,0.7,0.6,0.8,1.4s0,1.5-0.3,1.6c-0.3,0.1-0.7-0.6-0.8-1.4S117.2-905,117.5-905.1z M116.4-913.8c0.3-0.1,0.7,0.6,0.8,1.4
		s0,1.5-0.3,1.6c-0.3,0.1-0.7-0.6-0.8-1.4C116-913,116.1-913.7,116.4-913.8z M115.2-909.2c0.4-0.1,0.8,0.6,1,1.4
		c0.2,0.9,0,1.6-0.4,1.7c-0.4,0.1-0.8-0.6-1-1.4S114.8-909.1,115.2-909.2z M114.3-915.2c-0.4,0.1-0.8-0.6-1-1.4s0-1.6,0.4-1.7
		s0.8,0.6,1,1.4C114.9-916.1,114.7-915.3,114.3-915.2z M114.9-923c0.3-0.1,0.7,0.6,0.8,1.4c0.2,0.8,0,1.5-0.3,1.6
		c-0.3,0.1-0.7-0.6-0.8-1.4S114.6-922.9,114.9-923z M113.4-931.7c0.3-0.1,0.7,0.6,0.8,1.4s0,1.5-0.3,1.6s-0.7-0.6-0.8-1.4
		C113-930.9,113.1-931.6,113.4-931.7z M112.2-927.1c0.4-0.1,0.8,0.6,1,1.4s0,1.6-0.4,1.7c-0.4,0.1-0.8-0.6-1-1.4
		C111.7-926.2,111.8-927,112.2-927.1z M110-928.2c-0.4,0.1-0.8-0.6-1-1.4s0-1.6,0.4-1.7s0.8,0.6,1,1.4
		C110.6-929,110.4-928.3,110-928.2z M111.5-919.5c-0.4,0.1-0.8-0.6-1-1.4c-0.2-0.9,0-1.6,0.4-1.7c0.4-0.1,0.8,0.6,1,1.4
		S111.9-919.5,111.5-919.5z M112-911.7c-0.2-0.9,0-1.6,0.4-1.7s0.8,0.6,1,1.4s0,1.6-0.4,1.7S112.1-910.8,112-911.7z M114.1-901.6
		c-0.4,0.1-0.8-0.6-1-1.4c-0.2-0.9,0-1.6,0.4-1.7c0.4-0.1,0.8,0.6,1,1.4S114.5-901.6,114.1-901.6z M115.4-892.5
		c-0.4,0.1-0.8-0.6-1-1.4s0-1.6,0.4-1.7c0.4-0.1,0.8,0.6,1,1.4C116-893.4,115.8-892.6,115.4-892.5z M116.3-900.5
		c0.4-0.1,0.8,0.6,1,1.4c0.2,0.9,0,1.6-0.4,1.7s-0.8-0.6-1-1.4S115.9-900.4,116.3-900.5z M117.3-883.4c-0.4,0.1-0.8-0.6-1-1.4
		c-0.2-0.9,0-1.6,0.4-1.7c0.4-0.1,0.8,0.6,1,1.4S117.7-883.4,117.3-883.4z M118.6-887.8c-0.4,0.1-0.8-0.6-1-1.4
		c-0.2-0.9,0-1.6,0.4-1.7s0.8,0.6,1,1.4S119-887.9,118.6-887.8z M119.4-893.1c-0.3,0.1-0.7-0.6-0.8-1.4c-0.2-0.8,0-1.5,0.3-1.6
		c0.3-0.1,0.7,0.6,0.8,1.4S119.7-893.2,119.4-893.1z M121.3-883.9c-0.3,0.1-0.7-0.6-0.8-1.4c-0.2-0.8,0-1.5,0.3-1.6
		c0.3-0.1,0.7,0.6,0.8,1.4C121.7-884.7,121.6-884,121.3-883.9z"/>
</g>
<path fill="none" stroke="#FFFFFF" stroke-width="0.5" stroke-miterlimit="10" d="M-165.8-324.6c0,0,0.2,1.5,3.3,5.8
	c3.1,4.2,5.1,5.7,5.1,5.7"/>
<path fill="none" stroke="#FFFFFF" stroke-width="0.5" stroke-miterlimit="10" d="M-159.6-329.4c0,0,0.2,1.5,3.3,5.7
	c3.1,4.2,5.1,5.7,5.1,5.7"/>
<path fill="none" stroke="#FFFFFF" stroke-width="0.5" stroke-miterlimit="10" d="M-158.9-329.9c0,0,0.2,1.4,3.3,5.6s5,5.8,5,5.8"/>
<path fill="none" stroke="#FFFFFF" stroke-width="0.5" stroke-miterlimit="10" d="M-158.2-330.6c0,0,0.2,1.4,3.3,5.6s5,5.8,5,5.8"/>
<path fill="none" stroke="#FFFFFF" stroke-width="0.5" stroke-miterlimit="10" d="M-172.6-320c0,0,0.4,5.2,1.9,7.4
	c1.5,2.1,5.9,2.6,5.9,2.6"/>
<path fill="none" stroke="#FFFFFF" stroke-width="0.5" stroke-miterlimit="10" d="M-156.4-312.9"/>
<path fill="none" stroke="#FFFFFF" stroke-width="0.5" stroke-miterlimit="10" d="M-165.7-326"/>
<image overflow="visible" width="164" height="58" xlink:href="C5AEAF2DF5C10D1B.png"  transform="matrix(1 0 0 1 106.1438 -274.5208)">
</image>
<polygon fill="#E24C32" points="150.7,-363.5 168.5,-368.9 168.6,-365.8 184.3,-366.5 164.7,-361.6 165.8,-366.3 "/>
<polygon fill="#E24C32" points="152.4,-358.2 163.8,-353.3 161.9,-352.4 171.5,-347.2 157.7,-352.6 160.8,-353.7 "/>
<polygon fill="#E24C32" points="149.9,-371.3 156.2,-379.7 157.2,-377.9 164.5,-384.4 156.7,-374.9 155.8,-377.3 "/>
<g>
	<g id="Logo_7_">
		<g>
			<path fill="#E24C32" d="M278-297.7c-0.7-3.1-3.4-1.6-3.4-1.6s-4.2,4.1-8.2,4.2c-4.1,0.1-3.9-9-3.9-9s-0.1-8.3-2.6-8.7
				c-2.5-0.4-5,2.8-5,2.8s-3.1,4.5-4.3,9.8l-0.5,0.2c0,0-0.5-9-1.4-11c-0.6-1-4.9-0.4-5.4,1.5c-0.5,1.9-2.4,14.9-2,20.2
				c0,0-6.1,6.6-11.9,8.2c-5.8,1.7-7.7-1.9-7.7-1.9s15.6-6.4,13.5-19.2c-2.1-12.7-14-6.5-15.3-5.3c-1.2,1.2-8,6.4-8.6,18.8
				c0,0.4,0.1,2.2,0.1,2.2s-5.7,4.9-9.1,6.4c0,0,7.7-17.5-5-23.4c-5.8-2.6-9.2,4.7-9.2,4.7s13.9-19.7,8.5-34.3
				c-2.6-6.9-6.2-7.3-9.4-5.7c-4.8,2.6-6.3,5.7-6.3,5.7s-5.3,10.1-5.2,24.2c0.2,14.1,0,31.2,0,31.2s-2.7,3.4-5.5,3.9
				c-2.8,0.5-2.6-8.2-2.6-8.2s0.6-13.3,0.2-15.5c-0.4-2.2-0.7-3.3-3.4-3.8c-2.7-0.5-5.1,3.2-5.1,3.2s-6.1,12.2-6.6,14l-0.3,0.8
				l-0.5-0.4c0,0,3.4-16.1-1.7-15.7c-5.1,0.4-7.7,6.5-7.7,6.5s-4.6,10.3-4.7,11.4l-0.5-0.4c0,0,1-11.5,0.2-14.1
				c-0.8-2.7-3.3-1.8-3.3-1.8s-3.4,0-4,2.2c-0.6,2.2-2.1,16.7-1.9,21.2c0,0-7.6,6.9-13,7.6c-5.4,0.7-5.3-2.8-5.3-2.8
				s19.2-9.2,12.1-22c-2.9-3.2-5.8-3.9-9.9-3.3c-4,0.6-8.7,3.6-11,11.2c-1.1,3.6-1.2,7-1.2,9.5l0,0c0,0-3.5,1.1-5.6-0.2
				c-2.1-1.3-2.9,0.4-2.9,0.4s-2.7,4.7,0.7,5.5c3.4,0.9,8.6,1,8.6,1h0c0.6,1,2.5,5.6,6.8,8.1c6.5,3.8,17.2-2.6,17.2-2.6l4.3-3.2
				c0,0,0.7,4.2,4.1,4.4c3.5,0.2,4.8-0.6,9-15.6c2.6-7.7,2.9-7.4,2.9-7.4l0.4-0.1c0,0-1,14.3,0.5,18c1.5,3.6,5.9,2.7,5.9,2.7
				s2.7,1.5,3.8-5.6c1.1-7.2,4.2-13.9,4.2-13.9l0.5-0.1c0,0-0.1,13.2,3,17.4c3.1,4.3,9.2-0.2,9.2-0.2s4.3-3.2,4.9-4
				c0,0,6,3.8,13.6,2c16.7-5.4,22.3-10.8,22.3-10.8s3.8,7,13.1,6.6c10.5-0.5,15.4-7.7,15.4-7.7s0.4,4.2,4.3,5.3
				c3.8,1.1,5.5-5.6,5.5-5.6l4.3-15.4l0.6-0.1c0,0,1.4,8.8,7.6,9.8c6.2,1,13.2-6.7,13.2-6.7S278.6-294.6,278-297.7z M108.1-275.6
				c-0.9-9.4,4.8-14.2,7.2-12.4c2.4,1.8,2.1,6.3-1.6,9.5C110-275.2,108.1-275.6,108.1-275.6z M184-321.5c0,0,3.9-15.2,6.1-8.3
				c2.2,6.9-8.4,29.6-8.4,29.6C181.2-305,184-321.5,184-321.5z M195.6-281.8c-2.5,10.1-12,7.3-12,7.3s-1.4-3.3,0.3-13.4
				c1.8-10,9.1-7.1,9.1-7.1S198.1-292,195.6-281.8z M220-289.1c0,0-1.2-3,1.3-9.3c2.5-6.3,5.4-3.4,5.4-3.4s3.1,2.7,0.5,7.5
				C224.6-289.3,220-289.1,220-289.1z"/>
		</g>
	</g>
</g>
<path fill="#E24C32" d="M199.5-336c0,0,26.3,9.1,33.8,7.9s36.8-13.4,40.8-12.5c9.2,2,14.8,13.9,16.3,30.9s-1.5,65.1-7.3,71.3
	c-5.9,6.2-72.8,20.8-92.3,22.5s-72.2-1.5-83.3-1.8c-11.1-0.3-21.5-6.7-24.5-21.2s-7.5-32.3-7.9-43.6c-0.4-11.3-2.3-33.2,4.9-40.4
	s55.2,9.2,55.2,9.2l-3.3-14.1l3.9-1l2.4,18.8c0,0-48.7-12.2-53.2-6.2s-4.3,20.9-3.7,33.2s4.4,34.7,8.9,48.6
	c4.8,14.8,9.9,13,17.8,13.8c7.9,0.8,46.2,2.9,83.3-0.9s80.7-11.4,88-18.7s8.9-54.5,6.5-68.8s-7.8-26.6-12.3-26.9
	c-4.5-0.3-26.5,11.2-39,12.5s-32.5-6-32.5-6L199.5-336z"/>
<path fill="none" stroke="#FFFFFF" stroke-width="0.5" stroke-miterlimit="10" d="M159.1-317.5"/>
<path fill="none" stroke="#FFFFFF" stroke-width="0.5" stroke-miterlimit="10" d="M153.5-323.8"/>
<g>
	<path fill="#E24C32" d="M146.3-366.7c-1-1.5-2.4-2.5-4.1-2.9c-0.2,0-0.3-0.1-0.5-0.1l2,12.4c1.8-0.9,3.1-2.5,3.6-4.5
		C147.5-363.4,147.2-365.2,146.3-366.7z"/>
	<path fill="#E24C32" d="M120.3-325.3c-0.7,0-1.5-0.1-2.4-0.4c-2.3-0.6-3.7-1.5-4.4-2.8c-0.8-1.8,0.1-3.8,0.8-5.4
		c0.2-0.5,0.4-0.9,0.6-1.3c0.3-1,0.1-2.2-4.1-3.9c-2.2-0.8-2.2-1.5-1.8-2.8c0.1-0.2,0.1-0.4,0.2-0.6c0.2-0.9,1.9-6.6,3.5-11.7
		c-0.1,0-0.3,0-0.4-0.1c-1-0.2-1.8-0.6-2.6-1.1c-1.6,5.4-3.4,11.7-3.6,12.5c-0.4,1.8,1,3.2,4.2,4.3c1.3,0.4,1.9,0.8,2.1,1.4
		c0.3,0.7-0.1,1.5-0.6,2.5c-0.3,0.6-0.6,1.3-1,2.3c-0.5,1.3-0.5,2.4,0,3.3c0.8,1.6,3.2,2.8,7.1,3.9c1.6,0.4,3,0.6,4.2,0.6
		c3.6,0,5-1.8,5.8-3.9l-2.8-1.3C124.4-327.8,123.7-325.3,120.3-325.3z"/>
	<path fill="#E24C32" d="M112.3-355.4c0.5,0.1,1,0.2,1.6,0.2c3.4,0,6.4-2.4,7.1-5.8c0.4-1.9,0.1-3.9-1-5.5c-1.1-1.6-2.7-2.8-4.6-3.2
		c-0.5-0.1-1-0.2-1.6-0.2c-3.4,0-6.4,2.4-7.1,5.8C105.9-360.1,108.4-356.2,112.3-355.4z"/>
	<path fill="#E24C32" d="M137.3-389.9c-1-6.4-6.6-11.2-13.1-11.2c-0.7,0-1.4,0.1-2.1,0.2l-3.5,0.6c-7.2,1.2-12.1,8-11,15.2l2.5,15.2
		c1.1-0.6,2.4-0.9,3.8-0.9c0.6,0,1.2,0.1,1.8,0.2c2.2,0.5,4,1.8,5.2,3.6c1.2,1.9,1.6,4.1,1.1,6.3c-0.8,3.8-4.2,6.6-8.1,6.6
		c-0.1,0-0.2,0-0.3,0c-0.2,0.7-0.4,1.3-0.6,2l1.6,9.8c1,6.3,6.4,11,12.8,11.1l0.4,0l0.1,0.4c0.2,1,1.1,1.6,2.7,1.6
		c0.8,0,1.7-0.1,2.7-0.4c4.2-1,4.7-1.8,4.4-3.4l-0.1-0.3l0.3-0.2c4.7-2.8,7.2-8.2,6.4-13.5L137.3-389.9z M136.4-364.7
		c0.3-0.1,0.7,0.6,0.8,1.4s0,1.5-0.3,1.6c-0.3,0.1-0.7-0.6-0.8-1.4S136.1-364.7,136.4-364.7z M135.2-373.4c0.3-0.1,0.7,0.6,0.8,1.4
		s0,1.5-0.3,1.6c-0.3,0.1-0.7-0.6-0.8-1.4C134.8-372.7,134.9-373.4,135.2-373.4z M134-368.8c0.4-0.1,0.8,0.6,1,1.4
		c0.2,0.9,0,1.6-0.4,1.7c-0.4,0.1-0.8-0.6-1-1.4S133.6-368.8,134-368.8z M133.2-374.9c-0.4,0.1-0.8-0.6-1-1.4s0-1.6,0.4-1.7
		s0.8,0.6,1,1.4C133.7-375.7,133.5-375,133.2-374.9z M133.8-382.6c0.3-0.1,0.7,0.6,0.8,1.4c0.2,0.8,0,1.5-0.3,1.6
		c-0.3,0.1-0.7-0.6-0.8-1.4S133.5-382.6,133.8-382.6z M132.2-391.3c0.3-0.1,0.7,0.5,0.9,1.3s0.1,1.5-0.2,1.6
		c-0.3,0.1-0.7-0.5-0.9-1.3S131.9-391.3,132.2-391.3z M131.1-386.7c0.4-0.1,0.8,0.6,1,1.4s0,1.6-0.4,1.7c-0.4,0.1-0.8-0.6-1-1.4
		C130.5-385.9,130.7-386.7,131.1-386.7z M131.5-369.9c-0.4,0.1-0.8-0.6-1-1.4s0-1.6,0.4-1.7s0.8,0.6,1,1.4
		C132.1-370.8,131.9-370,131.5-369.9z M129.5-382.2c0.4-0.1,0.8,0.6,1,1.4c0.2,0.9,0,1.6-0.4,1.7c-0.4,0.1-0.8-0.6-1-1.4
		S129.2-382.1,129.5-382.2z M127.9-391c0.4-0.1,0.9,0.6,1,1.4c0.2,0.9,0,1.6-0.4,1.7s-0.9-0.6-1-1.4
		C127.3-390.1,127.5-390.9,127.9-391z M125-384c-0.2-0.9-0.1-1.8,0.4-2c0.5-0.2,1.1,0.5,1.3,1.5c0.2,0.9-0.1,1.6-0.6,1.7
		C125.7-382.7,125.2-383.2,125-384z M127.2-374c-0.4,0.1-0.9-0.5-1-1.3c-0.2-0.9-0.1-1.8,0.4-2c0.5-0.2,1.1,0.5,1.2,1.5
		C127.9-374.7,127.7-374,127.2-374z M127.5-366.1c-0.2-0.9-0.1-1.8,0.4-2c0.5-0.2,1.1,0.5,1.2,1.5c0.1,0.9-0.1,1.6-0.6,1.7
		C128.2-364.8,127.7-365.3,127.5-366.1z M129.8-356.1c-0.4,0.1-0.8-0.5-1-1.3c-0.2-0.9-0.1-1.8,0.4-2c0.5-0.2,1,0.5,1.2,1.6
		C130.5-356.9,130.2-356.2,129.8-356.1z M131.4-346.6c-0.4,0.1-0.8-0.5-1-1.3c-0.2-0.9-0.1-1.8,0.4-2c0.5-0.2,1,0.5,1.2,1.6
		C132-347.3,131.8-346.6,131.4-346.6z M132.6-361.2c-0.4,0.1-0.8-0.6-1-1.4c-0.2-0.9,0-1.6,0.4-1.7c0.4-0.1,0.8,0.6,1,1.4
		S133-361.3,132.6-361.2z M133.9-352.2c-0.4,0.1-0.8-0.6-1-1.4s0-1.6,0.4-1.7c0.4-0.1,0.8,0.6,1,1.4
		C134.5-353.1,134.3-352.3,133.9-352.2z M135.6-342.6c-0.4,0.1-0.8-0.6-1-1.4c-0.2-0.9,0-1.6,0.4-1.7s0.8,0.6,1,1.4
		S136-342.7,135.6-342.6z M135.7-357c-0.4,0.1-0.8-0.6-1-1.4s0-1.6,0.4-1.7s0.8,0.6,1,1.4C136.3-357.8,136.1-357.1,135.7-357z
		 M137.4-347.5c-0.4,0.1-0.8-0.6-1-1.4s0-1.6,0.4-1.7s0.8,0.6,1,1.4C138-348.3,137.8-347.6,137.4-347.5z M138.2-352.8
		c-0.3,0.1-0.7-0.6-0.8-1.4c-0.2-0.8,0-1.5,0.3-1.6c0.3-0.1,0.7,0.6,0.8,1.4S138.5-352.8,138.2-352.8z M140.1-343.6
		c-0.3,0.1-0.7-0.6-0.8-1.4c-0.2-0.8,0-1.5,0.3-1.6c0.3-0.1,0.7,0.6,0.8,1.4C140.6-344.3,140.4-343.6,140.1-343.6z"/>
</g>
<g>
	<path fill="#E24C32" d="M159.5-326.9l-0.3,0.3c0.5,0.8,1.1,1.7,1.9,2.8c0.8,1.1,1.6,2.1,2.2,2.9l0.4-0.3c-0.7-0.8-1.5-1.8-2.3-3
		C160.6-325.3,160-326.2,159.5-326.9z"/>
	<path fill="#E24C32" d="M158.8-326.3l-0.4,0.3c0.5,0.8,1.1,1.7,1.9,2.8c0.8,1.1,1.6,2.1,2.3,2.9l0.3-0.2c-0.7-0.8-1.4-1.7-2.2-2.9
		C159.9-324.6,159.3-325.6,158.8-326.3z"/>
	<path fill="#E24C32" d="M151.8-320.9c-0.7,0.9-1,2.1-0.7,3.2l-5.6,4.5c0.2,0.4,0.4,0.8,0.6,1.1c0.3,0.4,0.7,0.7,1.1,1l5.6-4.5
		c0.9,0.5,2.1,0.6,3.1,0.2c-0.6-0.7-1.3-1.6-2.1-2.6C152.9-319.1,152.3-320.1,151.8-320.9z"/>
	<path fill="#E24C32" d="M158.1-325.8l-5.7,4.3c-0.1,0.1-0.1,0.1-0.2,0.2c0.5,0.8,1.1,1.8,2,3c0.8,1.1,1.5,2,2.1,2.7
		c0.1-0.1,0.2-0.1,0.3-0.2l5.6-4.3c-0.7-0.8-1.4-1.7-2.3-2.9C159.1-324.1,158.5-325,158.1-325.8z"/>
	<path fill="#E24C32" d="M165.3-328.2c-0.7,0.3-2.7,0.3-3.8,0.5c-0.5,0-1.1,0.2-1.6,0.5c0.5,0.7,1,1.6,1.8,2.7
		c0.9,1.2,1.7,2.2,2.3,3c0.6-0.5,0.9-1.1,1.1-1.8c0.5-1.2,1.1-2.6,1.5-3c1-1.3,8.4-3.7,8.4-3.7l3.4-6.9
		C178.5-337,167.1-328.9,165.3-328.2z"/>
	<path fill="#E24C32" d="M145.6-311.8c-0.2-0.3-0.4-0.7-0.6-1.1l-0.3,0.3c-0.4,0.3-0.8,2.4-0.8,2.4s2,0.1,2.5-0.3l0.3-0.3
		C146.3-311,145.9-311.4,145.6-311.8z"/>
</g>
<path fill="none" stroke="#FFFFFF" stroke-width="0.5" stroke-miterlimit="10" d="M160.1-312.3"/>
<path fill="none" stroke="#FFFFFF" stroke-width="0.5" stroke-miterlimit="10" d="M150.8-325.4"/>
<text transform="matrix(0.993 -0.1177 0.1177 0.9931 60.3187 294.109)" font-family="'SinkinSans-400Regular'" font-size="53.538">weekend</text>
<polygon fill="#E24C32" points="128.9,63.9 158.7,54.9 158.7,60 185.1,58.8 152.3,67 154.2,59.2 "/>
<polygon fill="#E24C32" points="131.7,72.7 150.8,81 147.7,82.5 163.7,91.1 140.6,82.2 145.7,80.3 "/>
<polygon fill="#E24C32" points="127.5,50.8 138.1,36.7 139.7,39.7 152,28.8 139,44.9 137.3,40.8 "/>
<g>
	<g id="Logo_8_">
		<g>
			<path fill="#E24C32" d="M341.4,173.9c-1.2-5.2-5.7-2.7-5.7-2.7s-7,6.8-13.8,7c-6.8,0.2-6.5-15.1-6.5-15.1s-0.2-13.9-4.3-14.6
				c-4.1-0.7-8.4,4.7-8.4,4.7s-5.3,7.4-7.1,16.3l-0.8,0.4c0,0-0.9-15.1-2.4-18.4c-1-1.6-8.3-0.6-9.1,2.6c-0.8,3.2-4.1,24.9-3.4,33.8
				c0,0-10.2,11-19.9,13.8c-9.7,2.8-12.9-3.1-12.9-3.1s26.1-10.8,22.5-32.1c-3.5-21.3-23.4-10.9-25.5-8.8
				c-2.1,2-13.4,10.8-14.5,31.4c0,0.7,0.1,3.7,0.1,3.7s-9.6,8.2-15.2,10.8c0,0,13-29.2-8.4-39.2c-9.6-4.3-15.4,7.9-15.4,7.9
				s23.2-33,14.2-57.4c-4.3-11.6-10.5-12.2-15.7-9.6c-8,4.3-10.6,9.6-10.6,9.6s-8.9,17-8.6,40.6c0.3,23.6,0,52.2,0,52.2
				s-4.6,5.6-9.3,6.5c-4.7,0.8-4.4-13.8-4.4-13.8s1.1-22.3,0.3-25.9c-0.7-3.7-1.2-5.6-5.7-6.4c-4.5-0.8-8.6,5.3-8.6,5.3
				s-10.3,20.5-11,23.5l-0.5,1.3l-0.8-0.7c0,0,5.7-26.9-2.8-26.2c-8.5,0.6-12.9,10.9-12.9,10.9s-7.7,17.2-7.9,19.1l-0.8-0.7
				c0,0,1.7-19.2,0.4-23.7c-1.3-4.5-5.6-3.1-5.6-3.1s-5.6,0-6.7,3.7c-1,3.7-3.5,27.9-3.2,35.5c0,0-12.7,11.5-21.8,12.8
				c-9.1,1.2-8.9-4.8-8.9-4.8s32.1-15.4,20.2-36.8c-4.8-5.3-9.8-6.5-16.5-5.6c-6.7,0.9-14.5,6-18.4,18.8c-1.9,6.1-2.1,11.7-2.1,15.9
				l0,0c0,0-5.8,1.9-9.3-0.3c-3.5-2.2-4.9,0.6-4.9,0.6s-4.5,8.4,1.2,9.8c5.7,1.5,14.3,2.2,14.3,2.2h0c1,1,4.1,8.8,11.3,13
				c10.8,6.3,28.8-4.6,28.8-4.6l7.2-5.5c0,0,1.1,7,6.9,7.3c5.8,0.3,8.1-1,15.1-26.2c4.3-12.9,4.8-12.4,4.8-12.4l0.6-0.2
				c0,0-1.7,24,0.8,30.1c2.5,6.1,9.9,4.5,9.9,4.5s4.5,2.6,6.4-9.4c1.9-12,7-23.2,7-23.2l0.8-0.1c0,0-0.2,22,5,29.1
				c5.2,7.1,15.4-0.4,15.4-0.4s7.1-5.3,8.2-6.7c0,0,10,6.3,22.7,3.4c28-9.1,37.3-18.1,37.3-18.1s6.4,11.8,21.8,11.1
				c17.6-0.8,25.8-12.9,25.8-12.9s0.7,7.1,7.1,8.9c6.4,1.8,9.2-9.4,9.2-9.4L304,178l0.9-0.1c0,0,2.3,14.7,12.7,16.4
				c10.4,1.7,22.1-11.3,22.1-11.3S342.5,179.1,341.4,173.9z M57.3,211c-1.5-15.7,8-23.8,12-20.8c4,3,3.6,10.5-2.6,15.9
				C60.4,211.6,57.3,211,57.3,211z M184.1,134.1c0,0,6.4-25.5,10.1-13.9c3.7,11.6-14,49.5-14,49.5
				C179.6,161.8,184.1,134.1,184.1,134.1z M203.6,200.5c-4.3,16.9-20.1,12.2-20.1,12.2s-2.4-5.6,0.5-22.4
				c2.9-16.8,15.2-11.9,15.2-11.9S207.8,183.6,203.6,200.5z M244.4,188.3c0,0-2.1-5,2.2-15.5c4.2-10.5,9.1-5.6,9.1-5.6
				s5.2,4.4,0.9,12.6C252.1,187.9,244.4,188.3,244.4,188.3z"/>
		</g>
	</g>
</g>
<path fill="#E24C32" d="M210.4,109.9c0,0,44,15.3,56.5,13.2c12.5-2.1,61.5-22.4,68.2-20.9c15.5,3.3,24.8,23.3,27.3,51.7
	s-2.4,109-12.3,119.3c-9.8,10.4-121.7,34.7-154.3,37.6c-32.6,2.9-120.8-2.6-139.3-3s-35.9-11.2-40.9-35.4S3,218.4,2.3,199.5
	s-3.9-55.5,8.2-67.7c12.1-12.1,92.4,15.3,92.4,15.3l-5.5-23.6l6.6-1.6l4,31.5c0,0-81.6-20.4-89.1-10.3s-7.2,35-6.1,55.5
	s7.4,58,14.9,81.3c7.9,24.7,16.6,21.7,29.8,23s77.3,4.8,139.3-1.6c62-6.4,135.1-19.1,147.2-31.2c12.1-12.1,14.8-91.1,10.9-115
	c-3.9-23.9-13.1-44.5-20.6-45c-7.6-0.5-44.3,18.8-65.2,20.9c-20.9,2.1-54.3-10.1-54.3-10.1L210.4,109.9z"/>
<path fill="none" stroke="#FFFFFF" stroke-width="0.5" stroke-miterlimit="10" d="M142.9,140.9"/>
<path fill="none" stroke="#FFFFFF" stroke-width="0.5" stroke-miterlimit="10" d="M133.5,130.2"/>
<g>
	<path fill="#E24C32" d="M121.4,58.6c-1.6-2.5-4-4.2-6.9-4.8c-0.3-0.1-0.6-0.1-0.9-0.1l3.3,20.7c2.9-1.4,5.2-4.2,6-7.5
		C123.6,64,123,61,121.4,58.6z"/>
	<path fill="#E24C32" d="M78,127.8c-1.2,0-2.5-0.2-4-0.6c-3.9-1-6.3-2.6-7.3-4.7c-1.4-3,0.1-6.3,1.3-9c0.4-0.8,0.7-1.6,0.9-2.2
		c0.6-1.6,0.2-3.7-6.9-6.5c-3.6-1.4-3.7-2.4-3.1-4.8c0.1-0.3,0.2-0.7,0.3-1.1c0.4-1.5,3.2-11.1,5.8-19.6c-0.2,0-0.5-0.1-0.7-0.1
		c-1.6-0.3-3.1-1-4.4-1.8c-2.6,9-5.7,19.6-6,20.9c-0.7,3,1.7,5.4,7.1,7.2c2.1,0.7,3.2,1.4,3.6,2.4c0.5,1.2-0.1,2.5-0.9,4.2
		c-0.5,1-1.1,2.2-1.6,3.8c-0.8,2.2-0.8,4,0,5.5c1.4,2.6,5.3,4.7,11.9,6.5c2.7,0.7,5.1,1.1,7.1,1.1c6,0,8.3-3.1,9.7-6.5l-4.7-2.2
		C84.9,123.5,83.6,127.8,78,127.8z"/>
	<path fill="#E24C32" d="M64.7,77.5c0.9,0.2,1.7,0.3,2.6,0.3c5.7,0,10.7-4.1,12-9.7c0.7-3.2,0.1-6.5-1.7-9.2
		c-1.8-2.7-4.5-4.6-7.7-5.3c-0.9-0.2-1.7-0.3-2.6-0.3c-5.7,0-10.7,4.1-12,9.7C53.9,69.5,58.1,76.1,64.7,77.5z"/>
	<path fill="#E24C32" d="M106.5,19.7C104.8,9.1,95.4,1,84.6,1c-1.2,0-2.3,0.1-3.5,0.3l-5.9,0.9C63.2,4.2,54.9,15.6,56.8,27.7
		l4.1,25.5c1.9-1,4.1-1.5,6.3-1.5c1,0,2,0.1,3,0.3c3.6,0.8,6.7,2.9,8.8,6.1c2,3.1,2.7,6.8,1.9,10.5c-1.4,6.4-7.1,11-13.6,11
		c-0.2,0-0.4,0-0.5,0c-0.3,1.1-0.7,2.2-1,3.4l2.7,16.5c1.7,10.6,10.7,18.4,21.4,18.6l0.6,0l0.2,0.6c0.4,1.7,1.9,2.6,4.5,2.6
		c1.3,0,2.8-0.2,4.5-0.6c7-1.7,7.9-3.1,7.4-5.8l-0.1-0.6l0.5-0.3c7.8-4.6,12.1-13.7,10.6-22.6L106.5,19.7z M104.8,61.8
		c0.5-0.1,1.1,0.9,1.4,2.3c0.3,1.4,0.1,2.5-0.5,2.6c-0.5,0.1-1.1-0.9-1.4-2.3C104.1,63.1,104.3,61.9,104.8,61.8z M103,47.3
		c0.5-0.1,1.1,0.9,1.4,2.3c0.3,1.4,0.1,2.5-0.5,2.6c-0.5,0.1-1.1-0.9-1.4-2.3C102.3,48.5,102.5,47.3,103,47.3z M101,55
		c0.7-0.1,1.4,1,1.7,2.4c0.3,1.5,0,2.7-0.7,2.9c-0.7,0.1-1.4-1-1.7-2.4C100,56.4,100.3,55.1,101,55z M99.5,44.8
		c-0.7,0.1-1.4-1-1.7-2.4c-0.3-1.5,0-2.7,0.7-2.9s1.4,1,1.7,2.4C100.5,43.4,100.1,44.7,99.5,44.8z M100.5,31.9
		c0.5-0.1,1.1,0.9,1.4,2.3c0.3,1.4,0.1,2.5-0.5,2.6c-0.5,0.1-1.1-0.9-1.4-2.3C99.8,33.1,100,32,100.5,31.9z M98,17.3
		c0.5-0.1,1.2,0.9,1.4,2.3s0.1,2.5-0.4,2.7c-0.5,0.1-1.2-0.9-1.4-2.3C97.3,18.6,97.4,17.4,98,17.3z M96,25c0.7-0.1,1.4,1,1.7,2.4
		s0,2.7-0.7,2.9c-0.7,0.1-1.4-1-1.7-2.4C95,26.4,95.3,25.1,96,25z M96.7,53.1c-0.7,0.1-1.4-1-1.7-2.4c-0.3-1.5,0-2.7,0.7-2.9
		c0.7-0.1,1.4,1,1.7,2.4C97.7,51.7,97.4,53,96.7,53.1z M93.5,32.6c0.7-0.1,1.4,1,1.7,2.4c0.3,1.5,0,2.7-0.7,2.9
		c-0.7,0.1-1.4-1-1.7-2.4C92.5,34,92.8,32.7,93.5,32.6z M90.7,17.9c0.7-0.1,1.4,0.9,1.7,2.4c0.3,1.4,0,2.7-0.6,2.9
		c-0.7,0.1-1.4-0.9-1.7-2.4C89.8,19.3,90.1,18,90.7,17.9z M85.8,29.6c-0.4-1.4-0.2-3,0.6-3.3c0.9-0.4,1.9,0.8,2.1,2.5
		c0.3,1.5-0.2,2.7-0.9,2.9C87,31.8,86.2,30.9,85.8,29.6z M89.6,46.4c-0.7,0.1-1.4-0.8-1.8-2.1c-0.4-1.4-0.1-3,0.6-3.3
		c0.8-0.4,1.8,0.9,2,2.6C90.8,45.1,90.3,46.3,89.6,46.4z M90,59.6c-0.4-1.4-0.1-3,0.6-3.3c0.8-0.4,1.8,0.9,2,2.6
		c0.2,1.5-0.2,2.7-0.9,2.8C91.1,61.8,90.4,60.9,90,59.6z M93.9,76.2c-0.6,0.1-1.4-0.8-1.7-2.1c-0.3-1.4-0.1-3,0.6-3.3
		c0.8-0.4,1.7,0.9,2,2.6C95,74.9,94.5,76.1,93.9,76.2z M96.5,92.2c-0.6,0.1-1.4-0.8-1.7-2.1c-0.3-1.4-0.1-3,0.6-3.3
		c0.8-0.4,1.7,0.9,2,2.6C97.6,90.9,97.2,92.1,96.5,92.2z M98.6,67.7c-0.7,0.1-1.4-1-1.7-2.4c-0.3-1.5,0-2.7,0.7-2.9
		c0.7-0.1,1.4,1,1.7,2.4S99.2,67.5,98.6,67.7z M100.8,82.8c-0.7,0.1-1.4-1-1.7-2.4s0-2.7,0.7-2.9c0.7-0.1,1.4,1,1.7,2.4
		C101.8,81.4,101.5,82.6,100.8,82.8z M103.5,98.8c-0.7,0.1-1.4-1-1.7-2.4c-0.3-1.5,0-2.7,0.7-2.9c0.7-0.1,1.4,1,1.7,2.4
		C104.5,97.4,104.2,98.7,103.5,98.8z M103.8,74.8c-0.7,0.1-1.4-1-1.7-2.4c-0.3-1.5,0-2.7,0.7-2.9s1.4,1,1.7,2.4
		C104.8,73.4,104.5,74.6,103.8,74.8z M106.6,90.7c-0.7,0.1-1.4-1-1.7-2.4s0-2.7,0.7-2.9c0.7-0.1,1.4,1,1.7,2.4
		C107.5,89.3,107.2,90.6,106.6,90.7z M107.9,81.8c-0.5,0.1-1.1-0.9-1.4-2.3c-0.3-1.4-0.1-2.5,0.5-2.6c0.5-0.1,1.1,0.9,1.4,2.3
		C108.6,80.6,108.4,81.7,107.9,81.8z M111.2,97.2c-0.5,0.1-1.1-0.9-1.4-2.3c-0.3-1.4-0.1-2.5,0.5-2.6c0.5-0.1,1.1,0.9,1.4,2.3
		C111.9,95.9,111.7,97.1,111.2,97.2z"/>
</g>
<g>
	<path fill="#E24C32" d="M143.6,125.1l-0.6,0.4c0.8,1.3,1.8,2.8,3.2,4.8c1.4,1.9,2.6,3.5,3.7,4.8l0.6-0.5c-1.1-1.4-2.5-3-3.9-5
		C145.4,127.8,144.4,126.3,143.6,125.1z"/>
	<path fill="#E24C32" d="M142.4,126.1l-0.6,0.4c0.8,1.3,1.8,2.8,3.2,4.8c1.4,1.9,2.7,3.5,3.8,4.8l0.5-0.4c-1.1-1.3-2.3-2.9-3.7-4.8
		C144.2,128.9,143.2,127.3,142.4,126.1z"/>
	<path fill="#E24C32" d="M130.7,135.2c-1.2,1.5-1.7,3.5-1.2,5.3l-9.5,7.6c0.3,0.7,0.6,1.3,1,1.9c0.5,0.7,1.1,1.2,1.9,1.7l9.4-7.5
		c1.6,0.9,3.5,1,5.2,0.3c-1-1.2-2.2-2.7-3.5-4.4C132.5,138.1,131.5,136.5,130.7,135.2z"/>
	<path fill="#E24C32" d="M141.1,127l-9.5,7.3c-0.1,0.1-0.2,0.2-0.3,0.3c0.8,1.3,1.8,3,3.3,5c1.3,1.8,2.5,3.3,3.6,4.5
		c0.2-0.1,0.4-0.2,0.6-0.4l9.4-7.1c-1.1-1.3-2.4-2.9-3.8-4.8C143,129.9,141.9,128.3,141.1,127z"/>
	<path fill="#E24C32" d="M153.3,123c-1.1,0.4-4.5,0.4-6.3,0.8c-0.9,0.1-1.8,0.4-2.6,0.9c0.8,1.2,1.7,2.7,3.1,4.5
		c1.5,2,2.8,3.7,3.9,5c1-0.8,1.6-1.9,1.9-3c0.9-1.9,1.9-4.4,2.4-5.1c1.7-2.2,14.1-6.2,14.1-6.2l5.7-11.5
		C175.4,108.2,156.4,121.8,153.3,123z"/>
	<path fill="#E24C32" d="M120.3,150.4c-0.4-0.5-0.7-1.1-1-1.8l-0.6,0.5c-0.7,0.6-1.3,4-1.3,4s3.4,0.1,4.1-0.5l0.5-0.4
		C121.5,151.7,120.8,151.1,120.3,150.4z"/>
</g>
<path fill="none" stroke="#FFFFFF" stroke-width="0.5" stroke-miterlimit="10" d="M144.5,149.6"/>
<path fill="none" stroke="#FFFFFF" stroke-width="0.5" stroke-miterlimit="10" d="M128.9,127.6"/>
<g>
	<g>
		<path fill="#E24C32" d="M833.4-9.8c-0.4-0.6-1-1-1.7-1.2c-0.1,0-0.1,0-0.2,0l0.8,5.2c0.7-0.4,1.3-1,1.5-1.9
			C834-8.5,833.8-9.2,833.4-9.8z"/>
		<path fill="#E24C32" d="M822.6,7.4c-0.3,0-0.6,0-1-0.1c-1-0.3-1.6-0.6-1.8-1.2c-0.4-0.7,0-1.6,0.3-2.3c0.1-0.2,0.2-0.4,0.2-0.6
			c0.1-0.4,0-0.9-1.7-1.6c-0.9-0.4-0.9-0.6-0.8-1.2c0-0.1,0-0.2,0.1-0.3c0.1-0.4,0.8-2.8,1.4-4.9c-0.1,0-0.1,0-0.2,0
			c-0.4-0.1-0.8-0.2-1.1-0.4c-0.7,2.3-1.4,4.9-1.5,5.2c-0.2,0.7,0.4,1.4,1.8,1.8c0.5,0.2,0.8,0.4,0.9,0.6c0.1,0.3,0,0.6-0.2,1.1
			c-0.1,0.2-0.3,0.6-0.4,0.9c-0.2,0.6-0.2,1,0,1.4c0.3,0.7,1.3,1.2,3,1.6c0.7,0.2,1.3,0.3,1.8,0.3c1.5,0,2.1-0.8,2.4-1.6l-1.2-0.6
			C824.3,6.4,824,7.4,822.6,7.4z"/>
		<path fill="#E24C32" d="M819.3-5.1c0.2,0,0.4,0.1,0.6,0.1c1.4,0,2.7-1,3-2.4c0.2-0.8,0-1.6-0.4-2.3c-0.4-0.7-1.1-1.2-1.9-1.3
			c-0.2,0-0.4-0.1-0.7-0.1c-1.4,0-2.7,1-3,2.4C816.6-7.1,817.6-5.5,819.3-5.1z"/>
		<path fill="#E24C32" d="M829.7-19.5c-0.4-2.7-2.8-4.7-5.5-4.7c-0.3,0-0.6,0-0.9,0.1l-1.5,0.2c-3,0.5-5.1,3.3-4.6,6.3l1,6.4
			c0.5-0.2,1-0.4,1.6-0.4c0.2,0,0.5,0,0.7,0.1c0.9,0.2,1.7,0.7,2.2,1.5c0.5,0.8,0.7,1.7,0.5,2.6c-0.3,1.6-1.8,2.7-3.4,2.7
			c0,0-0.1,0-0.1,0c-0.1,0.3-0.2,0.6-0.3,0.8l0.7,4.1c0.4,2.6,2.7,4.6,5.3,4.7l0.2,0l0,0.2c0.1,0.4,0.5,0.6,1.1,0.6
			c0.3,0,0.7-0.1,1.1-0.2c1.7-0.4,2-0.8,1.9-1.4l0-0.1l0.1-0.1c1.9-1.2,3-3.4,2.7-5.6L829.7-19.5z M829.3-9c0.1,0,0.3,0.2,0.3,0.6
			c0.1,0.3,0,0.6-0.1,0.7c-0.1,0-0.3-0.2-0.3-0.6C829.1-8.7,829.2-9,829.3-9z M828.8-12.7c0.1,0,0.3,0.2,0.3,0.6
			c0.1,0.3,0,0.6-0.1,0.7c-0.1,0-0.3-0.2-0.3-0.6C828.6-12.3,828.7-12.6,828.8-12.7z M828.3-10.7c0.2,0,0.4,0.2,0.4,0.6
			s0,0.7-0.2,0.7c-0.2,0-0.4-0.2-0.4-0.6C828.1-10.4,828.2-10.7,828.3-10.7z M828-13.3c-0.2,0-0.4-0.2-0.4-0.6s0-0.7,0.2-0.7
			c0.2,0,0.4,0.2,0.4,0.6S828.1-13.3,828-13.3z M828.2-16.5c0.1,0,0.3,0.2,0.3,0.6c0.1,0.3,0,0.6-0.1,0.7c-0.1,0-0.3-0.2-0.3-0.6
			C828-16.2,828.1-16.5,828.2-16.5z M827.6-20.1c0.1,0,0.3,0.2,0.4,0.6c0.1,0.3,0,0.6-0.1,0.7c-0.1,0-0.3-0.2-0.4-0.6
			C827.4-19.8,827.4-20.1,827.6-20.1z M827.1-18.2c0.2,0,0.4,0.2,0.4,0.6c0.1,0.4,0,0.7-0.2,0.7c-0.2,0-0.4-0.2-0.4-0.6
			C826.8-17.9,826.9-18.2,827.1-18.2z M827.3-11.2c-0.2,0-0.4-0.2-0.4-0.6s0-0.7,0.2-0.7c0.2,0,0.4,0.2,0.4,0.6
			C827.5-11.5,827.4-11.2,827.3-11.2z M826.4-16.3c0.2,0,0.4,0.2,0.4,0.6c0.1,0.4,0,0.7-0.2,0.7c-0.2,0-0.4-0.2-0.4-0.6
			S826.3-16.3,826.4-16.3z M825.8-20c0.2,0,0.4,0.2,0.4,0.6c0.1,0.4,0,0.7-0.2,0.7c-0.2,0-0.4-0.2-0.4-0.6
			C825.5-19.6,825.6-20,825.8-20z M824.5-17.1c-0.1-0.4,0-0.7,0.2-0.8c0.2-0.1,0.5,0.2,0.5,0.6c0.1,0.4,0,0.7-0.2,0.7
			C824.8-16.5,824.6-16.7,824.5-17.1z M825.5-12.9c-0.2,0-0.4-0.2-0.4-0.5c-0.1-0.4,0-0.7,0.2-0.8c0.2-0.1,0.4,0.2,0.5,0.6
			C825.8-13.2,825.7-12.9,825.5-12.9z M825.6-9.6c-0.1-0.4,0-0.7,0.2-0.8c0.2-0.1,0.4,0.2,0.5,0.6c0.1,0.4-0.1,0.7-0.2,0.7
			C825.9-9,825.7-9.3,825.6-9.6z M826.5-5.4c-0.2,0-0.3-0.2-0.4-0.5c-0.1-0.4,0-0.7,0.2-0.8c0.2-0.1,0.4,0.2,0.5,0.6
			C826.8-5.8,826.7-5.5,826.5-5.4z M827.2-1.4c-0.2,0-0.3-0.2-0.4-0.5c-0.1-0.4,0-0.7,0.2-0.8c0.2-0.1,0.4,0.2,0.5,0.7
			C827.5-1.8,827.4-1.5,827.2-1.4z M827.7-7.6c-0.2,0-0.4-0.2-0.4-0.6c-0.1-0.4,0-0.7,0.2-0.7c0.2,0,0.4,0.2,0.4,0.6
			C828-7.9,827.9-7.6,827.7-7.6z M828.3-3.8c-0.2,0-0.4-0.2-0.4-0.6s0-0.7,0.2-0.7c0.2,0,0.4,0.2,0.4,0.6
			C828.5-4.1,828.4-3.8,828.3-3.8z M829,0.2c-0.2,0-0.4-0.2-0.4-0.6s0-0.7,0.2-0.7c0.2,0,0.4,0.2,0.4,0.6S829.1,0.2,829,0.2z
			 M829-5.8c-0.2,0-0.4-0.2-0.4-0.6s0-0.7,0.2-0.7c0.2,0,0.4,0.2,0.4,0.6C829.3-6.1,829.2-5.8,829-5.8z M829.7-1.8
			c-0.2,0-0.4-0.2-0.4-0.6s0-0.7,0.2-0.7s0.4,0.2,0.4,0.6S829.9-1.8,829.7-1.8z M830.1-4c-0.1,0-0.3-0.2-0.3-0.6
			c-0.1-0.3,0-0.6,0.1-0.7c0.1,0,0.3,0.2,0.3,0.6C830.2-4.3,830.2-4,830.1-4z M830.9-0.2c-0.1,0-0.3-0.2-0.3-0.6
			c-0.1-0.3,0-0.6,0.1-0.7c0.1,0,0.3,0.2,0.3,0.6C831-0.5,831-0.2,830.9-0.2z"/>
	</g>
</g>
<g>
	<path fill="#E24C32" d="M636.9,6.4c0.3-1.5-0.6-2.9-2.1-3.2c-0.1,0-0.1,0-0.2,0l0.8,5.1C636.2,7.9,636.7,7.2,636.9,6.4z"/>
	<g>
		<path fill="none" d="M630.3-2.3c0.1,0.4,0.5,0.7,0.9,0.8s0.6-0.2,0.5-0.6c-0.1-0.4-0.5-0.7-0.9-0.8C630.5-2.9,630.3-2.6,630.3-2.3
			z"/>
		<path fill="none" d="M630.4-5.5c0.4,0,0.6-0.3,0.5-0.6c-0.1-0.4-0.5-0.7-0.9-0.7s-0.6,0.3-0.5,0.6C629.6-5.9,630.1-5.6,630.4-5.5z
			"/>
		<path fill="none" d="M629.1-4.3c-0.1-0.4-0.6-0.8-1.1-0.8c-0.5,0-0.8,0.2-0.7,0.6s0.6,0.8,1.1,0.8C628.8-3.7,629.2-3.9,629.1-4.3z
			"/>
		<path fill="none" d="M629.9-0.3c-0.1-0.4-0.6-0.8-1.1-0.8s-0.8,0.2-0.7,0.6c0.1,0.4,0.6,0.8,1.1,0.8C629.7,0.4,630,0.1,629.9-0.3z
			"/>
		<path fill="none" d="M631.4,5.9c0.1,0.4,0.5,0.7,0.9,0.8c0.4,0,0.6-0.2,0.5-0.6c-0.1-0.4-0.5-0.7-0.9-0.8
			C631.6,5.3,631.3,5.5,631.4,5.9z"/>
		<path fill="none" d="M631.1,2c0.1,0.4,0.5,0.7,0.9,0.8s0.6-0.2,0.5-0.6c-0.1-0.4-0.5-0.7-0.9-0.8C631.2,1.3,631,1.6,631.1,2z"/>
		<path fill="none" d="M631,7.8c-0.1-0.4-0.6-0.8-1.1-0.8c-0.5,0-0.8,0.2-0.7,0.6c0.1,0.4,0.6,0.8,1.1,0.8
			C630.8,8.5,631.1,8.2,631,7.8z"/>
		<path fill="none" d="M633.4,10.2c-0.1-0.4-0.5-0.7-0.9-0.8c-0.4,0-0.6,0.2-0.5,0.6c0.1,0.4,0.5,0.7,0.9,0.8
			C633.2,10.8,633.5,10.5,633.4,10.2z"/>
		<path fill="none" d="M630.6,3.9c-0.1-0.4-0.6-0.8-1.1-0.8s-0.8,0.2-0.7,0.6c0.1,0.4,0.6,0.8,1.1,0.8
			C630.4,4.6,630.7,4.3,630.6,3.9z"/>
		<path fill="none" d="M633.1,13c-0.4,0-0.6,0.2-0.5,0.6c0.1,0.4,0.5,0.7,0.9,0.8c0.4,0,0.6-0.2,0.5-0.6
			C633.9,13.4,633.5,13.1,633.1,13z"/>
		<path fill="none" d="M630.6,11.4c-0.5,0-0.8,0.2-0.7,0.6c0.1,0.4,0.6,0.8,1.1,0.8c0.5,0,0.8-0.2,0.7-0.6
			C631.6,11.8,631.1,11.4,630.6,11.4z"/>
		<path fill="#E24C32" d="M635.7,12.5l-2.9-17.8c-0.4-2.6-2.8-4.6-5.4-4.6c-0.3,0-0.6,0-0.9,0.1l-1.5,0.2c-3,0.5-5,3.3-4.6,6.3
			l1,6.3c0.5-0.2,1-0.4,1.6-0.4c0.2,0,0.5,0,0.7,0.1c0.9,0.2,1.7,0.7,2.2,1.5c0.5,0.8,0.7,1.7,0.5,2.6c-0.3,1.6-1.8,2.7-3.4,2.7
			c0,0-0.1,0-0.1,0c-0.1,0.3-0.2,0.6-0.3,0.8l0.7,4.1c0.4,2.6,2.7,4.6,5.3,4.6l0.2,0l0,0.2c0.1,0.4,0.5,0.6,1.1,0.6
			c0.3,0,0.7-0.1,1.1-0.2c1.7-0.4,2-0.8,1.8-1.4l0-0.1l0.1-0.1C635,16.9,636,14.7,635.7,12.5z M632.8,6c0.1,0.4-0.1,0.7-0.5,0.6
			c-0.4,0-0.8-0.4-0.9-0.8c-0.1-0.4,0.1-0.7,0.5-0.6C632.4,5.3,632.7,5.7,632.8,6z M632.5,2.1c0.1,0.4-0.1,0.7-0.5,0.6
			s-0.8-0.4-0.9-0.8c-0.1-0.4,0.1-0.7,0.5-0.6C632,1.4,632.4,1.7,632.5,2.1z M631.8-2.1c0.1,0.4-0.1,0.7-0.5,0.6s-0.8-0.4-0.9-0.8
			c-0.1-0.4,0.1-0.7,0.5-0.6C631.3-2.8,631.7-2.5,631.8-2.1z M630-6.9c0.4,0,0.8,0.4,0.9,0.7c0.1,0.4-0.1,0.7-0.5,0.6
			c-0.4,0-0.8-0.4-0.9-0.7C629.4-6.6,629.6-6.9,630-6.9z M627.3-4.5c-0.1-0.4,0.2-0.7,0.7-0.6c0.5,0,1,0.4,1.1,0.8
			c0.1,0.4-0.2,0.7-0.7,0.6C627.8-3.7,627.4-4.1,627.3-4.5z M628.1-0.5c-0.1-0.4,0.2-0.7,0.7-0.6s1,0.4,1.1,0.8
			c0.1,0.4-0.2,0.7-0.7,0.6C628.7,0.3,628.2-0.1,628.1-0.5z M628.8,3.7c-0.1-0.4,0.2-0.7,0.7-0.6s1,0.4,1.1,0.8
			c0.1,0.4-0.2,0.7-0.7,0.6C629.4,4.5,628.9,4.1,628.8,3.7z M629.2,7.7c-0.1-0.4,0.2-0.7,0.7-0.6c0.5,0,1,0.4,1.1,0.8
			c0.1,0.4-0.2,0.7-0.7,0.6C629.8,8.4,629.3,8.1,629.2,7.7z M630.9,12.8c-0.5,0-1-0.4-1.1-0.8c-0.1-0.4,0.2-0.7,0.7-0.6
			c0.5,0,1,0.4,1.1,0.8C631.8,12.6,631.4,12.9,630.9,12.8z M632,10c-0.1-0.4,0.1-0.7,0.5-0.6c0.4,0,0.8,0.4,0.9,0.8
			c0.1,0.4-0.1,0.7-0.5,0.6C632.4,10.7,632,10.4,632,10z M633.5,14.4c-0.4,0-0.8-0.4-0.9-0.8c-0.1-0.4,0.1-0.7,0.5-0.6
			c0.4,0,0.8,0.4,0.9,0.8C634.1,14.2,633.9,14.5,633.5,14.4z"/>
		<path fill="#E24C32" d="M621.3,9c-0.7,2.2-1.4,4.9-1.5,5.2c-0.2,0.9,0.8,1.5,1.8,1.8c0.5,0.2,0.8,0.3,0.9,0.6c0.1,0.3,0,0.6-0.2,1
			c-0.1,0.2-0.3,0.6-0.4,0.9c-0.2,0.6-0.2,1,0,1.4c0.3,0.6,1.3,1.2,3,1.6c0.7,0.2,1.3,0.3,1.8,0.3c1.5,0,2.1-0.8,2.4-1.6l-1.2-0.6
			c-0.3,0.9-0.6,1.9-2,1.9h0c-0.3,0-0.6,0-1-0.1c-1-0.3-1.6-0.6-1.8-1.2c-0.4-0.7,0-1.6,0.3-2.2c0.1-0.2,0.2-0.4,0.2-0.6
			c0.1-0.4,0-0.9-1.7-1.6c-0.9-0.4-0.9-0.6-0.8-1.2c0-0.1,0-0.2,0.1-0.3c0.1-0.4,0.8-2.7,1.4-4.9c-0.1,0-0.1,0-0.2,0
			C622,9.4,621.6,9.2,621.3,9z"/>
		<path fill="#E24C32" d="M623.1,9.1c1.4,0,2.7-1,3-2.4c0.2-0.8,0-1.6-0.4-2.3c-0.4-0.7-1.1-1.2-1.9-1.3c-0.2,0-0.4-0.1-0.6-0.1
			c-1.4,0-2.7,1-3,2.4c-0.2,0.8,0,1.6,0.4,2.3c0.4,0.7,1.1,1.2,1.9,1.3C622.6,9.1,622.9,9.1,623.1,9.1z"/>
	</g>
</g>
</svg>
