<?xml version="1.0" encoding="utf-8"?>
<!-- Generator: Adobe Illustrator 20.0.0, SVG Export Plug-In . SVG Version: 6.00 Build 0)  -->
<svg version="1.1" id="Layer_1" xmlns="http://www.w3.org/2000/svg" xmlns:xlink="http://www.w3.org/1999/xlink" x="0px" y="0px"
	 viewBox="0 0 200.1 185.9" style="enable-background:new 0 0 200.1 185.9;" xml:space="preserve">
<style type="text/css">
	.st0{fill:#E24C32;}
	.st1{fill:none;stroke:#FFFFFF;stroke-width:0.5;stroke-miterlimit:10;}
	.st2{fill:#FFFFFF;}
</style>
<g>
	<path d="M47,151.8l-3.5,20.7l-3.4,0.4l-5.5-12.2l-0.7-2.5l-0.1,0l-0.1,2.6L31.2,174l-3.4,0.4l-8.2-19.3l3.1-0.4l5.9,14.1l0.6,2.2
		l0.1,0l0.1-2.3l2.7-15.1l2.4-0.3l6.2,14.1l0.6,2.2l0.1,0l0-2.3l2.5-15.1L47,151.8z"/>
	<path d="M69,160.7l-16.2,1.9l0.4,0.3c0.9,3.6,3.3,5.6,7.4,5.1c2.2-0.3,4-1.2,5.2-2.8l2.3,1.8c-1.7,2.1-4.2,3.5-7.2,3.8
		c-6.6,0.8-10.2-3.2-10.9-9c-0.7-6.1,2.3-10.9,8.3-11.6c6.3-0.8,9.9,3.3,10.6,9.4C69,160,69,160.3,69,160.7z M66.1,158.4l-0.4-0.3
		c-0.9-3.4-3.1-5.6-7.1-5.1c-4,0.5-5.7,3.3-5.8,6.6l-0.3,0.4L66.1,158.4z"/>
	<path d="M91,158.1L74.8,160l0.4,0.3c0.9,3.6,3.3,5.6,7.4,5.1c2.2-0.3,4-1.2,5.2-2.8l2.3,1.8c-1.7,2.1-4.2,3.5-7.2,3.8
		c-6.6,0.8-10.2-3.2-10.9-9c-0.7-6.1,2.3-10.9,8.3-11.6c6.3-0.8,9.9,3.3,10.6,9.4C91,157.4,91,157.7,91,158.1z M88.1,155.7l-0.4-0.3
		c-0.9-3.4-3.1-5.6-7.1-5.1c-4,0.5-5.7,3.3-5.8,6.6l-0.3,0.4L88.1,155.7z"/>
	<path d="M99.2,165.9l-2.9,0.3l-3.2-26.7l2.9-0.3L99.2,165.9z M113.6,164.2l-4.1,0.5l-11.2-9.1l8.3-10.8l4.1-0.5l-8.7,10.9l0,0.1
		L113.6,164.2z"/>
	<path d="M132.7,153.2l-16.2,1.9l0.4,0.3c0.9,3.6,3.3,5.6,7.4,5.1c2.2-0.3,4-1.2,5.2-2.8l2.3,1.8c-1.7,2.1-4.2,3.5-7.2,3.8
		c-6.6,0.8-10.2-3.2-10.9-9c-0.7-6.1,2.3-10.9,8.3-11.6c6.3-0.7,9.9,3.3,10.6,9.4C132.7,152.4,132.7,152.7,132.7,153.2z
		 M129.8,150.8l-0.4-0.3c-0.9-3.4-3.1-5.6-7.1-5.1c-4,0.5-5.7,3.3-5.8,6.6l-0.3,0.4L129.8,150.8z"/>
	<path d="M155.6,159.2l-2.9,0.3l-1.4-12.1c-0.4-3.2-1.6-5.3-6.2-4.7c-3.4,0.4-5.9,2.6-5.5,6.4L141,161l-2.9,0.3l-2.4-20l2.9-0.3
		l0.3,2.5l0.1,0c1.2-1.9,3.5-3.3,6.1-3.6c5.3-0.6,8.5,1.7,9.1,6.6L155.6,159.2z"/>
	<path d="M178.2,156.6l-2.9,0.3l-0.3-2.3l-0.1,0c-1.2,1.9-3.2,3.1-5.9,3.4c-6.3,0.7-9.8-3.2-10.5-9.1c-0.7-6,1.8-10.8,8-11.6
		c2.6-0.3,5,0.5,6.6,2l0.1,0l-1.1-9.1l2.9-0.3L178.2,156.6z M167,140.1c-4.6,0.5-6.1,4.2-5.6,8.4s2.7,7.2,7.4,6.7
		c4.7-0.6,6.1-4,5.6-8.2C173.8,142.7,171.7,139.5,167,140.1z"/>
</g>
<polygon class="st0" points="62.5,37.6 80.3,32.2 80.3,35.3 96.1,34.5 76.5,39.4 77.6,34.8 "/>
<polygon class="st0" points="64.2,42.8 75.6,47.8 73.7,48.7 83.3,53.8 69.5,48.5 72.6,47.4 "/>
<polygon class="st0" points="61.6,29.7 68,21.3 68.9,23.1 76.3,16.6 68.5,26.2 67.5,23.7 "/>
<path class="st0" d="M119.6,64.3c0,0,17.9,9.9,25.4,8.7s32.9-10.9,36.9-10.1c9.2,2,16.6,12.2,18.1,29.2s-5.8,65-11.7,71.2
	c-5.9,6.2-66.3,20.2-85.8,21.9s-69.8-0.5-80.9-0.7s-13.2-5.5-16.2-20S0.5,132.3,0.1,121S-0.2,89.3,7,82s40,5.3,40,5.3l-3.3-14.1
	l3.9-1L50,91.1c0,0-33.5-8.3-38-2.3s-6.2,19.4-5.6,31.7s2.8,34.1,5,43.7c2.2,9.4,2.9,16.6,10.8,17.4s43.8,1.8,80.9-2
	c37.1-3.8,74.3-10.8,81.5-18.1s13.2-54.3,10.9-68.6s-9.6-24.9-14.1-25.2c-4.5-0.3-22.6,8.8-35.1,10.1s-26.5-6.5-26.5-6.5L119.6,64.3
	z"/>
<g>
	<path class="st0" d="M58,34.4c-1-1.5-2.4-2.5-4.1-2.9c-0.2,0-0.3-0.1-0.5-0.1l2,12.4c1.8-0.9,3.1-2.5,3.6-4.5
		C59.3,37.6,59,35.9,58,34.4z"/>
	<path class="st0" d="M32.1,75.8c-0.7,0-1.5-0.1-2.4-0.4c-2.3-0.6-3.7-1.5-4.4-2.8c-0.8-1.8,0.1-3.8,0.8-5.4
		c0.2-0.5,0.4-0.9,0.6-1.3c0.3-1,0.1-2.2-4.1-3.9c-2.2-0.8-2.2-1.5-1.8-2.8c0.1-0.2,0.1-0.4,0.2-0.6c0.2-0.9,1.9-6.6,3.5-11.7
		c-0.1,0-0.3,0-0.4-0.1c-1-0.2-1.8-0.6-2.6-1.1c-1.6,5.4-3.4,11.7-3.6,12.5c-0.4,1.8,1,3.2,4.2,4.3c1.3,0.4,1.9,0.8,2.1,1.4
		c0.3,0.7-0.1,1.5-0.6,2.5c-0.3,0.6-0.6,1.3-1,2.3C22,70,22,71,22.5,71.9c0.8,1.6,3.2,2.8,7.1,3.9c1.6,0.4,3,0.6,4.2,0.6
		c3.6,0,5-1.8,5.8-3.9l-2.8-1.3C36.2,73.2,35.4,75.8,32.1,75.8z"/>
	<path class="st0" d="M24.1,45.7c0.5,0.1,1,0.2,1.6,0.2c3.4,0,6.4-2.4,7.1-5.8c0.4-1.9,0.1-3.9-1-5.5c-1.1-1.6-2.7-2.8-4.6-3.2
		c-0.5-0.1-1-0.2-1.6-0.2c-3.4,0-6.4,2.4-7.1,5.8C17.6,40.9,20.1,44.8,24.1,45.7z"/>
	<path class="st0" d="M49.1,11.2C48.1,4.8,42.4,0,36,0c-0.7,0-1.4,0.1-2.1,0.2l-3.5,0.6c-7.2,1.2-12.1,8-11,15.2l2.5,15.2
		c1.1-0.6,2.4-0.9,3.8-0.9c0.6,0,1.2,0.1,1.8,0.2c2.2,0.5,4,1.8,5.2,3.6c1.2,1.9,1.6,4.1,1.1,6.3c-0.8,3.8-4.2,6.6-8.1,6.6
		c-0.1,0-0.2,0-0.3,0c-0.2,0.7-0.4,1.3-0.6,2l1.6,9.8c1,6.3,6.4,11,12.8,11.1l0.4,0l0.1,0.4c0.2,1,1.1,1.6,2.7,1.6
		c0.8,0,1.7-0.1,2.7-0.4c4.2-1,4.7-1.8,4.4-3.4l-0.1-0.3l0.3-0.2c4.7-2.8,7.2-8.2,6.4-13.5L49.1,11.2z M48.1,36.3
		c0.3-0.1,0.7,0.6,0.8,1.4s0,1.5-0.3,1.6c-0.3,0.1-0.7-0.6-0.8-1.4S47.8,36.4,48.1,36.3z M47,27.6c0.3-0.1,0.7,0.6,0.8,1.4
		s0,1.5-0.3,1.6c-0.3,0.1-0.7-0.6-0.8-1.4C46.6,28.4,46.7,27.7,47,27.6z M45.8,32.2c0.4-0.1,0.8,0.6,1,1.4c0.2,0.9,0,1.6-0.4,1.7
		c-0.4,0.1-0.8-0.6-1-1.4S45.4,32.3,45.8,32.2z M44.9,26.2c-0.4,0.1-0.8-0.6-1-1.4s0-1.6,0.4-1.7s0.8,0.6,1,1.4
		C45.5,25.3,45.3,26.1,44.9,26.2z M45.5,18.4c0.3-0.1,0.7,0.6,0.8,1.4c0.2,0.8,0,1.5-0.3,1.6c-0.3,0.1-0.7-0.6-0.8-1.4
		S45.2,18.5,45.5,18.4z M44,9.7c0.3-0.1,0.7,0.5,0.9,1.3s0.1,1.5-0.2,1.6c-0.3,0.1-0.7-0.5-0.9-1.3S43.7,9.8,44,9.7z M42.8,14.3
		c0.4-0.1,0.8,0.6,1,1.4s0,1.6-0.4,1.7c-0.4,0.1-0.8-0.6-1-1.4C42.2,15.2,42.4,14.4,42.8,14.3z M43.3,31.1c-0.4,0.1-0.8-0.6-1-1.4
		s0-1.6,0.4-1.7s0.8,0.6,1,1.4C43.8,30.3,43.6,31,43.3,31.1z M41.3,18.8c0.4-0.1,0.8,0.6,1,1.4c0.2,0.9,0,1.6-0.4,1.7
		c-0.4,0.1-0.8-0.6-1-1.4S40.9,18.9,41.3,18.8z M39.7,10.1c0.4-0.1,0.9,0.6,1,1.4c0.2,0.9,0,1.6-0.4,1.7s-0.9-0.6-1-1.4
		C39.1,10.9,39.3,10.2,39.7,10.1z M36.7,17.1c-0.2-0.9-0.1-1.8,0.4-2c0.5-0.2,1.1,0.5,1.3,1.5c0.2,0.9-0.1,1.6-0.6,1.7
		C37.4,18.4,36.9,17.9,36.7,17.1z M39,27.1c-0.4,0.1-0.9-0.5-1-1.3c-0.2-0.9-0.1-1.8,0.4-2c0.5-0.2,1.1,0.5,1.2,1.5
		C39.7,26.3,39.4,27,39,27.1z M39.3,35c-0.2-0.9-0.1-1.8,0.4-2c0.5-0.2,1.1,0.5,1.2,1.5c0.1,0.9-0.1,1.6-0.6,1.7
		C39.9,36.3,39.5,35.8,39.3,35z M41.5,44.9c-0.4,0.1-0.8-0.5-1-1.3c-0.2-0.9-0.1-1.8,0.4-2c0.5-0.2,1,0.5,1.2,1.6
		C42.2,44.1,42,44.9,41.5,44.9z M43.1,54.5c-0.4,0.1-0.8-0.5-1-1.3c-0.2-0.9-0.1-1.8,0.4-2c0.5-0.2,1,0.5,1.2,1.6
		C43.8,53.7,43.5,54.4,43.1,54.5z M44.4,39.8c-0.4,0.1-0.8-0.6-1-1.4c-0.2-0.9,0-1.6,0.4-1.7c0.4-0.1,0.8,0.6,1,1.4
		S44.8,39.7,44.4,39.8z M45.7,48.8c-0.4,0.1-0.8-0.6-1-1.4s0-1.6,0.4-1.7c0.4-0.1,0.8,0.6,1,1.4C46.3,48,46.1,48.8,45.7,48.8z
		 M47.3,58.4c-0.4,0.1-0.8-0.6-1-1.4c-0.2-0.9,0-1.6,0.4-1.7s0.8,0.6,1,1.4S47.7,58.4,47.3,58.4z M47.5,44.1c-0.4,0.1-0.8-0.6-1-1.4
		s0-1.6,0.4-1.7s0.8,0.6,1,1.4C48.1,43.2,47.9,44,47.5,44.1z M49.1,53.6c-0.4,0.1-0.8-0.6-1-1.4s0-1.6,0.4-1.7s0.8,0.6,1,1.4
		C49.7,52.7,49.5,53.5,49.1,53.6z M49.9,48.3c-0.3,0.1-0.7-0.6-0.8-1.4c-0.2-0.8,0-1.5,0.3-1.6c0.3-0.1,0.7,0.6,0.8,1.4
		S50.2,48.2,49.9,48.3z M51.9,57.5c-0.3,0.1-0.7-0.6-0.8-1.4c-0.2-0.8,0-1.5,0.3-1.6c0.3-0.1,0.7,0.6,0.8,1.4
		C52.3,56.7,52.2,57.4,51.9,57.5z"/>
</g>
<g>
	<path class="st0" d="M72.3,73.5L72,73.6c0.3,0.8,0.7,1.9,1.3,3.2c0.6,1.3,1.1,2.4,1.6,3.3l0.4-0.2c-0.5-0.9-1.1-2.1-1.7-3.4
		C73.1,75.3,72.6,74.3,72.3,73.5z"/>
	<path class="st0" d="M71.5,73.9l-0.4,0.2c0.3,0.8,0.7,1.9,1.3,3.2c0.6,1.3,1.2,2.4,1.7,3.3l0.4-0.2c-0.5-0.9-1-2-1.6-3.3
		C72.2,75.7,71.8,74.7,71.5,73.9z"/>
	<path class="st0" d="M63.5,77.8c-0.9,0.7-1.4,1.8-1.3,3l-6.4,3.3c0.1,0.4,0.2,0.9,0.4,1.2c0.2,0.4,0.5,0.8,0.9,1.2l6.4-3.3
		c0.8,0.7,1.9,1,3,0.8c-0.5-0.8-1-1.8-1.5-3C64.3,79.7,63.8,78.7,63.5,77.8z"/>
	<path class="st0" d="M70.6,74.3l-6.5,3.1c-0.1,0-0.1,0.1-0.2,0.1c0.3,0.9,0.7,1.9,1.4,3.3c0.6,1.2,1.1,2.2,1.6,3.1
		c0.1,0,0.3-0.1,0.4-0.1l6.4-3.1c-0.5-0.9-1.1-2-1.7-3.3C71.4,76.2,71,75.1,70.6,74.3z"/>
	<path class="st0" d="M78.2,73.4c-0.7,0.1-2.7-0.3-3.8-0.3c-0.5-0.1-1.1,0-1.6,0.2c0.3,0.8,0.7,1.8,1.3,3c0.6,1.4,1.2,2.5,1.7,3.4
		c0.7-0.4,1.2-0.9,1.5-1.5c0.7-1,1.6-2.3,2-2.7c1.3-1.1,18.6-2.9,18.6-2.9l0.8-6.4C98.7,66.1,80.2,73,78.2,73.4z"/>
	<path class="st0" d="M55.7,85.5c-0.2-0.3-0.3-0.7-0.4-1.2l-0.4,0.2c-0.5,0.3-1.2,2.2-1.2,2.2s2,0.5,2.5,0.2l0.4-0.2
		C56.2,86.4,55.9,86,55.7,85.5z"/>
</g>
<path class="st0" d="M27,135.4c-0.1,1.4,0,2.3,0.2,2.7c0.2,0.4,0.6,0.6,1.4,0.8c1-0.3,2.7-2.3,5.3-5.9c0.2-0.3,0.5-0.4,0.8-0.5
	c0.3-0.1,0.7,0,0.9,0.1l4.7,2.1c0.4,0.2,0.7,0.4,0.9,0.9c0.2,0.4,0.3,0.8,0.2,1c-0.8,2.2-2.8,5-6.2,8.6c-3.4,3.6-5.8,5.3-7.3,5.2
	c-5.8-0.5-9.4-2.5-10.7-6c-0.9-2.5-1.2-6.4-1-11.7c0.2-5.3,0.9-10.7,2.1-16c1.2-5.3,2.7-9.1,4.4-11.2c1.2-1.5,2.4-2.7,3.8-3.7
	c1.4-1,2.8-1.7,4.4-2.1c1.5-0.4,3.1-0.4,4.6,0c4.4,1.2,6.9,4,7.5,8.3c0.4,3-0.1,6.3-1.5,10c-1.4,3.7-3.4,7.1-6,10.3
	C32.8,131.4,30,133.8,27,135.4z M27.8,125.4c1.9-1.6,3.4-3.9,4.5-6.9c1.1-3,1.5-5.7,1.2-8c-0.1-0.9-0.3-1.5-0.5-1.9
	c-0.2-0.3-0.5-0.4-1-0.4c-0.4,0.1-0.9,0.6-1.3,1.6s-0.8,2-1,3C29,116,28.3,120.2,27.8,125.4z"/>
<path class="st0" d="M58.9,106c0,0,6.9-8.1,7.7-8.8c0.9-0.7,2.5-1.6,3.8-1.9c1.4-0.3,3.8,0.7,4.9,2.9c1,2.2,1.6,8,1.6,8l4.6-7.9
	c0.9-1.7,1.8-2.9,2.7-3.6c0.9-0.7,4.7-2.2,7.3-1.1s2.1,6.8,1.9,9l-3.8,33.7c-0.1,0.8-0.7,1.3-1.8,1.5l-4.6,0.8
	c-0.3,0-0.6-0.1-0.8-0.4c-0.3-0.3-0.4-0.8-0.2-1.4c0,0,0.7-14.2,1.1-18.8c0.4-4.7,0.9-8.3-0.8-8.5c-1.7-0.2-2.7,3.4-2.8,3.7
	c-0.2,0.3-6.8,23.1-7.4,24.2c-0.3,0.9-1.2,2.5-2.2,2.6l-3.4,0.4c-0.3,0-0.6-0.1-0.8-0.4c-0.3-0.3-0.4-0.8-0.2-1.4
	c0,0,0.9-22.9,0.9-23.2c0-0.3,0-0.6,0-0.9c0-0.3-0.1-0.5-0.1-0.6c-0.1-0.1-0.3-0.8-1.2-0.7c-0.9,0.1-1.6,1.1-1.7,1.4
	c-0.2,0.3-0.3,0.5-0.4,0.8c-0.1,0.2-0.3,0.6-0.5,1.1c-0.2,0.5-0.4,0.9-0.5,1.1c-1.2,2.6-2.7,6.8-4.8,12.6c-2,5.8-3.1,11.5-3.6,12.5
	c-0.6,1.1-0.8,1.6-1.7,1.7l-4.9,0.7c-0.5,0.1-0.9-0.1-1.2-0.5c-0.3-0.4-0.5-0.9-0.4-1.5l6.1-42.6c0.1-1.5,0.8-2.4,2.1-2.6l1.9-0.3
	c1-0.1,1.3-0.1,1.7,0.2c0.3,0.3,0.5,1.1,0.7,2.1C58.2,100.9,58.9,106,58.9,106z"/>
<path class="st0" d="M115.2,64.8L111.5,95l1.5-2.7c1.4-2.5,2.6-4.3,3.5-5.3c0.9-1,1.8-1.6,2.9-1.8l0.6-0.1c1-0.2,7.9,2.1,8.2,5.3
	c0.5,6.6-1,18.2-2.5,25.9c-1.4,7.8-2.8,11.8-5,14.2c-1.7,1.9-3.9,3.1-6.7,3.6c-2.6,0.5-3.4,0.4-5.4,0.3l0,0.2
	c-0.1,1.4-0.9,2.2-2.3,2.4l-5.1,0.9c-1,0.2-1.7,0-2.2-0.5c-0.5-0.5-0.7-1.1-0.7-2l4.9-68.5c0.1-1.4,0.9-2.2,2.3-2.4l7.4-1.3
	C114.5,62.8,115.3,63.4,115.2,64.8z M109.2,126.6c1,0.1,1.9,0.1,2.7,0.1c0.9-0.1,1.5-0.3,2-0.7c1.1-1.1,2.1-4.5,3.1-9.9
	c1-5.5,1.5-10.1,1.5-13.9c0-1.1,0-1.9-0.1-2.2c-0.1-0.3-0.4-0.5-0.8-0.4c-0.5,0.1-1.1,0.7-1.8,2c-0.7,1.2-1.5,2.9-2.3,5.1
	c-2,5.5-3.4,11.7-4.1,18.6L109.2,126.6z"/>
<path class="st0" d="M140.5,119.8c-1.8,1.9-1.7,6.3-1.5,6.6c0.2,0.4,0.6,0.5,1.9,0.5c1.2,0,3.3-5.6,5.8-9c0.2-0.2,0.8-0.9,1.1-1
	c0.3-0.1,0.6,0,0.9,0.1l4.4,2c0.4,0.1,0.6,0.4,0.8,0.8c0.2,0.4,0.3,0.7,0.2,1c-0.7,2.1-2.7,4.8-5.8,8.2c-3.2,3.4-5.9,4.4-7.3,4.3
	c-5.5-0.5-8.4-1.7-9.6-5c-0.8-2.3-1.1-6-1-11.1c0.2-5,0.8-10.1,2-15.1c1.1-5,2.5-8.6,4.2-10.6c1.1-1.4,2.3-2.5,3.6-3.5
	c1.3-0.9,2.7-1.6,4.1-2c1.5-0.4,2.9-0.4,4.3,0c4.1,1.1,6.5,3.8,7,7.9c0.4,2.8-0.1,5.9-1.4,9.4c-1.3,3.5-3.2,6.7-5.7,9.7
	C146,116,143.3,118.3,140.5,119.8z M141.2,110.4c1.8-1.5,3.2-3.7,4.2-6.5c1.1-2.8,1.4-5.4,1.1-7.6c-0.1-0.9-0.3-1.5-0.5-1.8
	c-0.2-0.3-0.5-0.4-0.9-0.4s-0.8,0.6-1.2,1.5s-0.7,1.9-0.9,2.8C142.4,101.4,141.7,105.4,141.2,110.4z"/>
<path class="st0" d="M172.4,90.1c0.8-1.6,2.6-4.7,4.5-5.8s5.9-2.3,8.5,0.2c3.3,3.1-1.1,13.6-1.4,13.8c-0.3,0.2-1.7,0.5-2,0.4
	c-0.3-0.1,1.7-5.4-2.6-5c-4.3,0.4-8.5,5.4-8.8,10.7l-2.5,20.6c-0.2,1.2-0.9,1.9-2.1,2l-6.4,0.9c-1.4,0.2-2.1-0.3-2-1.6l5-40.4
	c0.2-1.2,0.9-1.9,2.2-2.1l6.4-0.9c1.4-0.2,2.1,0.3,2,1.6L172.4,90.1z"/>
</svg>
