<svg xmlns="http://www.w3.org/2000/svg" version="1.1" x="0" y="0" viewBox="0 0 267 214" xml:space="preserve"><style type="text/css">
	.st0{fill:#E24C32;}
	.st1{fill:none;stroke:#FFFFFF;stroke-width:0.5;stroke-miterlimit:10;}
</style><path d="M86.5 165.9L83 186.6l-3.4 0.4 -5.5-12.2 -0.7-2.5 -0.1 0 -0.1 2.6L70.7 188l-3.4 0.4 -8.2-19.3 3.1-0.4 5.9 14.1 0.6 2.2 0.1 0 0.1-2.3 2.7-15.1 2.4-0.3 6.2 14.1 0.6 2.2 0.1 0 0-2.3 2.5-15.1L86.5 165.9z"/><path d="M108.5 174.8l-16.2 1.9 0.4 0.3c0.9 3.6 3.3 5.6 7.4 5.1 2.2-0.3 4-1.2 5.2-2.8l2.3 1.8c-1.7 2.1-4.2 3.5-7.2 3.8 -6.6 0.8-10.2-3.2-10.9-9 -0.7-6.1 2.3-10.9 8.3-11.6 6.3-0.8 9.9 3.3 10.6 9.4C108.5 174.1 108.5 174.3 108.5 174.8zM105.6 172.4l-0.4-0.3c-0.9-3.4-3.1-5.6-7.1-5.1 -4 0.5-5.7 3.3-5.8 6.6l-0.3 0.4L105.6 172.4z"/><path d="M130.5 172.2l-16.2 1.9 0.4 0.3c0.9 3.6 3.3 5.6 7.4 5.1 2.2-0.3 4-1.2 5.2-2.8l2.3 1.8c-1.7 2.1-4.2 3.5-7.2 3.8 -6.6 0.8-10.2-3.2-10.9-9 -0.7-6.1 2.3-10.9 8.3-11.6 6.3-0.8 9.9 3.3 10.6 9.4C130.5 171.4 130.5 171.7 130.5 172.2zM127.6 169.8l-0.4-0.3c-0.9-3.4-3.1-5.6-7.1-5.1 -4 0.5-5.7 3.3-5.8 6.6l-0.3 0.4L127.6 169.8z"/><path d="M138.7 180l-2.9 0.3 -3.2-26.7 2.9-0.3L138.7 180zM153.1 178.3l-4.1 0.5 -11.2-9.1 8.3-10.8 4.1-0.5 -8.7 10.9 0 0.1L153.1 178.3z"/><path d="M172.3 167.2l-16.2 1.9 0.4 0.3c0.9 3.6 3.3 5.6 7.4 5.1 2.2-0.3 4-1.2 5.2-2.8l2.3 1.8c-1.7 2.1-4.2 3.5-7.2 3.8 -6.6 0.8-10.2-3.2-10.9-9 -0.7-6.1 2.3-10.9 8.3-11.6 6.3-0.7 9.9 3.3 10.6 9.4C172.2 166.5 172.2 166.8 172.3 167.2zM169.3 164.8l-0.4-0.3c-0.9-3.4-3.1-5.6-7.1-5.1 -4 0.5-5.7 3.3-5.8 6.6l-0.3 0.4L169.3 164.8z"/><path d="M195.1 173.3l-2.9 0.3 -1.4-12.1c-0.4-3.2-1.6-5.3-6.2-4.7 -3.4 0.4-5.9 2.6-5.5 6.4l1.4 11.9 -2.9 0.3 -2.4-20 2.9-0.3 0.3 2.5 0.1 0c1.2-1.9 3.5-3.3 6.1-3.6 5.3-0.6 8.5 1.7 9.1 6.6L195.1 173.3z"/><path d="M217.7 170.6l-2.9 0.3 -0.3-2.3 -0.1 0c-1.2 1.9-3.2 3.1-5.9 3.4 -6.3 0.7-9.8-3.2-10.5-9.1 -0.7-6 1.8-10.8 8-11.6 2.6-0.3 5 0.5 6.6 2l0.1 0 -1.1-9.1 2.9-0.3L217.7 170.6zM206.5 154.2c-4.6 0.5-6.1 4.2-5.6 8.4s2.7 7.2 7.4 6.7c4.7-0.6 6.1-4 5.6-8.2C213.3 156.8 211.2 153.6 206.5 154.2z"/><polygon class="st0" points="102 51.6 119.8 46.2 119.8 49.3 135.6 48.6 116 53.5 117.1 48.8 "/><polygon class="st0" points="103.7 56.9 115.1 61.8 113.2 62.7 122.8 67.9 109 62.5 112.1 61.4 "/><polygon class="st0" points="101.2 43.8 107.5 35.4 108.4 37.2 115.8 30.7 108 40.2 107.1 37.8 "/><path class="st0" d="M229.2 117.4c-0.7-3.1-3.4-1.6-3.4-1.6s-4.2 4.1-8.2 4.2c-4.1 0.1-3.9-9-3.9-9s-0.1-8.3-2.6-8.7c-2.5-0.4-5 2.8-5 2.8s-3.1 4.5-4.3 9.8l-0.5 0.2c0 0-0.5-9-1.4-11 -0.6-1-4.9-0.4-5.4 1.5 -0.5 1.9-2.4 14.9-2 20.2 0 0-6.1 6.6-11.9 8.2 -5.8 1.7-7.7-1.9-7.7-1.9s15.6-6.4 13.5-19.2c-2.1-12.7-14-6.5-15.3-5.3 -1.2 1.2-8 6.4-8.6 18.8 0 0.4 0.1 2.2 0.1 2.2s-5.7 4.9-9.1 6.4c0 0 7.7-17.5-5-23.4 -5.8-2.6-9.2 4.7-9.2 4.7s13.9-19.7 8.5-34.3c-2.6-6.9-6.2-7.3-9.4-5.7 -4.8 2.6-6.3 5.7-6.3 5.7s-5.3 10.1-5.2 24.2c0.2 14.1 0 31.2 0 31.2s-2.7 3.4-5.5 3.9c-2.8 0.5-2.6-8.2-2.6-8.2s0.6-13.3 0.2-15.5c-0.4-2.2-0.7-3.3-3.4-3.8 -2.7-0.5-5.1 3.2-5.1 3.2s-6.1 12.2-6.6 14l-0.3 0.8 -0.5-0.4c0 0 3.4-16.1-1.7-15.7 -5.1 0.4-7.7 6.5-7.7 6.5s-4.6 10.3-4.7 11.4l-0.5-0.4c0 0 1-11.5 0.2-14.1 -0.8-2.7-3.3-1.8-3.3-1.8s-3.4 0-4 2.2c-0.6 2.2-2.1 16.7-1.9 21.2 0 0-7.6 6.9-13 7.6 -5.4 0.7-5.3-2.8-5.3-2.8s19.2-9.2 12.1-22c-2.9-3.2-5.8-3.9-9.9-3.3 -4 0.6-8.7 3.6-11 11.2 -1.1 3.6-1.2 7-1.2 9.5l0 0c0 0-3.5 1.1-5.6-0.2 -2.1-1.3-2.9 0.4-2.9 0.4s-2.7 4.9 0.7 5.7c3.4 0.9 8.6 1.2 8.6 1.2h0c0.6 1 2.5 5.4 6.8 7.9 6.5 3.8 17.2-2.7 17.2-2.7l4.3-3.3c0 0 0.7 4.2 4.1 4.4 3.5 0.2 4.8-0.6 9-15.6 2.6-7.7 2.9-7.4 2.9-7.4l0.4-0.1c0 0-1 14.3 0.5 18 1.5 3.6 5.9 2.7 5.9 2.7s2.7 1.5 3.8-5.6c1.1-7.2 4.2-13.9 4.2-13.9l0.5-0.1c0 0-0.1 13.2 3 17.4 3.1 4.3 9.2-0.2 9.2-0.2s4.3-3.2 4.9-4c0 0 6 3.8 13.6 2 16.7-5.4 22.3-10.8 22.3-10.8s3.8 7 13.1 6.6c10.5-0.5 15.4-7.7 15.4-7.7s0.4 4.2 4.3 5.3c3.8 1.1 5.5-5.6 5.5-5.6l4.3-15.4 0.6-0.1c0 0 1.4 8.8 7.6 9.8 6.2 1 13.2-6.7 13.2-6.7S229.9 120.5 229.2 117.4zM59.4 139.5c-0.9-9.4 4.8-14.2 7.2-12.4 2.4 1.8 2.1 6.3-1.6 9.5C61.3 139.9 59.4 139.5 59.4 139.5zM135.2 93.6c0 0 3.9-15.2 6.1-8.3 2.2 6.9-8.4 29.6-8.4 29.6C132.5 110.1 135.2 93.6 135.2 93.6zM146.9 133.3c-2.5 10.1-12 7.3-12 7.3s-1.4-3.3 0.3-13.4c1.8-10 9.1-7.1 9.1-7.1S149.4 123.1 146.9 133.3zM171.2 126c0 0-1.2-3 1.3-9.3 2.5-6.3 5.4-3.4 5.4-3.4s3.1 2.7 0.5 7.5C175.9 125.8 171.2 126 171.2 126z"/><path class="st0" d="M150.7 79.1c0 0 26.3 9.1 33.8 7.9s36.8-13.4 40.8-12.5c9.2 2 14.8 13.9 16.3 30.9s-1.5 65.1-7.3 71.3 -72.8 20.8-92.2 22.5 -72.2-1.5-83.3-1.8c-11.1-0.3-21.5-6.7-24.5-21.2s-7.5-32.3-7.9-43.6S24 99.5 31.2 92.2s55.2 9.2 55.2 9.2l-3.3-14.1 3.9-1 2.4 18.8c0 0-48.8-12.2-53.3-6.2s-4.3 20.9-3.7 33.2c0.7 12.2 4.4 34.7 8.9 48.6 4.8 14.8 9.9 13 17.8 13.8 7.9 0.8 46.2 2.9 83.3-0.9s80.8-11.4 88-18.7 8.9-54.5 6.5-68.7 -7.8-26.6-12.3-26.9c-4.5-0.3-26.5 11.2-39 12.5s-32.5-6-32.5-6L150.7 79.1z"/><path class="st1" d="M110.4 97.6"/><path class="st1" d="M104.7 91.3"/><path class="st0" d="M97.5 48.4c-1-1.5-2.4-2.5-4.1-2.9 -0.2 0-0.3-0.1-0.5-0.1l2 12.4c1.8-0.9 3.1-2.5 3.6-4.5C98.8 51.7 98.5 49.9 97.5 48.4z"/><path class="st0" d="M71.6 89.8c-0.7 0-1.5-0.1-2.4-0.4 -2.3-0.6-3.7-1.5-4.4-2.8 -0.8-1.8 0.1-3.8 0.8-5.4 0.2-0.5 0.4-0.9 0.6-1.3 0.3-1 0.1-2.2-4.1-3.9 -2.2-0.8-2.2-1.5-1.8-2.8 0.1-0.2 0.1-0.4 0.2-0.6 0.2-0.9 1.9-6.6 3.5-11.7 -0.1 0-0.3 0-0.4-0.1 -1-0.2-1.8-0.6-2.6-1.1 -1.6 5.4-3.4 11.7-3.6 12.5 -0.4 1.8 1 3.2 4.2 4.3 1.3 0.4 1.9 0.8 2.1 1.4 0.3 0.7-0.1 1.5-0.6 2.5 -0.3 0.6-0.6 1.3-1 2.3 -0.5 1.3-0.5 2.4 0 3.3 0.8 1.6 3.2 2.8 7.1 3.9 1.6 0.4 3 0.6 4.2 0.6 3.6 0 5-1.8 5.8-3.9l-2.8-1.3C75.7 87.3 75 89.8 71.6 89.8z"/><path class="st0" d="M63.6 59.7c0.5 0.1 1 0.2 1.6 0.2 3.4 0 6.4-2.4 7.1-5.8 0.4-1.9 0.1-3.9-1-5.5 -1.1-1.6-2.7-2.8-4.6-3.2 -0.5-0.1-1-0.2-1.6-0.2 -3.4 0-6.4 2.4-7.1 5.8C57.2 55 59.7 58.9 63.6 59.7z"/><path class="st0" d="M88.6 25.2C87.6 18.8 82 14 75.5 14c-0.7 0-1.4 0.1-2.1 0.2l-3.5 0.6c-7.2 1.2-12.1 8-11 15.2l2.5 15.2c1.1-0.6 2.4-0.9 3.8-0.9 0.6 0 1.2 0.1 1.8 0.2 2.2 0.5 4 1.8 5.2 3.6 1.2 1.9 1.6 4.1 1.1 6.3 -0.8 3.8-4.2 6.6-8.1 6.6 -0.1 0-0.2 0-0.3 0 -0.2 0.7-0.4 1.3-0.6 2l1.6 9.8c1 6.3 6.4 11 12.8 11.1l0.4 0 0.1 0.4c0.2 1 1.1 1.6 2.7 1.6 0.8 0 1.7-0.1 2.7-0.4 4.2-1 4.7-1.8 4.4-3.4l-0.1-0.3 0.3-0.2c4.7-2.8 7.2-8.2 6.4-13.5L88.6 25.2zM87.6 50.4c0.3-0.1 0.7 0.6 0.8 1.4s0 1.5-0.3 1.6c-0.3 0.1-0.7-0.6-0.8-1.4S87.3 50.4 87.6 50.4zM86.5 41.7c0.3-0.1 0.7 0.6 0.8 1.4s0 1.5-0.3 1.6c-0.3 0.1-0.7-0.6-0.8-1.4C86.1 42.4 86.2 41.7 86.5 41.7zM85.3 46.3c0.4-0.1 0.8 0.6 1 1.4 0.2 0.9 0 1.6-0.4 1.7 -0.4 0.1-0.8-0.6-1-1.4S84.9 46.4 85.3 46.3zM84.4 40.2c-0.4 0.1-0.8-0.6-1-1.4s0-1.6 0.4-1.7 0.8 0.6 1 1.4C85 39.4 84.8 40.1 84.4 40.2zM85 32.5c0.3-0.1 0.7 0.6 0.8 1.4 0.2 0.8 0 1.5-0.3 1.6 -0.3 0.1-0.7-0.6-0.8-1.4S84.7 32.5 85 32.5zM83.5 23.8c0.3-0.1 0.7 0.5 0.9 1.3s0.1 1.5-0.2 1.6c-0.3 0.1-0.7-0.5-0.9-1.3S83.2 23.8 83.5 23.8zM82.3 28.4c0.4-0.1 0.8 0.6 1 1.4s0 1.6-0.4 1.7c-0.4 0.1-0.8-0.6-1-1.4C81.8 29.2 81.9 28.4 82.3 28.4zM82.8 45.2c-0.4 0.1-0.8-0.6-1-1.4s0-1.6 0.4-1.7 0.8 0.6 1 1.4C83.4 44.3 83.2 45.1 82.8 45.2zM80.8 32.9c0.4-0.1 0.8 0.6 1 1.4 0.2 0.9 0 1.6-0.4 1.7 -0.4 0.1-0.8-0.6-1-1.4S80.4 33 80.8 32.9zM79.2 24.1c0.4-0.1 0.9 0.6 1 1.4 0.2 0.9 0 1.6-0.4 1.7s-0.9-0.6-1-1.4C78.6 25 78.8 24.2 79.2 24.1zM76.3 31.1c-0.2-0.9-0.1-1.8 0.4-2 0.5-0.2 1.1 0.5 1.3 1.5 0.2 0.9-0.1 1.6-0.6 1.7C76.9 32.4 76.5 31.9 76.3 31.1zM78.5 41.2c-0.4 0.1-0.9-0.5-1-1.3 -0.2-0.9-0.1-1.8 0.4-2 0.5-0.2 1.1 0.5 1.2 1.5C79.2 40.4 78.9 41.1 78.5 41.2zM78.8 49c-0.2-0.9-0.1-1.8 0.4-2 0.5-0.2 1.1 0.5 1.2 1.5 0.1 0.9-0.1 1.6-0.6 1.7C79.4 50.3 79 49.8 78.8 49zM81.1 59c-0.4 0.1-0.8-0.5-1-1.3 -0.2-0.9-0.1-1.8 0.4-2 0.5-0.2 1 0.5 1.2 1.6C81.7 58.2 81.5 58.9 81.1 59zM82.7 68.5c-0.4 0.1-0.8-0.5-1-1.3 -0.2-0.9-0.1-1.8 0.4-2 0.5-0.2 1 0.5 1.2 1.6C83.3 67.8 83.1 68.5 82.7 68.5zM83.9 53.9c-0.4 0.1-0.8-0.6-1-1.4 -0.2-0.9 0-1.6 0.4-1.7 0.4-0.1 0.8 0.6 1 1.4S84.3 53.8 83.9 53.9zM85.2 62.9c-0.4 0.1-0.8-0.6-1-1.4s0-1.6 0.4-1.7c0.4-0.1 0.8 0.6 1 1.4C85.8 62.1 85.6 62.8 85.2 62.9zM86.8 72.5c-0.4 0.1-0.8-0.6-1-1.4 -0.2-0.9 0-1.6 0.4-1.7s0.8 0.6 1 1.4S87.2 72.4 86.8 72.5zM87 58.1c-0.4 0.1-0.8-0.6-1-1.4s0-1.6 0.4-1.7 0.8 0.6 1 1.4C87.6 57.3 87.4 58 87 58.1zM88.6 67.6c-0.4 0.1-0.8-0.6-1-1.4s0-1.6 0.4-1.7 0.8 0.6 1 1.4C89.2 66.8 89 67.5 88.6 67.6zM89.5 62.3c-0.3 0.1-0.7-0.6-0.8-1.4 -0.2-0.8 0-1.5 0.3-1.6 0.3-0.1 0.7 0.6 0.8 1.4S89.8 62.3 89.5 62.3zM91.4 71.5c-0.3 0.1-0.7-0.6-0.8-1.4 -0.2-0.8 0-1.5 0.3-1.6 0.3-0.1 0.7 0.6 0.8 1.4C91.8 70.8 91.7 71.5 91.4 71.5z"/><path class="st0" d="M110.8 88.2l-0.3 0.3c0.5 0.8 1.1 1.7 1.9 2.8 0.8 1.1 1.6 2.1 2.2 2.9l0.4-0.3c-0.7-0.8-1.5-1.8-2.3-3C111.9 89.8 111.3 88.9 110.8 88.2z"/><path class="st0" d="M110.1 88.8l-0.4 0.3c0.5 0.8 1.1 1.7 1.9 2.8 0.8 1.1 1.6 2.1 2.3 2.9l0.3-0.2c-0.7-0.8-1.4-1.7-2.2-2.9C111.2 90.5 110.6 89.5 110.1 88.8z"/><path class="st0" d="M103.1 94.2c-0.7 0.9-1 2.1-0.7 3.2l-5.6 4.5c0.2 0.4 0.4 0.8 0.6 1.1 0.3 0.4 0.7 0.7 1.1 1l5.6-4.5c0.9 0.5 2.1 0.6 3.1 0.2 -0.6-0.7-1.3-1.6-2.1-2.6C104.2 96 103.5 95 103.1 94.2z"/><path class="st0" d="M109.3 89.3l-5.7 4.3c-0.1 0.1-0.1 0.1-0.2 0.2 0.5 0.8 1.1 1.8 2 3 0.8 1.1 1.5 2 2.1 2.7 0.1-0.1 0.2-0.1 0.3-0.2l5.6-4.3c-0.7-0.8-1.4-1.7-2.3-2.9C110.4 91.1 109.8 90.1 109.3 89.3z"/><path class="st0" d="M116.6 86.9c-0.7 0.3-2.7 0.3-3.8 0.5 -0.5 0-1.1 0.2-1.6 0.5 0.5 0.7 1 1.6 1.8 2.7 0.9 1.2 1.7 2.2 2.3 3 0.6-0.5 0.9-1.1 1.1-1.8 0.5-1.2 1.1-2.6 1.5-3 1-1.3 8.4-3.7 8.4-3.7l3.4-6.9C129.8 78.1 118.4 86.2 116.6 86.9z"/><path class="st0" d="M96.9 103.3c-0.2-0.3-0.4-0.7-0.6-1.1l-0.3 0.3c-0.4 0.3-0.8 2.4-0.8 2.4s2 0.1 2.5-0.3l0.3-0.3C97.6 104.1 97.2 103.7 96.9 103.3z"/><path class="st1" d="M111.3 102.8"/><path class="st1" d="M102 89.7"/></svg>