<?xml version="1.0" encoding="utf-8"?>
<!-- Generator: Adobe Illustrator 18.1.1, SVG Export Plug-In . SVG Version: 6.00 Build 0)  -->
<!DOCTYPE svg PUBLIC "-//W3C//DTD SVG 1.1//EN" "http://www.w3.org/Graphics/SVG/1.1/DTD/svg11.dtd">
<svg version="1.1" xmlns="http://www.w3.org/2000/svg" xmlns:xlink="http://www.w3.org/1999/xlink" x="0px" y="0px" width="172px"
	 height="78.7px" viewBox="0 0 172 78.7" enable-background="new 0 0 172 78.7" xml:space="preserve">
<g id="Layer_2" display="none">
	<rect x="-10.6" y="-9.3" display="inline" width="193.1" height="110.8"/>
</g>
<g id="reversed_1_" display="none">
	<g display="inline">
		<path fill="#F5F5F5" d="M11.1,78.6v-8.7H4.1v8.7H0V57.7h4.1v8.5h7.1v-8.5h4.1v20.9H11.1z"/>
		<path fill="#F5F5F5" d="M31.2,78.6L30,74.9h-7.4l-1.3,3.7H17l7.6-20.9h3.2l7.6,20.9H31.2z M26.3,63.9l-2.6,7.6h5.2L26.3,63.9z"/>
		<path fill="#F5F5F5" d="M43.7,78.7c-3.2,0-5.6-0.7-7.6-2.8l2.6-2.6c1.3,1.3,3.1,1.8,5,1.8c2.4,0,3.7-0.9,3.7-2.6
			c0-0.7-0.2-1.3-0.6-1.8c-0.4-0.4-0.9-0.6-1.8-0.7l-2.5-0.4c-1.8-0.3-3.1-0.8-4-1.7c-1-1-1.5-2.3-1.5-4.1c0-3.7,2.8-6.3,7.3-6.3
			c2.9,0,4.9,0.7,6.7,2.4l-2.6,2.5c-1.3-1.3-2.9-1.4-4.3-1.4c-2.2,0-3.2,1.2-3.2,2.6c0,0.5,0.2,1.1,0.6,1.5c0.4,0.4,1.1,0.7,1.9,0.8
			l2.5,0.4c1.9,0.3,3.1,0.8,4,1.6c1.1,1.1,1.6,2.6,1.6,4.4C51.5,76.5,48.1,78.7,43.7,78.7z"/>
		<path fill="#F5F5F5" d="M64.5,78.6v-8.7h-7.1v8.7h-4.1V57.7h4.1v8.5h7.1v-8.5h4.1v20.9H64.5z"/>
		<path fill="#F5F5F5" d="M82.5,78.6l-4.1-8.3h-2.9v8.3h-4.1V57.7h8.2c4.2,0,6.8,2.9,6.8,6.4c0,2.9-1.8,4.7-3.8,5.5l4.7,9H82.5z
			 M79.3,61.3h-3.8v5.5h3.8c1.8,0,3-1.1,3-2.8C82.3,62.5,81.1,61.3,79.3,61.3z"/>
		<path fill="#F5F5F5" d="M101.4,76.5c-1.5,1.5-3.3,2.3-5.6,2.3c-2.4,0-4.2-0.8-5.7-2.3c-2.1-2.1-2-4.7-2-8.3c0-3.6-0.1-6.2,2-8.3
			c1.5-1.5,3.3-2.3,5.7-2.3c2.4,0,4.2,0.8,5.6,2.3c2.1,2.1,2.1,4.7,2.1,8.3C103.5,71.7,103.5,74.3,101.4,76.5z M98.4,62.3
			c-0.6-0.7-1.5-1.1-2.6-1.1c-1.1,0-2,0.4-2.6,1.1c-0.8,0.9-1,1.8-1,5.9c0,4,0.2,5,1,5.9c0.6,0.7,1.5,1.1,2.6,1.1
			c1.1,0,2-0.4,2.6-1.1c0.8-0.9,1-1.8,1-5.9C99.4,64.1,99.2,63.2,98.4,62.3z"/>
		<path fill="#F5F5F5" d="M113.2,78.7c-2.2,0-4.1-0.8-5.6-2.3c-0.9-0.9-1.5-2-1.7-3.1c-0.2-1.2-0.4-2.9-0.4-5.2c0-2.3,0.1-4,0.4-5.2
			c0.2-1.2,0.8-2.2,1.7-3.1c1.5-1.5,3.4-2.3,5.6-2.3c4,0,7,2.3,7.7,6.6h-4.1c-0.4-1.8-1.6-3-3.5-3c-1.1,0-2,0.4-2.6,1.1
			c-0.8,0.9-1,1.8-1,5.9c0,4,0.2,5,1,5.9c0.6,0.7,1.5,1.1,2.6,1.1c2,0,3.1-1.2,3.5-3h4.1C120.1,76.4,117.1,78.7,113.2,78.7z"/>
		<path fill="#F5F5F5" d="M135,78.6l-5.4-9.5l-2.7,3.2v6.3h-4.1V57.7h4.1v9.1l7.4-9.1h5l-6.9,8.3l7.4,12.6H135z"/>
		<path fill="#F5F5F5" d="M141.6,78.6V57.7h13.7v3.6h-9.7v4.9h8.2v3.6h-8.2v5.1h9.7v3.6H141.6z"/>
		<path fill="#F5F5F5" d="M166.6,61.3v17.2h-4.1V61.3h-5.4v-3.6h15v3.6H166.6z"/>
	</g>
	<g display="inline">
		<path fill="#4D4D4D" d="M26,91.3v-7.4h4.7v1h-3.6v2.2h3.1v1h-3.1v2.2h3.6v1H26z"/>
		<path fill="#4D4D4D" d="M36.1,91.3l-1.6-2.8l-1.6,2.8h-1.3l2.3-3.8l-2.1-3.6h1.3l1.5,2.6l1.5-2.6h1.3l-2.1,3.6l2.3,3.8H36.1z"/>
		<path fill="#4D4D4D" d="M41.3,88.4h-1.7v2.9h-1.1v-7.4h2.8c1.4,0,2.4,1,2.4,2.2C43.6,87.5,42.7,88.4,41.3,88.4z M41.2,84.9h-1.6
			v2.5h1.6c0.8,0,1.3-0.4,1.3-1.2C42.5,85.4,42,84.9,41.2,84.9z"/>
		<path fill="#4D4D4D" d="M44.7,91.3v-7.4h4.7v1h-3.6v2.2h3.1v1h-3.1v2.2h3.6v1H44.7z"/>
		<path fill="#4D4D4D" d="M55.1,91.3l-1.6-3.1h-1.4v3.1H51v-7.4h2.9c1.4,0,2.3,0.9,2.3,2.2c0,1.1-0.6,1.7-1.5,2l1.7,3.3H55.1z
			 M53.8,84.9h-1.7v2.3h1.7c0.7,0,1.3-0.4,1.3-1.2C55.1,85.4,54.5,84.9,53.8,84.9z"/>
		<path fill="#4D4D4D" d="M60.1,84.9v6.4H59v-6.4h-2v-1h5.2v1H60.1z"/>
		<path fill="#4D4D4D" d="M63.5,91.3v-7.4h1.1v6.4h3.6v1H63.5z"/>
		<path fill="#4D4D4D" d="M70.8,88.3v3h-1.1v-3l-2.2-4.3h1.2l1.5,3.2l1.5-3.2H73L70.8,88.3z"/>
		<path fill="#4D4D4D" d="M80.5,91.4c-0.8,0-1.4-0.3-1.9-0.8c-0.7-0.7-0.7-1.5-0.7-3c0-1.4,0-2.2,0.7-3c0.5-0.5,1.2-0.8,1.9-0.8
			c1.4,0,2.4,0.8,2.6,2.3H82c-0.2-0.7-0.7-1.3-1.5-1.3c-0.4,0-0.8,0.2-1.1,0.4c-0.4,0.4-0.4,0.8-0.4,2.3c0,1.5,0.1,1.9,0.4,2.3
			c0.3,0.3,0.7,0.4,1.1,0.4c0.8,0,1.3-0.5,1.5-1.3h1.1C82.9,90.6,81.9,91.4,80.5,91.4z"/>
		<path fill="#4D4D4D" d="M88.4,91.3l-1.6-3.1h-1.4v3.1h-1.1v-7.4h2.9c1.4,0,2.3,0.9,2.3,2.2c0,1.1-0.6,1.7-1.5,2l1.7,3.3H88.4z
			 M87.1,84.9h-1.7v2.3h1.7c0.7,0,1.3-0.4,1.3-1.2C88.3,85.4,87.8,84.9,87.1,84.9z"/>
		<path fill="#4D4D4D" d="M95.5,91.3L95,89.8h-2.9l-0.5,1.5h-1.2l2.7-7.4H94l2.7,7.4H95.5z M93.6,85.6l-1.1,3.3h2.3L93.6,85.6z"/>
		<path fill="#4D4D4D" d="M98.6,84.9v2.2h3.1v1h-3.1v3.1h-1.1v-7.4h4.7v1H98.6z"/>
		<path fill="#4D4D4D" d="M106.3,84.9v6.4h-1.1v-6.4h-2v-1h5.2v1H106.3z"/>
		<path fill="#4D4D4D" d="M109.3,91.3v-7.4h4.7v1h-3.6v2.2h3.1v1h-3.1v2.2h3.6v1H109.3z"/>
		<path fill="#4D4D4D" d="M119.6,90.6c-0.5,0.5-1.1,0.7-1.9,0.7h-2.6v-7.4h2.6c0.8,0,1.4,0.2,1.9,0.7c0.8,0.8,0.7,1.9,0.7,2.9
			C120.4,88.6,120.4,89.8,119.6,90.6z M118.9,85.4c-0.3-0.3-0.7-0.5-1.3-0.5h-1.4v5.4h1.4c0.5,0,0.9-0.2,1.3-0.5
			c0.4-0.4,0.4-1.2,0.4-2.2C119.3,86.6,119.3,85.9,118.9,85.4z"/>
		<path fill="#4D4D4D" d="M131.9,91.3h-1l-1.5-5.2l-1.5,5.2h-1l-1.9-7.4h1.2l1.3,5.3l1.5-5.3h0.9l1.5,5.3l1.3-5.3h1.2L131.9,91.3z"
			/>
		<path fill="#4D4D4D" d="M135,91.3v-7.4h4.7v1h-3.6v2.2h3.1v1h-3.1v2.2h3.6v1H135z"/>
		<path fill="#4D4D4D" d="M143.8,91.3h-3v-7.4h2.9c1.4,0,2.2,0.8,2.2,2c0,0.8-0.5,1.4-1,1.6c0.6,0.2,1.1,0.8,1.1,1.7
			C146,90.6,145.1,91.3,143.8,91.3z M143.6,84.9H142V87h1.7c0.7,0,1.2-0.4,1.2-1.1C144.8,85.3,144.3,84.9,143.6,84.9z M143.7,88.1
			H142v2.2h1.8c0.8,0,1.2-0.5,1.2-1.1C144.9,88.5,144.5,88.1,143.7,88.1z"/>
	</g>
	<g display="inline">
		<g>
			<path fill="#FFFFFF" d="M72,0l-0.3,0.3l-8.3,8.3l-0.6,0.6l0.6,0.7l3.7,4.5l-4.9,7.2l-0.6,0.8l0.8,0.6l6.9,4.5l-2.1,15.3l-0.2,1.3
				l1.3-0.2l15.3-2.1l4.5,6.9l0.6,0.8l0.8-0.6l7.2-4.9l4.5,3.7l0.7,0.6l0.6-0.6l8.3-8.3l0.3-0.3v-0.4V1V0h-1L72.4,0H72L72,0z"/>
		</g>
		<path fill="#AE1E26" d="M72.4,1l-8.3,8.3l4.2,5.1L63,22.2l7.4,4.9L68.2,43l15.9-2.2l4.9,7.4l7.9-5.4l5.1,4.2l8.3-8.3V1L72.4,1z
			 M75.6,25.7l9.3-9.3l3.8,3.8l-9.3,9.3L75.6,25.7z M85.6,35.6l-3.8-3.8l9.3-9.3l3.8,3.8L85.6,35.6z M96.9,30.6V14.3l-16.2,0l0-5.1
			H102v21.3L96.9,30.6z"/>
	</g>
</g>
<g id="normal">
	<g>
		<path d="M11.1,78.6v-8.7H4.1v8.7H0V57.7h4.1v8.5h7.1v-8.5h4.1v20.9H11.1z"/>
		<path d="M31.2,78.6L30,74.9h-7.4l-1.3,3.7H17l7.6-20.9h3.2l7.6,20.9H31.2z M26.3,63.9l-2.6,7.6h5.2L26.3,63.9z"/>
		<path d="M43.7,78.7c-3.2,0-5.6-0.7-7.6-2.8l2.6-2.6c1.3,1.3,3.1,1.8,5,1.8c2.4,0,3.7-0.9,3.7-2.6c0-0.7-0.2-1.3-0.6-1.8
			c-0.4-0.4-0.9-0.6-1.8-0.7l-2.5-0.4c-1.8-0.3-3.1-0.8-4-1.7c-1-1-1.5-2.3-1.5-4.1c0-3.7,2.8-6.3,7.3-6.3c2.9,0,4.9,0.7,6.7,2.4
			l-2.6,2.5c-1.3-1.3-2.9-1.4-4.3-1.4c-2.2,0-3.2,1.2-3.2,2.6c0,0.5,0.2,1.1,0.6,1.5c0.4,0.4,1.1,0.7,1.9,0.8l2.5,0.4
			c1.9,0.3,3.1,0.8,4,1.6c1.1,1.1,1.6,2.6,1.6,4.4C51.5,76.5,48.1,78.7,43.7,78.7z"/>
		<path d="M64.5,78.6v-8.7h-7.1v8.7h-4.1V57.7h4.1v8.5h7.1v-8.5h4.1v20.9H64.5z"/>
		<path d="M82.5,78.6l-4.1-8.3h-2.9v8.3h-4.1V57.7h8.2c4.2,0,6.8,2.9,6.8,6.4c0,2.9-1.8,4.7-3.8,5.5l4.7,9H82.5z M79.3,61.3h-3.8
			v5.5h3.8c1.8,0,3-1.1,3-2.8C82.3,62.5,81.1,61.3,79.3,61.3z"/>
		<path d="M101.4,76.5c-1.5,1.5-3.3,2.3-5.6,2.3c-2.4,0-4.2-0.8-5.7-2.3c-2.1-2.1-2-4.7-2-8.3c0-3.6-0.1-6.2,2-8.3
			c1.5-1.5,3.3-2.3,5.7-2.3c2.4,0,4.2,0.8,5.6,2.3c2.1,2.1,2.1,4.7,2.1,8.3C103.5,71.7,103.5,74.3,101.4,76.5z M98.4,62.3
			c-0.6-0.7-1.5-1.1-2.6-1.1c-1.1,0-2,0.4-2.6,1.1c-0.8,0.9-1,1.8-1,5.9c0,4,0.2,5,1,5.9c0.6,0.7,1.5,1.1,2.6,1.1
			c1.1,0,2-0.4,2.6-1.1c0.8-0.9,1-1.8,1-5.9C99.4,64.1,99.2,63.2,98.4,62.3z"/>
		<path d="M113.2,78.7c-2.2,0-4.1-0.8-5.6-2.3c-0.9-0.9-1.5-2-1.7-3.1c-0.2-1.2-0.4-2.9-0.4-5.2c0-2.3,0.1-4,0.4-5.2
			c0.2-1.2,0.8-2.2,1.7-3.1c1.5-1.5,3.4-2.3,5.6-2.3c4,0,7,2.3,7.7,6.6h-4.1c-0.4-1.8-1.6-3-3.5-3c-1.1,0-2,0.4-2.6,1.1
			c-0.8,0.9-1,1.8-1,5.9c0,4,0.2,5,1,5.9c0.6,0.7,1.5,1.1,2.6,1.1c2,0,3.1-1.2,3.5-3h4.1C120.1,76.4,117.1,78.7,113.2,78.7z"/>
		<path d="M135,78.6l-5.4-9.5l-2.7,3.2v6.3h-4.1V57.7h4.1v9.1l7.4-9.1h5l-6.9,8.3l7.4,12.6H135z"/>
		<path d="M141.6,78.6V57.7h13.7v3.6h-9.7v4.9h8.2v3.6h-8.2v5.1h9.7v3.6H141.6z"/>
		<path d="M166.6,61.3v17.2h-4.1V61.3h-5.4v-3.6h15v3.6H166.6z"/>
	</g>
	<g>
		<g>
			<path fill="#FFFFFF" d="M72,0l-0.3,0.3l-8.3,8.3l-0.6,0.6l0.6,0.7l3.7,4.5l-4.9,7.2l-0.6,0.8l0.8,0.6l6.9,4.5l-2.1,15.3l-0.2,1.3
				l1.3-0.2l15.3-2.1l4.5,6.9l0.6,0.8l0.8-0.6l7.2-4.9l4.5,3.7l0.7,0.6l0.6-0.6l8.3-8.3l0.3-0.3v-0.4V1V0h-1L72.4,0H72L72,0z"/>
		</g>
		<path fill="#AE1E26" d="M72.4,1l-8.3,8.3l4.2,5.1L63,22.2l7.4,4.9L68.2,43l15.9-2.2l4.9,7.4l7.9-5.4l5.1,4.2l8.3-8.3V1L72.4,1z
			 M75.6,25.7l9.3-9.3l3.8,3.8l-9.3,9.3L75.6,25.7z M85.6,35.6l-3.8-3.8l9.3-9.3l3.8,3.8L85.6,35.6z M96.9,30.6V14.3l-16.2,0l0-5.1
			H102v21.3L96.9,30.6z"/>
	</g>
</g>
</svg>
