<?xml version="1.0" encoding="utf-8"?>
<!-- Generator: Adobe Illustrator 18.1.1, SVG Export Plug-In . SVG Version: 6.00 Build 0)  -->
<!DOCTYPE svg PUBLIC "-//W3C//DTD SVG 1.1//EN" "http://www.w3.org/Graphics/SVG/1.1/DTD/svg11.dtd">
<svg version="1.1" id="Layer_1" xmlns="http://www.w3.org/2000/svg" xmlns:xlink="http://www.w3.org/1999/xlink" x="0px" y="0px"
	 width="177.3px" height="127px" viewBox="0 0 177.3 127" enable-background="new 0 0 177.3 127" xml:space="preserve">
<g>
	<g>
		<path fill="#E24B31" d="M12.4,95.2c-1.7,0-3.1-0.3-4.4-0.9c-1.2-0.6-2.3-1.4-3.1-2.5c-0.8-1-1.5-2.3-1.9-3.6
			c-0.4-1.4-0.6-2.8-0.6-4.3c0-1,0.2-2.2,0.6-3.5c0.4-1.4,0.8-2.6,1.2-3.6c0.4-1.1,0.9-2.1,1.5-3c0.6-1,1.3-1.8,2.1-2.5
			c0.8-0.7,1.7-1.3,2.7-1.7c1-0.4,2.1-0.6,3.3-0.6c1,0,1.9,0.2,2.8,0.5s1.6,0.8,2.2,1.4c0.6,0.6,1.1,1.3,1.5,2.1
			c0.4,0.8,0.5,1.7,0.5,2.8c0,1.1-0.4,2.3-1.1,3.6c-0.7,1.3-1.6,2.5-2.5,3.5c-1,1-2.1,1.8-3.4,2.6c-1.3,0.8-2.8,1.3-4.3,1.8
			c0.3,0.5,0.5,0.9,0.8,1.2c0.3,0.3,0.5,0.6,0.8,0.7c0.3,0.2,0.6,0.3,0.8,0.4c0.3,0.1,0.6,0.1,1,0.1c1.1,0,2.2-0.2,3.4-0.6
			c1.2-0.4,2.3-0.9,3.5-1.6c1.1-0.6,2.2-1.3,3.2-2.1c1-0.7,1.8-1.4,2.5-2.1l3.5,3.5c-1.6,1.7-3.2,3.2-5,4.4
			c-0.8,0.6-1.6,1.1-2.5,1.6c-0.9,0.5-1.8,1-2.8,1.4c-1,0.4-2,0.7-3,1S13.5,95.2,12.4,95.2z M8.8,82.4c0.6,0,1.3-0.2,2.1-0.5
			s1.5-0.7,2.1-1.2c0.7-0.5,1.3-1.2,1.9-2c0.6-0.9,0.9-1.6,0.9-2.1c0-0.8-0.1-1.4-0.4-1.9c-0.3-0.5-0.7-0.8-1.1-0.8
			c-0.8,0-1.4,0.1-2,0.4c-0.5,0.3-1,0.6-1.4,1.1s-0.7,1-0.9,1.5c-0.2,0.6-0.5,1.3-0.8,2.1c-0.3,0.8-0.5,1.5-0.5,2.1S8.8,82,8.8,82.4
			z"/>
		<path fill="#E24B31" d="M34.7,90.3c0-0.2,0-0.6,0.1-1c0-0.4,0.1-0.9,0.2-1.5c0.1-0.6,0.2-1.1,0.2-1.8c0.1-0.6,0.2-1.2,0.3-1.8
			c0.2-1.4,0.4-3,0.7-4.6h-0.4c-0.2,0.3-0.5,0.7-0.7,1.2c-0.3,0.5-0.7,1.3-1.2,2.4c-0.5,1-1.1,2.4-1.9,4.1c-0.8,1.7-1.8,3.7-3,6.1
			c-0.4,0.7-0.8,1.2-1.2,1.4c-0.5,0.3-1,0.4-1.6,0.4c-0.7,0-1.3-0.2-1.8-0.5c-0.4-0.3-0.8-0.7-1-1.2s-0.4-1.1-0.5-1.7
			c-0.1-0.6-0.1-1.3-0.1-2c0-0.7,0-1.6,0.1-2.6c0.1-1,0.2-2.1,0.3-3.2c0.1-1.1,0.4-2.4,0.6-3.8c0.3-1.4,0.5-2.7,0.7-3.7
			c0.2-1.1,0.4-2,0.6-2.9c0.2-0.9,0.4-1.6,0.6-2.2c0.2-0.6,0.3-1,0.5-1.4c0.2-0.3,0.3-0.6,0.5-0.8c0.2-0.2,0.5-0.3,0.7-0.4
			c0.3-0.1,0.7-0.1,1.1-0.1c0.7,0,1.2,0,1.6,0.1c0.4,0,0.7,0.2,0.9,0.3c0.2,0.2,0.3,0.4,0.3,0.7c0,0.3,0.1,0.8,0.1,1.3
			c0,0.3,0,0.7,0,1.1s-0.1,0.8-0.1,1.3c0,0.5-0.1,0.9-0.2,1.4c-0.1,0.9-0.2,1.4-0.2,1.4c-0.2,1.2-0.5,2.6-0.8,4.1l0.3,0.3
			c0-0.1,0.3-0.5,0.7-1.4c0.4-0.9,0.9-1.8,1.4-2.7c0.5-0.9,1.1-1.8,1.6-2.8s1.2-1.8,1.7-2.6c0.5-0.7,1.1-1.4,1.6-1.8
			c0.6-0.5,1.3-0.7,2.1-0.7c0.7,0,1.4,0.2,1.9,0.7c0.5,0.4,0.8,1.1,0.8,1.9c0,0.7,0,1.4-0.1,2C42.2,74,42.1,74.6,42,75
			c-0.1,0.5-0.3,1-0.4,1.7c-0.1,0.6-0.3,1.5-0.7,2.6c-0.1,0.2-0.1,0.4-0.2,0.8c0,0.1,0,0.2,0,0.2l0.3,0.3c0-0.1,0.3-0.5,0.7-1.4
			c0.5-0.9,1-1.8,1.5-2.7c0.5-0.9,1.1-1.8,1.7-2.8s1.2-1.8,1.7-2.6c0.5-0.7,1-1.3,1.6-1.8c0.5-0.5,1.2-0.7,1.9-0.7
			c0.8,0,1.5,0.2,2.1,0.7c0.6,0.4,0.9,1.1,0.9,1.9c0,1.2-0.1,2.4-0.2,3.5c-0.1,1.1-0.3,2.4-0.6,3.7c-0.3,1.4-0.4,2.6-0.6,3.7
			s-0.2,2.3-0.2,3.5c0,1,0.1,1.8,0.4,2.4s0.6,0.9,0.9,0.9c0.4,0,0.8-0.1,1.2-0.2c0.4-0.2,0.8-0.4,1.3-0.6c0.4-0.3,0.8-0.5,1.3-0.9
			c0.4-0.3,0.8-0.7,1.2-1c0.9-0.8,1.7-1.8,2.6-2.8l0.5,6.3c-0.8,0.6-1.6,1.2-2.3,1.9s-1.6,1.2-2.5,1.8s-1.8,1-2.9,1.3
			c-1,0.3-2.2,0.5-3.5,0.5c-0.6,0-1.2-0.2-1.6-0.6c-0.4-0.4-0.8-1-1.1-1.7c-0.3-0.7-0.5-1.6-0.6-2.6c-0.1-1-0.2-2.1-0.2-3.3
			c0-1.1,0-2.3,0.1-3.6c0.1-1.3,0.2-2.6,0.3-3.8h-0.4l-5.4,13.8c-0.5,0.7-1,1.2-1.6,1.5c-0.6,0.3-1.2,0.4-2,0.4
			c-0.6,0-1-0.2-1.4-0.5s-0.6-0.7-0.8-1.2c-0.2-0.5-0.3-1-0.4-1.6C34.8,91.4,34.7,90.8,34.7,90.3z"/>
		<path fill="#E24B31" d="M66.9,73.5c1-1.2,1.9-2.2,2.7-3c0.8-0.7,1.7-1.1,2.5-1.1c1.1,0,2,0.2,2.8,0.7c0.8,0.5,1.5,1.1,2.1,1.8
			s1,1.6,1.3,2.6s0.5,2,0.5,3.1c0,0.9,0,1.8-0.1,2.6s-0.2,1.6-0.4,2.4c-0.2,0.8-0.4,1.6-0.8,2.3c-0.3,0.8-0.8,1.6-1.3,2.4
			c0.6-0.4,1.3-0.7,2-1.1c0.7-0.4,1.3-0.8,2-1.2c0.7-0.4,1.3-0.9,2-1.4c0.7-0.5,1.4-1.2,2.1-1.9l2.1,4.4c-1,0.9-2,1.7-2.9,2.3
			c-1,0.7-2,1.2-3,1.7c-1,0.5-2.1,0.9-3.2,1.3s-2.3,0.7-3.5,1c-0.3,0.3-0.7,0.6-1.2,0.9c-0.5,0.3-1,0.6-1.6,0.8
			c-0.6,0.3-1.2,0.6-1.9,0.8h-0.7c-2.8,0-4.3,0-4.5-0.1c-2.1-0.6-3.5-1.1-4-1.4c-1-0.7-2-1.3-2.9-2c0.1-1.4,0.2-3.1,0.3-4.9
			c0.1-1.6,0.3-3.5,0.6-5.8c0.4-3.4,0.7-5.8,1-7.4c0.2-1.8,0.4-3.7,0.7-5.9c0.3-1.6,0.7-3.7,1.1-6.1c0.4-2.5,1-4.7,1.7-6.8
			c0.7-2.1,1.5-3.9,2.4-5.6c0.9-1.6,1.8-2.9,2.9-3.9c1-1,2.2-1.5,3.4-1.5c1.4,0,2.4,0.2,3.3,0.7c0.8,0.5,1.5,1.1,1.9,1.9
			s0.7,1.7,0.9,2.8c0.1,1.1,0.2,2.2,0.2,3.4c0,1.7-0.3,3.4-1,5.2c-0.6,1.8-1.5,3.6-2.5,5.4c-1,1.8-2.2,3.5-3.4,5.2
			c-1.3,1.7-2.5,3.3-3.8,4.8L66.9,73.5z M69.3,75.5c-0.6,0-1.2,0.1-1.9,0.4s-1.2,0.7-1.7,1.2s-1,1.3-1.4,2.1
			c-0.8,1.7-1.1,2.7-0.9,3.1c0,0-0.1,1.1-0.4,3.2c-0.1,0.8-0.2,1.5-0.2,2.1c-0.1,0.7-0.2,1.4-0.2,2c0.6,0.2,1.2,0.3,1.8,0.5
			c0.5,0.1,1.1,0.1,1.6,0c0.6-0.1,1.1-0.1,1.6-0.1c0.6,0,1.2-0.2,1.7-0.5c0.5-0.4,0.9-0.8,1.3-1.4c0.4-0.6,0.7-1.3,1-2.1
			c0.3-0.8,0.5-1.6,0.7-2.4c0.2-0.8,0.3-1.7,0.4-2.5c0.1-0.8,0.1-1.6,0.1-2.3c0-0.4,0-0.9-0.1-1.3c-0.1-0.4-0.3-0.8-0.5-1.1
			c-0.3-0.3-0.6-0.6-1.1-0.7C70.6,75.5,70,75.5,69.3,75.5z M71.9,51c0-0.1,0-0.2,0-0.5c0-0.2-0.1-0.5-0.2-0.7
			c-0.1-0.2-0.2-0.5-0.4-0.7c-0.2-0.2-0.4-0.3-0.7-0.3c-0.4,0-0.7,0.3-1.1,0.8s-0.8,1.2-1.1,2.1c-0.4,0.9-0.7,1.9-1.1,3
			c-0.4,1.1-0.7,2.3-1,3.6c-0.3,1.2-0.6,2.5-0.9,3.8c-0.3,1.3-0.5,2.5-0.8,3.7c-0.2,1.1-0.5,2.2-0.7,3.1c-0.2,1-0.4,1.7-0.5,2.3
			c0.5-0.9,1-1.9,1.6-2.9s1.2-2,1.8-3.1c0.6-1.1,1.2-2.2,1.8-3.3c0.6-1.1,1.1-2.3,1.6-3.5c0.5-1.2,0.9-2.4,1.2-3.6
			C71.6,53.6,71.8,52.3,71.9,51z"/>
		<path fill="#E24B31" d="M93.2,95.2c-1.7,0-3.1-0.3-4.4-0.9c-1.2-0.6-2.3-1.4-3.1-2.5s-1.5-2.3-1.9-3.6c-0.4-1.4-0.6-2.8-0.6-4.3
			c0-1,0.2-2.2,0.6-3.5s0.8-2.6,1.2-3.6s0.9-2.1,1.5-3c0.6-1,1.3-1.8,2.1-2.5c0.8-0.7,1.7-1.3,2.7-1.7c1-0.4,2.1-0.6,3.3-0.6
			c1,0,1.9,0.2,2.8,0.5s1.6,0.8,2.2,1.4c0.6,0.6,1.1,1.3,1.5,2.1c0.4,0.8,0.5,1.7,0.5,2.8c0,1.1-0.4,2.3-1.1,3.6
			c-0.7,1.3-1.6,2.5-2.5,3.5c-1,1-2.1,1.8-3.4,2.6c-1.3,0.8-2.8,1.3-4.3,1.8c0.3,0.5,0.5,0.9,0.8,1.2c0.3,0.3,0.5,0.6,0.8,0.7
			c0.3,0.2,0.6,0.3,0.8,0.4c0.3,0.1,0.6,0.1,1,0.1c1.1,0,2.2-0.2,3.4-0.6s2.3-0.9,3.5-1.6c1.1-0.6,2.2-1.3,3.2-2.1
			c1-0.7,1.8-1.4,2.5-2.1l3.5,3.5c-1.6,1.7-3.2,3.2-5,4.4c-0.8,0.6-1.6,1.1-2.5,1.6c-0.9,0.5-1.8,1-2.8,1.4s-2,0.7-3,1
			S94.2,95.2,93.2,95.2z M89.6,82.4c0.6,0,1.3-0.2,2.1-0.5s1.5-0.7,2.1-1.2c0.7-0.5,1.3-1.2,1.9-2c0.6-0.9,0.9-1.6,0.9-2.1
			c0-0.8-0.1-1.4-0.4-1.9c-0.3-0.5-0.7-0.8-1.1-0.8c-0.8,0-1.4,0.1-2,0.4s-1,0.6-1.4,1.1s-0.7,1-0.9,1.5c-0.2,0.6-0.5,1.3-0.8,2.1
			s-0.5,1.5-0.5,2.1S89.6,82,89.6,82.4z"/>
		<path fill="#E24B31" d="M104.4,89.6c0-0.8,0-1.7,0.1-2.7c0.1-1,0.2-2.1,0.4-3.3c0.2-1.2,0.3-2.3,0.5-3.5c0.2-1.2,0.5-2.5,0.8-3.9
			s0.6-2.5,0.8-3.4c0.2-0.9,0.5-1.7,0.7-2.2c0.1-0.4,0.3-0.7,0.4-0.9s0.3-0.4,0.5-0.5s0.4-0.2,0.7-0.3c0.3,0,0.6-0.1,1-0.1
			c0.5,0,0.8,0,1.1,0.1c0.3,0,0.5,0.2,0.6,0.3c0.1,0.2,0.2,0.4,0.2,0.7c0,0.3,0,0.8,0,1.3c0,0.7,0,1.6-0.1,2.8
			c-0.1,1.2-0.1,2.3-0.1,3.2h0.3c0.4-0.7,0.8-1.7,1.3-2.8c0.5-1.2,1.1-2.1,1.7-2.9c0.6-0.8,1.3-1.4,2-1.9c0.7-0.5,1.6-0.8,2.6-0.8
			c0.3,0,0.7,0.1,1,0.2c0.3,0.1,0.6,0.3,0.8,0.5c0.2,0.2,0.4,0.5,0.6,0.8c0.1,0.3,0.2,0.7,0.2,1.1c0,0.3,0,0.7-0.1,1.3
			c-0.1,0.5-0.2,1.3-0.4,2.1s-0.3,1.6-0.4,2.2c-0.1,0.6-0.1,1-0.1,1.4c0,0.6,0.1,1.2,0.2,1.6c0.1,0.4,0.3,0.8,0.5,1
			c0.2,0.3,0.4,0.4,0.7,0.5s0.5,0.2,0.8,0.2c0.8,0,1.6-0.2,2.5-0.5c0.9-0.4,1.6-0.8,2.4-1.2c0.8-0.5,1.7-1.1,2.5-1.8l-0.4,6.3
			c-0.5,0.3-1,0.6-1.6,1c-0.6,0.4-1.2,0.7-1.9,1.1c-0.7,0.3-1.4,0.6-2.1,0.8c-0.7,0.2-1.5,0.3-2.2,0.3c-1.3,0-2.4-0.3-3.2-0.8
			c-0.8-0.5-1.5-1.3-2-2.1c-0.5-0.9-0.8-1.9-1.1-3c-0.2-1.1-0.4-2.2-0.6-3.3h-0.4l-4.8,13.4c-0.2,0.7-0.5,1.3-0.7,1.7
			c-0.2,0.5-0.5,0.8-0.7,1.1c-0.2,0.3-0.5,0.5-0.7,0.6s-0.6,0.2-0.9,0.2c-0.7,0-1.3-0.2-1.8-0.5s-0.8-0.7-1-1.3
			c-0.2-0.5-0.4-1.1-0.5-1.8S104.4,90.3,104.4,89.6z"/>
	</g>
	<g>
		<path d="M56,123.5c-0.2,0.5-0.6,0.8-1.1,0.8c-0.5,0-0.9-0.3-1.1-0.7l-4.2-10.6l-4.2,10.6c-0.2,0.4-0.6,0.7-1.1,0.7
			c-0.5,0-0.9-0.3-1.1-0.8l-4.8-13.6c-0.2-0.6,0.1-1.3,0.7-1.5c0.6-0.2,1.3,0.1,1.5,0.7l3.8,10.7l4.2-10.4c0.2-0.5,0.6-0.7,1.1-0.7
			c0.5,0,0.9,0.3,1.1,0.7l4.2,10.4l3.8-10.7c0.2-0.6,0.9-0.9,1.5-0.7c0.6,0.2,0.9,0.9,0.7,1.5L56,123.5z"/>
		<path d="M76.7,117l-10.6,0.7c0.4,2.9,2.4,4.5,5.2,4.5c1,0,2.1-0.2,3-0.5c0.6-0.2,1.3,0,1.5,0.6c0.3,0.6,0,1.3-0.6,1.5
			c-1.2,0.5-2.7,0.7-3.9,0.7c-4.6,0-7.6-3.2-7.6-7.7v-1.3c0-3.7,2.5-7.5,7.2-7.5c4.2,0,6.8,3,6.8,7.8
			C77.8,116.4,77.3,116.9,76.7,117z M75.4,114.8c-0.3-2.2-1.3-4.4-4.5-4.4c-3.3,0-4.8,2.4-4.9,4.9L75.4,114.8z"/>
		<path d="M94,117l-10.6,0.7c0.4,2.9,2.4,4.5,5.2,4.5c1,0,2.1-0.2,3-0.5c0.6-0.2,1.3,0,1.5,0.6c0.3,0.6,0,1.3-0.6,1.5
			c-1.2,0.5-2.7,0.7-3.9,0.7c-4.6,0-7.6-3.2-7.6-7.7v-1.3c0-3.7,2.5-7.5,7.2-7.5c4.2,0,6.8,3,6.8,7.8C95.1,116.4,94.6,116.9,94,117z
			 M92.7,114.8c-0.3-2.2-1.3-4.4-4.5-4.4c-3.3,0-4.8,2.4-4.9,4.9L92.7,114.8z"/>
		<path d="M111.4,122.2c0.4,0.5,0.3,1.3-0.2,1.7c-0.5,0.4-1.3,0.4-1.7-0.2L104,117l-2.3,2.2v3.8c0,0.7-0.5,1.2-1.2,1.2
			s-1.2-0.5-1.2-1.2v-19.8c0-0.7,0.5-1.2,1.2-1.2s1.2,0.5,1.2,1.2v12.7l7.7-7.3c0.5-0.5,1.3-0.4,1.7,0.1c0.5,0.5,0.4,1.3,0,1.7
			l-5.3,4.9L111.4,122.2z"/>
		<path d="M127.5,117l-10.6,0.7c0.4,2.9,2.4,4.5,5.2,4.5c1,0,2.1-0.2,3-0.5c0.6-0.2,1.3,0,1.5,0.6c0.3,0.6,0,1.3-0.6,1.5
			c-1.2,0.5-2.7,0.7-3.9,0.7c-4.6,0-7.6-3.2-7.6-7.7v-1.3c0-3.7,2.5-7.5,7.2-7.5c4.2,0,6.8,3,6.8,7.8
			C128.6,116.4,128.1,116.9,127.5,117z M126.2,114.8c-0.3-2.2-1.3-4.4-4.5-4.4c-3.3,0-4.8,2.4-4.9,4.9L126.2,114.8z"/>
		<path d="M146,123c0,0.7-0.5,1.2-1.2,1.2s-1.2-0.5-1.2-1.2v-8.7c0-2.7-1.1-3.8-3.5-3.8c-2.4,0-4.3,1.5-4.9,2.2V123
			c0,0.7-0.5,1.2-1.2,1.2s-1.2-0.5-1.2-1.2v-13.5c0-0.7,0.5-1.2,1.2-1.2s1.2,0.5,1.2,1.2v0.2c1.2-0.8,2.9-1.6,4.9-1.6
			c3.9,0,6,2.2,6,6.3V123z"/>
		<path d="M164.1,123c0,0.7-0.5,1.2-1.2,1.2c-0.5,0-0.9-0.3-1.1-0.6c-1,0.4-2.7,0.9-3.8,0.9c-4.6,0-7.6-3.3-7.6-8.2
			c0-4.9,3-8.2,7.6-8.2c1.1,0,2.7,0.5,3.7,0.8v-5.6c0-0.7,0.5-1.2,1.2-1.2s1.2,0.5,1.2,1.2V123z M161.7,111.4
			c-1-0.4-2.8-0.9-3.7-0.9c-3.3,0-5.2,2.2-5.2,5.8c0,3.6,1.9,5.8,5.2,5.8c0.9,0,2.7-0.5,3.7-0.9V111.4z"/>
	</g>
	<g id="oZI2w7.tif_1_">
		<g>
			<path d="M133.5,54.3c0.1,0,0.2,0.1,0.2,0.1c0.4,0.8,0.7,1.6,1,2.4c-0.8,0.2-1.7,0.6-2.5,0.6c-4.8,0.1-9.1,1.8-13.3,4.1
				c-0.9,0.5-1-0.2-1.2-0.7c-0.6-1.3-1.1-2.8-1.9-4c-0.4-0.7-1.3-1.1-2-1.6c-0.2-0.1-0.4-0.1-0.6-0.2c-2-0.9-3.9-1-5.9-0.1
				c-1.9,0.8-3.5,0.2-4.4-1.7c-1.4-2.9-2.5-6-1.4-9.4c0.9-2.9,2.7-4.1,5.7-3.4c0.6,0.1,1.3,0,2,0c1,0,1.4-0.4,0.9-1.4
				c0.1,0.1,0.3,0.2,0.4,0.3c0.5,0.2,1,0.7,1.4,0.6c0.3,0,0.6-0.8,0.7-1.2c0.2-0.8,0.3-1.7,0.5-2.5c0.7-2.1,0.7-2.1-1.2-2.9
				c-1.6-0.7-3.3-1.1-5-1.7c-0.1,0.1-0.2,0.3-0.3,0.4c1.1,2.2,2.3,4.4,3.4,6.6c-0.6-0.8-1.1-1.7-1.7-2.5c-0.7-1.3-1.5-2.6-2.1-3.9
				c-0.2-0.3-0.3-1-0.1-1.2c0.2-0.2,0.8-0.3,1.2-0.2c2.1,0.4,4.2,0.8,6.4,1.1c0.7,0.1,1.5-0.1,2.2-0.2c1.5-0.3,3-0.6,4.8-0.9
				c0.8-1.6,0.4-3.1-1.2-4.4c-0.5-0.4-1.1-1-1.4-1.6c-0.7-1.7-0.2-2.3,1.6-2c0.1-0.8,0.2-1.7,0.4-2.5c0.1-0.7,0-1.2,0.9-1.7
				c0.6-0.3,0.9-1.6,1.1-2.5c0.3-1.5,0.4-3.1,0.5-4.7c0.1-1.2-1.3-3.2-2.7-3.9c-0.4-0.2-0.7-0.4-1.1-0.6c0-0.1,0-0.3,0-0.4
				c1.8-0.6,3.6-1.3,5.5-1.9c0.1,0.6,0.1,1,0.2,1.5c0.3,0.1,0.6,0.2,1,0.3c6,1.1,11.2,4.2,16.7,6.6c11,4.9,21.9,10,32.9,14.9
				c1.7,0.8,2.6,3.6,2,5.4c-0.7,1.9-0.9,4-1.3,6c-1.6,7.5-3.2,15.1-4.9,22.6c-1.8,8-2.7,6.7-4.5,14.7c-0.5,2.4-2.9,10.7-3.2,13.1
				c-0.3,2.7,1,8.1,1,10.8c0,0.3,0,2.5,0,2.8c-1.4-0.3-2.1,1.3-2.3,0c-0.8-5.7-1.3-15.5-3.9-20.7c-0.9-1.8-0.4-3,0.3-4.6
				c2.8-6.6,5.4-13.3,8.1-19.9c0.2-0.5,0.4-1,0.7-1.5c0.4,0.2,0.8,0.3,1.3,0.5c0.5-2.2,1.1-4.3,1.5-6.4c1.2-5.4,2.4-10.8,3.6-16.2
				c0.3-1.3-0.2-2.4-1.5-2.9c-4.3-1.7-8.7-3.4-13-5.2c-6-2.4-12-4.9-18-7.2c-4.7-1.8-9.4-3.6-14.1-5.4c-1-0.4-1.8-1.2-2.9-1.9
				c0.1,2-1,3.9,0,6c1,2.4,0.9,4.9,0.3,7.2c-0.6-2.1-1.2-4.3-1.8-6.6c-0.1,0-0.2,0-0.2,0c0,0.3-0.2,0.6-0.1,0.8
				c0.9,1.8,0.1,3.7,0.1,5.6c0,1.8-0.4,3.7-0.7,5.5c-0.1,0.7,0.1,1.1,0.8,1.5c0.7,0.4,1.4,1.2,1.8,1.9c1,1.5,2.3,2.1,4,2.1
				c1.7,0.1,3.4,0.2,5.1,0.5c1.6,0.2,1.9,1.1,1,2.6c0.2-0.8-0.2-1.1-0.9-1c-1.3,0.2-2.6,0.4-3.8,0.6c-0.3,0.1-0.6,0.3-0.7,0.6
				c-0.1,0.4-0.1,0.8-0.1,1.2c0,0.4,0.1,0.8,0.3,1.1c0.2,0.3,0.4,0.7,0.7,0.9c0.7,0.5,0.9,1.1,0.4,1.9c-0.2,0.4-0.1,1-0.1,1.5
				c0.4-0.3,0.9-0.5,1.1-0.9c1-1.8,2-3.6,2.9-5.4c-1.1,2.5-2.1,4.9-3.2,7.4c-0.5,1-0.4,2,0.2,2.9C131.9,51.3,132.7,52.9,133.5,54.3
				c-1.2-1.9-2.5-3.9-3.8-5.8c-0.1,0-0.2,0-0.3,0c0,1.6,0.4,3.3-0.1,4.7c-0.6,1.8,0.3,2,1.5,2.3c0.6,0.2,1.1,0.4,1.7,0.5
				c0.5,0.1,1,0,1.6,0C133.8,55.3,133.7,54.8,133.5,54.3z M123.2,36.5c0.5,2,1,2.2,3,1.5c-0.1-0.3-0.2-0.6-0.3-0.9
				C125.2,35.8,124.1,36.5,123.2,36.5c-0.1-0.6-0.1-1.2-0.2-1.8c-0.1-0.4-0.3-0.8-0.5-1.3c-0.4,0.2-0.9,0.3-1,0.6
				c-0.2,0.4-0.2,1.1,0,1.4C121.9,35.9,122.6,36.1,123.2,36.5z M172,47.3c0.2-0.3,0.6-0.6,0.7-1c0.8-3.3,1.5-6.7,2.2-10
				c0.1-0.7,0.2-1.3,0.3-2c-0.4,0.4-0.5,0.8-0.6,1.2C173.7,39.5,172.9,43.4,172,47.3c-0.7,3.6-1.5,7.3-2.3,10.9
				c0.4-0.1,0.5-0.2,0.5-0.4c0.5-2.2,1-4.5,1.4-6.7C171.8,49.9,171.9,48.6,172,47.3z M168.6,26.5c0-0.1,0.1-0.3,0.1-0.4
				c-2.7-1.2-5.3-2.5-8-3.7c-9-3.9-18-7.9-27-11.8c-2.2-0.9-4.6-1.3-7-1.8c-0.7-0.2-1.7,0.1-1.1,1c0.7,1.1,1.7,2.3,2.8,2.8
				c6.1,2.6,12.2,5,18.3,7.5c4.7,1.9,9.3,4.1,14.4,4.9C163.5,25.4,166.1,26,168.6,26.5z M160.5,85.3c0.1,0,0.3,0,0.4,0
				c0.3-0.5,0.6-1,0.8-1.5c0.4-1.5,0.8-2.9,1.2-4.4c1.6-6.7,3.2-13.4,4.8-20.1c0.1-0.3,0-0.7,0-1c-0.5,0.9-0.6,1.7-0.9,2.5
				c-2.7,6.6-5.4,13.3-8,19.9c-0.1,0.2-0.1,0.6,0,0.8C159.3,82.7,159.9,84,160.5,85.3z M120.9,57c1.4,0.9,2.7,1,4.1,0.2
				c0.3-0.2,0.8-0.3,1.1-0.5c0.4-0.4,0.7-0.8,1.1-1.2c-0.6-0.2-1.3-0.4-1.9-0.5c-0.2,0-0.4,0.3-0.7,0.4c-0.7,0.2-1.5,0.6-2.1,0.5
				C121.3,55.6,121,56.1,120.9,57z M116.5,35.4c-1-0.9-1.8-1-2.1-0.3c-0.5,1.5-0.8,3.1-1.2,4.7c0.2,0.1,0.3,0.2,0.5,0.2
				c0.3-0.2,0.8-0.4,1-0.7C115.4,38.1,115.9,36.7,116.5,35.4z M115.4,33.7c0,0.2,0,0.4,0,0.6c1.6,0.1,3.2,0.3,4.8,0.3
				c0.3,0,0.6-0.8,0.8-1.3c0-0.2-0.5-0.8-0.7-0.7C118.6,32.7,116.9,32.8,115.4,33.7z M126.4,50.2c-0.1-0.1-0.3-0.2-0.4-0.3
				c-0.7,0.2-1.5,0.2-2,0.5c-0.5,0.3-1,1.1-0.9,1.6c0,0.5,0.6,1.1,1.1,1.5c0.2,0.2,1-0.1,1.1-0.3C125.7,52.2,126,51.2,126.4,50.2z
				 M133.1,37.3c0-0.2,0-0.3-0.1-0.5c-2.1-0.1-4.1-0.2-6.2-0.3c-0.1,0.1-0.2,0.3-0.3,0.4c0.5,0.5,1,1.4,1.4,1.4
				C129.6,38,131.4,37.6,133.1,37.3z M166.6,28c0,0.1-0.1,0.3-0.1,0.4c2,0.8,3.9,1.7,6,2.6c0.2-0.8,1.1-1.6-0.1-2
				C170.5,28.5,168.5,28.3,166.6,28z M111.6,53.6c1.6,0.6,2.8,1.2,4,1.6c0.2,0.1,0.8-0.3,0.8-0.6c0.2-0.7-1-2.1-1.8-1.9
				C113.8,52.9,112.9,53.2,111.6,53.6z M115.3,39.3c1.5-0.2,2.9,0.6,3.3-1.1c0.3-0.9-0.5-1.5-1.3-1.5C116,36.8,116,38.1,115.3,39.3z
				 M118.2,52.2c0.9,1.4,3,1.5,3.6,0.3c0.2-0.3,0.3-0.8,0.1-1.1c-0.1-0.2-0.7-0.3-1-0.2C120.1,51.4,119.2,51.8,118.2,52.2z
				 M109,51.3c1.7-0.1,2.2-1.2,1.4-3.3C108.7,48.1,108.6,48.3,109,51.3z M118.2,60c0.1,0,0.2,0.1,0.4,0.1c0.3-0.6,0.7-1.1,0.8-1.7
				c0-0.5-0.4-1.1-0.8-1.5c-0.1-0.2-0.6,0-1,0c0,0.5-0.1,1,0,1.4C117.7,58.8,118,59.4,118.2,60z M126.4,47.4
				c-0.1-0.5-0.2-0.9-0.3-1.4c-1,0.1-1.8,0.2-2.7,0.3C123.8,48.1,124.1,48.2,126.4,47.4z M120.5,49.2c1.6-0.3,1.9-1,1.4-2.7
				c-0.5,0.1-0.9,0.2-1.4,0.3C120.5,47.6,120.5,48.3,120.5,49.2z M118.5,54.5c-0.1,0.2-0.2,0.3-0.3,0.5c0.5,0.5,1.1,1,1.6,1.5
				c0.1,0,0.3-0.1,0.4-0.1c0-0.4,0.1-1-0.1-1.1C119.7,54.9,119.1,54.7,118.5,54.5z M118.7,53.8c-0.9-0.7-1.3-1.1-1.8-1.5
				c-0.1,0.2-0.4,0.5-0.4,0.6c0.4,0.5,0.8,0.9,1.2,1.3C117.9,54.2,118.3,53.9,118.7,53.8z M126.9,51.9c1.5-0.7,1.6-1.3,0.2-2.4
				C127.1,50.3,127,51,126.9,51.9z"/>
		</g>
	</g>
</g>
<g>
</g>
<g>
</g>
<g>
</g>
<g>
</g>
<g>
</g>
<g>
</g>
<g>
</g>
<g>
</g>
<g>
</g>
<g>
</g>
<g>
</g>
<g>
</g>
<g>
</g>
<g>
</g>
<g>
</g>
</svg>
