<?xml version="1.0" encoding="utf-8"?>
<!-- Generator: Adobe Illustrator 20.0.0, SVG Export Plug-In . SVG Version: 6.00 Build 0)  -->
<svg version="1.1" id="Layer_1" xmlns="http://www.w3.org/2000/svg" xmlns:xlink="http://www.w3.org/1999/xlink" x="0px" y="0px"
	 viewBox="0 0 278 48.2" style="enable-background:new 0 0 278 48.2;" xml:space="preserve">
<style type="text/css">
	.st0{fill:#E24C32;}
	.st1{fill:none;stroke:#FFFFFF;stroke-width:0.5;stroke-miterlimit:10;}
	.st2{fill:#FFFFFF;}
</style>
<path class="st0" d="M6.9,38.9c-0.1,0.9-0.2,1.4-0.1,1.6c0.1,0.2,0.4,0.4,0.8,0.6c0.6-0.1,1.8-1.2,3.6-3.3c0.1-0.1,0.3-0.2,0.5-0.3
	c0.2,0,0.4,0,0.6,0.1l2.8,1.6c0.2,0.1,0.4,0.3,0.5,0.6c0.1,0.3,0.1,0.5,0,0.6c-0.6,1.3-2.1,2.9-4.4,4.9c-2.3,2-3.9,2.9-4.8,2.7
	c-3.6-0.7-5.6-2.1-6.2-4.4c-0.4-1.6-0.3-4,0.1-7.3c0.5-3.3,1.2-6.5,2.3-9.7c1.1-3.2,2.2-5.4,3.4-6.6c0.8-0.8,1.7-1.5,2.6-2
	c0.9-0.5,1.8-0.9,2.8-1c1-0.2,1.9-0.1,2.8,0.3c2.6,1,4,2.9,4,5.6c0.1,1.8-0.5,3.8-1.6,6c-1.1,2.2-2.5,4.2-4.3,5.9
	C10.7,36.8,8.8,38.1,6.9,38.9z M8,32.8c1.3-0.8,2.3-2.2,3.2-3.9c0.9-1.8,1.3-3.4,1.3-4.9c0-0.6-0.1-1-0.2-1.2
	c-0.1-0.2-0.3-0.3-0.6-0.3c-0.3,0-0.6,0.3-0.9,0.9c-0.3,0.6-0.6,1.2-0.8,1.8C9.3,27.1,8.6,29.7,8,32.8z"/>
<path class="st0" d="M28.3,22.9c0,0,4.7-4.5,5.3-4.9c0.6-0.4,1.6-0.8,2.5-0.9c0.9-0.1,2.3,0.7,2.8,2.1c0.5,1.4,0.5,5,0.5,5l3.4-4.6
	c0.7-1,1.3-1.6,1.9-2c0.6-0.4,3-1,4.6-0.2s0.9,4.3,0.6,5.7l-4.5,20.5c-0.1,0.5-0.5,0.8-1.2,0.8l-2.9,0.2c-0.2,0-0.3-0.1-0.5-0.3
	c-0.1-0.2-0.2-0.5-0.1-0.9c0,0,1.3-8.7,1.9-11.5c0.6-2.8,1.1-5,0.1-5.3c-1-0.2-1.9,1.9-2,2.1C40.5,28.8,35,42.4,34.5,43
	c-0.2,0.5-0.9,1.4-1.5,1.4l-2.1,0c-0.2,0-0.3-0.1-0.5-0.3c-0.1-0.2-0.2-0.5-0.1-0.9c0,0,2-14,2-14.2c0-0.2,0-0.4,0-0.5
	c0-0.2,0-0.3,0-0.4c0-0.1-0.1-0.5-0.7-0.5c-0.5,0-1,0.6-1.2,0.7c-0.1,0.2-0.2,0.3-0.3,0.4c-0.1,0.1-0.2,0.3-0.4,0.6
	c-0.2,0.3-0.3,0.5-0.4,0.7c-0.9,1.5-2.1,4-3.7,7.5c-1.6,3.5-2.6,6.9-3,7.5c-0.5,0.7-0.6,0.9-1.2,0.9l-3.1,0.1
	c-0.3,0-0.5-0.1-0.7-0.4c-0.2-0.2-0.2-0.6-0.1-0.9l6.5-25.8c0.2-0.9,0.7-1.4,1.5-1.4l1.2-0.1c0.6,0,0.8,0,1,0.2
	c0.2,0.2,0.3,0.7,0.3,1.3S28.3,22.9,28.3,22.9z"/>
<path class="st0" d="M65.6,1.2l-4.2,18.3l1.1-1.6c1-1.4,1.9-2.5,2.5-3c0.6-0.6,1.2-0.9,1.9-0.9l0.4,0c0.6,0,4.7,1.8,4.7,3.8
	c-0.1,4.1-1.8,11.1-3.2,15.8c-1.4,4.7-2.5,7.1-4,8.4c-1.2,1.1-2.6,1.6-4.3,1.8c-1.6,0.1-2.1,0-3.4-0.2l0,0.1
	c-0.2,0.8-0.7,1.3-1.6,1.3l-3.2,0.2c-0.6,0-1-0.1-1.3-0.4c-0.3-0.3-0.4-0.7-0.3-1.3L58,1.7c0.2-0.8,0.7-1.3,1.6-1.3L64.2,0
	C65.3-0.1,65.7,0.3,65.6,1.2z M57.9,38.8c0.6,0.1,1.1,0.2,1.7,0.2c0.5,0,1-0.1,1.3-0.3c0.7-0.6,1.6-2.6,2.5-5.9
	c1-3.3,1.6-6.1,1.8-8.4c0.1-0.7,0.1-1.2,0.1-1.4c0-0.2-0.2-0.3-0.4-0.3c-0.3,0-0.7,0.4-1.2,1.1c-0.5,0.7-1.1,1.7-1.7,3
	c-1.6,3.2-2.8,6.9-3.7,11.1L57.9,38.8z"/>
<path class="st0" d="M77.6,36.6c-1.3,1.1-1.4,3.7-1.4,4c0.1,0.2,0.4,0.4,1.1,0.4c0.7,0.1,2.4-3.2,4.1-5.2c0.1-0.1,0.5-0.5,0.7-0.5
	c0.2,0,0.4,0,0.5,0.1l2.6,1.5c0.2,0.1,0.4,0.3,0.5,0.5c0.1,0.3,0.1,0.5,0,0.6c-0.6,1.2-2,2.8-4.1,4.6c-2.2,1.9-3.9,2.3-4.8,2.2
	c-3.4-0.6-5.1-1.6-5.6-3.7c-0.4-1.5-0.3-3.8,0.1-6.9c0.4-3.1,1.2-6.1,2.2-9.2c1-3,2.1-5.1,3.3-6.2c0.8-0.8,1.6-1.4,2.4-1.9
	c0.8-0.5,1.7-0.8,2.7-1c0.9-0.2,1.8-0.1,2.7,0.3c2.5,1,3.7,2.7,3.8,5.3c0.1,1.7-0.4,3.6-1.5,5.7c-1,2.1-2.4,3.9-4.1,5.6
	C81.2,34.7,79.4,35.9,77.6,36.6z M78.7,30.9c1.2-0.8,2.2-2,3-3.7c0.8-1.7,1.2-3.2,1.2-4.6c0-0.5-0.1-0.9-0.2-1.1
	c-0.1-0.2-0.3-0.3-0.5-0.3c-0.3,0-0.5,0.3-0.9,0.8s-0.6,1.1-0.8,1.7C79.9,25.5,79.3,27.9,78.7,30.9z"/>
<path class="st0" d="M99.1,20.4c0.6-0.9,1.9-2.7,3.1-3.3s3.8-1,5.2,0.6c1.9,2.1-1.5,8.3-1.7,8.4c-0.2,0.1-1.1,0.2-1.3,0.1
	c-0.2-0.1,1.4-3.2-1.3-3.3c-2.7,0-5.6,2.8-6.1,6l-2.9,12.5c-0.2,0.7-0.6,1.1-1.4,1.1l-4,0.1c-0.9,0-1.3-0.3-1.1-1.1l5.7-24.5
	c0.2-0.7,0.7-1.1,1.5-1.1l4-0.1c0.9,0,1.3,0.3,1.1,1.1L99.1,20.4z"/>
<g>
	<path class="st2" d="M145,18l-5.8,20.2l-3.5,0l-4.1-12.7l-0.4-2.6l-0.1,0l-0.4,2.6l-4,12.8l-3.5,0l-6-20.1l3.1,0l4.3,14.7l0.4,2.3
		h0.1l0.3-2.3l4.4-14.7l2.5,0l4.5,14.7l0.4,2.3l0.1,0l0.3-2.3L142,18L145,18z"/>
	<path class="st2" d="M165.9,29.3l-16.3,0.1l0.4,0.3c0.5,3.6,2.7,5.9,6.8,5.9c2.2,0,4.1-0.8,5.5-2.2l2.1,2c-1.9,1.9-4.6,3-7.6,3
		c-6.7,0-9.8-4.3-9.8-10.2c0-6.2,3.5-10.6,9.5-10.6c6.4,0,9.5,4.4,9.5,10.5C166,28.6,165.9,28.9,165.9,29.3z M163.3,26.6l-0.4-0.3
		c-0.5-3.5-2.5-5.9-6.4-5.9c-4,0-6,2.6-6.5,6l-0.3,0.3L163.3,26.6z"/>
	<path class="st2" d="M188.1,29.2l-16.3,0.1l0.4,0.3c0.5,3.6,2.7,5.9,6.8,5.9c2.2,0,4.1-0.8,5.5-2.2l2.1,2c-1.9,1.9-4.6,3-7.6,3
		c-6.7,0-9.8-4.3-9.8-10.2c0-6.2,3.5-10.6,9.5-10.6c6.4,0,9.5,4.4,9.5,10.5C188.1,28.5,188.1,28.7,188.1,29.2z M185.4,26.5l-0.4-0.3
		c-0.5-3.5-2.5-5.9-6.4-5.9c-4,0-6,2.6-6.5,6l-0.4,0.3L185.4,26.5z"/>
	<path class="st2" d="M195.3,37.8l-2.9,0L192.2,11l2.9,0L195.3,37.8z M209.8,37.8l-4.1,0l-10.1-10.3l9.5-9.9l4.2,0l-9.8,9.9v0.1
		L209.8,37.8z"/>
	<path class="st2" d="M230.1,28.9L213.8,29l0.4,0.3c0.5,3.6,2.7,5.9,6.8,5.9c2.2,0,4.1-0.8,5.5-2.2l2.1,2c-1.9,1.9-4.6,3-7.6,3
		c-6.7,0-9.8-4.3-9.8-10.2c0-6.2,3.5-10.6,9.5-10.6c6.4,0,9.5,4.4,9.5,10.5C230.2,28.2,230.1,28.5,230.1,28.9z M227.5,26.2l-0.4-0.3
		c-0.5-3.5-2.5-5.9-6.4-5.9c-4,0-6,2.6-6.5,6l-0.3,0.3L227.5,26.2z"/>
	<path class="st2" d="M252.1,37.5l-2.9,0l-0.1-12.2c0-3.2-1-5.4-5.7-5.4c-3.4,0-6.2,1.9-6.1,5.7l0.1,12l-2.9,0l-0.1-20.2l2.9,0
		l0,2.5l0.1,0c1.4-1.7,3.8-2.9,6.4-2.9c5.3,0,8.3,2.7,8.3,7.6L252.1,37.5z"/>
	<path class="st2" d="M274.9,37.3l-2.9,0l0-2.3h-0.1c-1.4,1.7-3.5,2.7-6.3,2.7c-6.3,0-9.4-4.2-9.4-10.2c0-6.1,3-10.5,9.3-10.6
		c2.6,0,4.9,1.1,6.3,2.7h0.1l-0.1-9.2l2.9,0L274.9,37.3z M265.6,19.7c-4.7,0-6.5,3.5-6.5,7.7c0,4.3,1.8,7.5,6.6,7.4
		c4.7,0,6.5-3.3,6.4-7.5C272.1,23.1,270.3,19.7,265.6,19.7z"/>
</g>
</svg>
